%TF.GenerationSoftware,KiCad,Pcbnew,9.0.5*%
%TF.CreationDate,2025-10-21T22:54:45-03:00*%
%TF.ProjectId,buck_bidireccional,6275636b-5f62-4696-9469-72656363696f,rev?*%
%TF.SameCoordinates,Original*%
%TF.FileFunction,Legend,Bot*%
%TF.FilePolarity,Positive*%
%FSLAX46Y46*%
G04 Gerber Fmt 4.6, Leading zero omitted, Abs format (unit mm)*
G04 Created by KiCad (PCBNEW 9.0.5) date 2025-10-21 22:54:45*
%MOMM*%
%LPD*%
G01*
G04 APERTURE LIST*
%ADD10C,0.150000*%
%ADD11C,0.120000*%
G04 APERTURE END LIST*
D10*
X150761904Y-106529819D02*
X150761904Y-107339342D01*
X150761904Y-107339342D02*
X150714285Y-107434580D01*
X150714285Y-107434580D02*
X150666666Y-107482200D01*
X150666666Y-107482200D02*
X150571428Y-107529819D01*
X150571428Y-107529819D02*
X150380952Y-107529819D01*
X150380952Y-107529819D02*
X150285714Y-107482200D01*
X150285714Y-107482200D02*
X150238095Y-107434580D01*
X150238095Y-107434580D02*
X150190476Y-107339342D01*
X150190476Y-107339342D02*
X150190476Y-106529819D01*
X149190476Y-107529819D02*
X149761904Y-107529819D01*
X149476190Y-107529819D02*
X149476190Y-106529819D01*
X149476190Y-106529819D02*
X149571428Y-106672676D01*
X149571428Y-106672676D02*
X149666666Y-106767914D01*
X149666666Y-106767914D02*
X149761904Y-106815533D01*
D11*
%TO.C,U1*%
X150000000Y-107915000D02*
X148050000Y-107915000D01*
X150000000Y-107915000D02*
X151950000Y-107915000D01*
X150000000Y-113035000D02*
X148050000Y-113035000D01*
X150000000Y-113035000D02*
X151950000Y-113035000D01*
X152700000Y-108010000D02*
X152460000Y-107680000D01*
X152940000Y-107680000D01*
X152700000Y-108010000D01*
G36*
X152700000Y-108010000D02*
G01*
X152460000Y-107680000D01*
X152940000Y-107680000D01*
X152700000Y-108010000D01*
G37*
%TD*%
M02*
