%TF.GenerationSoftware,KiCad,Pcbnew,9.0.4*%
%TF.CreationDate,2025-09-12T15:13:19-03:00*%
%TF.ProjectId,buck_bidireccional,6275636b-5f62-4696-9469-72656363696f,rev?*%
%TF.SameCoordinates,Original*%
%TF.FileFunction,Copper,L2,Bot*%
%TF.FilePolarity,Positive*%
%FSLAX46Y46*%
G04 Gerber Fmt 4.6, Leading zero omitted, Abs format (unit mm)*
G04 Created by KiCad (PCBNEW 9.0.4) date 2025-09-12 15:13:19*
%MOMM*%
%LPD*%
G01*
G04 APERTURE LIST*
G04 Aperture macros list*
%AMRoundRect*
0 Rectangle with rounded corners*
0 $1 Rounding radius*
0 $2 $3 $4 $5 $6 $7 $8 $9 X,Y pos of 4 corners*
0 Add a 4 corners polygon primitive as box body*
4,1,4,$2,$3,$4,$5,$6,$7,$8,$9,$2,$3,0*
0 Add four circle primitives for the rounded corners*
1,1,$1+$1,$2,$3*
1,1,$1+$1,$4,$5*
1,1,$1+$1,$6,$7*
1,1,$1+$1,$8,$9*
0 Add four rect primitives between the rounded corners*
20,1,$1+$1,$2,$3,$4,$5,0*
20,1,$1+$1,$4,$5,$6,$7,0*
20,1,$1+$1,$6,$7,$8,$9,0*
20,1,$1+$1,$8,$9,$2,$3,0*%
G04 Aperture macros list end*
%TA.AperFunction,ComponentPad*%
%ADD10C,1.600000*%
%TD*%
%TA.AperFunction,ComponentPad*%
%ADD11RoundRect,0.250000X0.650000X-0.650000X0.650000X0.650000X-0.650000X0.650000X-0.650000X-0.650000X0*%
%TD*%
%TA.AperFunction,ComponentPad*%
%ADD12C,1.800000*%
%TD*%
%TA.AperFunction,ComponentPad*%
%ADD13RoundRect,0.250000X0.550000X0.550000X-0.550000X0.550000X-0.550000X-0.550000X0.550000X-0.550000X0*%
%TD*%
%TA.AperFunction,ComponentPad*%
%ADD14R,1.700000X1.700000*%
%TD*%
%TA.AperFunction,ComponentPad*%
%ADD15C,1.700000*%
%TD*%
%TA.AperFunction,SMDPad,CuDef*%
%ADD16RoundRect,0.150000X0.825000X0.150000X-0.825000X0.150000X-0.825000X-0.150000X0.825000X-0.150000X0*%
%TD*%
%TA.AperFunction,ComponentPad*%
%ADD17C,3.500000*%
%TD*%
%TA.AperFunction,ComponentPad*%
%ADD18RoundRect,0.250000X0.550000X-0.550000X0.550000X0.550000X-0.550000X0.550000X-0.550000X-0.550000X0*%
%TD*%
%TA.AperFunction,ComponentPad*%
%ADD19RoundRect,0.250000X-0.550000X0.550000X-0.550000X-0.550000X0.550000X-0.550000X0.550000X0.550000X0*%
%TD*%
%TA.AperFunction,ComponentPad*%
%ADD20RoundRect,0.250000X-0.650000X-0.650000X0.650000X-0.650000X0.650000X0.650000X-0.650000X0.650000X0*%
%TD*%
%TA.AperFunction,ComponentPad*%
%ADD21R,1.905000X2.000000*%
%TD*%
%TA.AperFunction,ComponentPad*%
%ADD22O,1.905000X2.000000*%
%TD*%
%TA.AperFunction,ComponentPad*%
%ADD23RoundRect,0.250000X-1.050000X1.050000X-1.050000X-1.050000X1.050000X-1.050000X1.050000X1.050000X0*%
%TD*%
%TA.AperFunction,ComponentPad*%
%ADD24C,2.600000*%
%TD*%
%TA.AperFunction,ComponentPad*%
%ADD25RoundRect,0.250000X-1.050000X-1.050000X1.050000X-1.050000X1.050000X1.050000X-1.050000X1.050000X0*%
%TD*%
%TA.AperFunction,ComponentPad*%
%ADD26C,1.400000*%
%TD*%
%TA.AperFunction,Conductor*%
%ADD27C,0.800000*%
%TD*%
G04 APERTURE END LIST*
D10*
%TO.P,R4,1*%
%TO.N,HO*%
X151000000Y-93130000D03*
%TO.P,R4,2*%
%TO.N,VS*%
X151000000Y-100750000D03*
%TD*%
D11*
%TO.P,D3,1,K*%
%TO.N,Net-(D3-K)*%
X146500000Y-103060000D03*
D12*
%TO.P,D3,2,A*%
%TO.N,LO*%
X146500000Y-95440000D03*
%TD*%
D13*
%TO.P,C3,1*%
%TO.N,Net-(D4-K)*%
X144000000Y-123000000D03*
D10*
%TO.P,C3,2*%
%TO.N,VS*%
X142000000Y-123000000D03*
%TD*%
D14*
%TO.P,Vgs_Q1,1,Pin_1*%
%TO.N,VS*%
X131775000Y-95500000D03*
D15*
%TO.P,Vgs_Q1,2,Pin_2*%
%TO.N,HO*%
X129235000Y-95500000D03*
%TD*%
D16*
%TO.P,U1,1,IN*%
%TO.N,Net-(PWM1-Pin_1)*%
X152475000Y-108570000D03*
%TO.P,U1,2,~{SD}*%
%TO.N,Net-(PWM1-Pin_2)*%
X152475000Y-109840000D03*
%TO.P,U1,3,COM*%
%TO.N,GND*%
X152475000Y-111110000D03*
%TO.P,U1,4,LO*%
%TO.N,Net-(D3-K)*%
X152475000Y-112380000D03*
%TO.P,U1,5,VCC*%
%TO.N,+12V*%
X147525000Y-112380000D03*
%TO.P,U1,6,VS*%
%TO.N,VS*%
X147525000Y-111110000D03*
%TO.P,U1,7,HO*%
%TO.N,Net-(D2-K)*%
X147525000Y-109840000D03*
%TO.P,U1,8,VB*%
%TO.N,Net-(D4-K)*%
X147525000Y-108570000D03*
%TD*%
D10*
%TO.P,R5,1*%
%TO.N,LO*%
X162500000Y-97380000D03*
%TO.P,R5,2*%
%TO.N,GND*%
X162500000Y-105000000D03*
%TD*%
%TO.P,R3,1*%
%TO.N,Net-(D2-K)*%
X164120000Y-89000000D03*
%TO.P,R3,2*%
%TO.N,HO*%
X156500000Y-89000000D03*
%TD*%
%TO.P,R2,1*%
%TO.N,Net-(D3-K)*%
X175310000Y-89000000D03*
%TO.P,R2,2*%
%TO.N,LO*%
X167690000Y-89000000D03*
%TD*%
D17*
%TO.P,L1,1,1*%
%TO.N,Net-(J2-Pin_1)*%
X130500000Y-114500000D03*
%TO.P,L1,2,2*%
%TO.N,VS*%
X137500000Y-114500000D03*
%TD*%
D18*
%TO.P,C4,1*%
%TO.N,+12V*%
X162000000Y-120455113D03*
D10*
%TO.P,C4,2*%
%TO.N,GND*%
X162000000Y-118455113D03*
%TD*%
D19*
%TO.P,C2,1*%
%TO.N,Net-(J2-Pin_1)*%
X123500000Y-128000000D03*
D10*
%TO.P,C2,2*%
%TO.N,GND*%
X123500000Y-130000000D03*
%TD*%
D14*
%TO.P,Vl1,1,Pin_1*%
%TO.N,Net-(J2-Pin_1)*%
X132725000Y-133500000D03*
D15*
%TO.P,Vl1,2,Pin_2*%
%TO.N,VS*%
X135265000Y-133500000D03*
%TD*%
D20*
%TO.P,D4,1,K*%
%TO.N,Net-(D4-K)*%
X149380000Y-128500000D03*
D12*
%TO.P,D4,2,A*%
%TO.N,+12V*%
X157000000Y-128500000D03*
%TD*%
D10*
%TO.P,R1,1*%
%TO.N,+12V*%
X169000000Y-121370000D03*
%TO.P,R1,2*%
%TO.N,Net-(PWM1-Pin_2)*%
X169000000Y-113750000D03*
%TD*%
D11*
%TO.P,D2,1,K*%
%TO.N,Net-(D2-K)*%
X154500000Y-102810000D03*
D12*
%TO.P,D2,2,A*%
%TO.N,HO*%
X154500000Y-95190000D03*
%TD*%
D21*
%TO.P,Q1,1,D*%
%TO.N,Net-(J3-Pin_1)*%
X126225000Y-90750000D03*
D22*
%TO.P,Q1,2,G*%
%TO.N,HO*%
X128765000Y-90750000D03*
%TO.P,Q1,3,S*%
%TO.N,VS*%
X131305000Y-90750000D03*
%TD*%
D21*
%TO.P,Q2,1,D*%
%TO.N,VS*%
X141670000Y-90700000D03*
D22*
%TO.P,Q2,2,G*%
%TO.N,LO*%
X144210000Y-90700000D03*
%TO.P,Q2,3,S*%
%TO.N,GND*%
X146750000Y-90700000D03*
%TD*%
D19*
%TO.P,C1,1*%
%TO.N,Net-(J3-Pin_1)*%
X124000000Y-110250000D03*
D10*
%TO.P,C1,2*%
%TO.N,GND*%
X124000000Y-112250000D03*
%TD*%
D23*
%TO.P,J3,1,Pin_1*%
%TO.N,Net-(J3-Pin_1)*%
X114250000Y-109750000D03*
D24*
%TO.P,J3,2,Pin_2*%
%TO.N,GND*%
X114250000Y-114830000D03*
%TD*%
%TO.P,Vcc1,2,Pin_2*%
%TO.N,GND*%
X173580000Y-128500000D03*
D25*
%TO.P,Vcc1,1,Pin_1*%
%TO.N,+12V*%
X168500000Y-128500000D03*
%TD*%
D14*
%TO.P,PWM1,1,Pin_1*%
%TO.N,Net-(PWM1-Pin_1)*%
X176500000Y-116775000D03*
D15*
%TO.P,PWM1,2,Pin_2*%
%TO.N,Net-(PWM1-Pin_2)*%
X176500000Y-114235000D03*
%TD*%
D23*
%TO.P,J2,1,Pin_1*%
%TO.N,Net-(J2-Pin_1)*%
X114305000Y-127045000D03*
D24*
%TO.P,J2,2,Pin_2*%
%TO.N,GND*%
X114305000Y-132125000D03*
%TD*%
D10*
%TO.P,R6,1*%
%TO.N,Net-(PWM1-Pin_1)*%
X155690000Y-108500000D03*
%TO.P,R6,2*%
%TO.N,GND*%
X163310000Y-108500000D03*
%TD*%
D14*
%TO.P,Vgs_Q2,1,Pin_1*%
%TO.N,GND*%
X179000000Y-95775000D03*
D15*
%TO.P,Vgs_Q2,2,Pin_2*%
%TO.N,LO*%
X179000000Y-93235000D03*
%TD*%
D26*
%TO.P,DQ1,1,1*%
%TO.N,Net-(J3-Pin_1)*%
X113000000Y-99520000D03*
X113000000Y-96980000D03*
%TD*%
%TO.P,IL1,1,1*%
%TO.N,Net-(J2-Pin_1)*%
X125730000Y-134000000D03*
X128270000Y-134000000D03*
%TD*%
%TO.P,DQ2,1,1*%
%TO.N,VS*%
X141770000Y-133500000D03*
X139230000Y-133500000D03*
%TD*%
D27*
%TO.N,HO*%
X149275794Y-89000000D02*
X148262897Y-87987103D01*
X156500000Y-89000000D02*
X149275794Y-89000000D01*
X147973794Y-87698001D02*
X148262897Y-87987103D01*
%TO.N,LO*%
X150060000Y-99000000D02*
X146500000Y-95440000D01*
X161000000Y-99000000D02*
X150060000Y-99000000D01*
X162500000Y-97500000D02*
X161000000Y-99000000D01*
X162500000Y-97380000D02*
X162500000Y-97500000D01*
X144210000Y-93150000D02*
X146500000Y-95440000D01*
X144210000Y-90700000D02*
X144210000Y-93150000D01*
%TO.N,VS*%
X151000000Y-100750000D02*
X150000000Y-100750000D01*
%TO.N,HO*%
X128765000Y-95030000D02*
X129235000Y-95500000D01*
X128765000Y-90750000D02*
X128765000Y-95030000D01*
X151000000Y-90724207D02*
X151000000Y-93130000D01*
X148262897Y-87987103D02*
X151000000Y-90724207D01*
X131816999Y-87698001D02*
X147973794Y-87698001D01*
X128765000Y-90750000D02*
X131816999Y-87698001D01*
X129235000Y-91220000D02*
X128765000Y-90750000D01*
X128765000Y-90445000D02*
X128765000Y-90397500D01*
%TO.N,Net-(PWM1-Pin_2)*%
X176015000Y-113750000D02*
X176500000Y-114235000D01*
X169000000Y-113750000D02*
X176015000Y-113750000D01*
X158500000Y-113750000D02*
X158250000Y-113500000D01*
X169000000Y-113750000D02*
X158500000Y-113750000D01*
X158250000Y-113500000D02*
X154590000Y-109840000D01*
X154590000Y-109840000D02*
X152475000Y-109840000D01*
%TO.N,Net-(PWM1-Pin_1)*%
X158279000Y-111089000D02*
X155690000Y-108500000D01*
X178151000Y-113551133D02*
X175688867Y-111089000D01*
X178151000Y-115124000D02*
X178151000Y-113551133D01*
X176500000Y-116775000D02*
X178151000Y-115124000D01*
X175688867Y-111089000D02*
X158279000Y-111089000D01*
%TO.N,Net-(J2-Pin_1)*%
X132225000Y-134000000D02*
X132725000Y-133500000D01*
X128270000Y-134000000D02*
X132225000Y-134000000D01*
X125730000Y-134000000D02*
X128270000Y-134000000D01*
%TO.N,Net-(D3-K)*%
X152001000Y-105250000D02*
X150501000Y-106750000D01*
X159060000Y-105250000D02*
X152001000Y-105250000D01*
X150501000Y-106750000D02*
X150501000Y-105212212D01*
X159060000Y-105250000D02*
X175310000Y-89000000D01*
%TO.N,VS*%
X149000000Y-133500000D02*
X141770000Y-133500000D01*
%TO.N,Net-(D4-K)*%
X149380000Y-128380000D02*
X144000000Y-123000000D01*
X147525000Y-108570000D02*
X146470926Y-108570000D01*
X144000000Y-111040926D02*
X144000000Y-123000000D01*
X149380000Y-128500000D02*
X149380000Y-128380000D01*
X146470926Y-108570000D02*
X144000000Y-111040926D01*
%TO.N,Net-(D2-K)*%
X154500000Y-102810000D02*
X159334156Y-102810000D01*
X143500000Y-104000000D02*
X143500000Y-102658000D01*
X143500000Y-102658000D02*
X145007999Y-101150001D01*
X148135845Y-101150001D02*
X149795844Y-102810000D01*
X149795844Y-102810000D02*
X154500000Y-102810000D01*
X145007999Y-101150001D02*
X148135845Y-101150001D01*
X147511130Y-104800000D02*
X144300000Y-104800000D01*
X148579074Y-109840000D02*
X149301000Y-109118074D01*
X149301000Y-109118074D02*
X149301000Y-106589870D01*
X147525000Y-109840000D02*
X148579074Y-109840000D01*
X159334156Y-102810000D02*
X164120000Y-98024156D01*
X144300000Y-104800000D02*
X143500000Y-104000000D01*
X154500000Y-102810000D02*
X154011000Y-103299000D01*
X149301000Y-106589870D02*
X147511130Y-104800000D01*
X164120000Y-98024156D02*
X164120000Y-89000000D01*
%TO.N,Net-(D3-K)*%
X150501000Y-105212212D02*
X149519394Y-104230606D01*
X148348788Y-103060000D02*
X149519394Y-104230606D01*
X151420926Y-112380000D02*
X150501000Y-111460074D01*
X150501000Y-111460074D02*
X150501000Y-106750000D01*
X152475000Y-112380000D02*
X151420926Y-112380000D01*
X146500000Y-103060000D02*
X148348788Y-103060000D01*
%TO.N,+12V*%
X155576113Y-120455113D02*
X162000000Y-120455113D01*
X147525000Y-112404000D02*
X155576113Y-120455113D01*
%TO.N,VS*%
X147525000Y-111202000D02*
X146378926Y-111202000D01*
X144510943Y-99950001D02*
X137500000Y-106960944D01*
X153000000Y-130750000D02*
X150250000Y-133500000D01*
X150000000Y-100750000D02*
X149200001Y-99950001D01*
X145749000Y-111831926D02*
X145749000Y-113999000D01*
X145749000Y-113999000D02*
X153000000Y-121250000D01*
X137500000Y-106960944D02*
X137500000Y-114500000D01*
X150250000Y-133500000D02*
X149000000Y-133500000D01*
X149200001Y-99950001D02*
X144510943Y-99950001D01*
X146378926Y-111202000D02*
X145749000Y-111831926D01*
X153000000Y-121250000D02*
X153000000Y-130750000D01*
%TO.N,HO*%
X154500000Y-95190000D02*
X154500000Y-91000000D01*
X154500000Y-91000000D02*
X156500000Y-89000000D01*
%TO.N,LO*%
X166089000Y-87399000D02*
X163456844Y-87399000D01*
X179000000Y-90425844D02*
X175973156Y-87399000D01*
X163456844Y-87399000D02*
X162500000Y-88355844D01*
X175973156Y-87399000D02*
X169291000Y-87399000D01*
X162500000Y-88355844D02*
X162500000Y-97380000D01*
X179000000Y-93235000D02*
X179000000Y-90425844D01*
X169291000Y-87399000D02*
X167690000Y-89000000D01*
X167690000Y-89000000D02*
X166089000Y-87399000D01*
%TO.N,Net-(PWM1-Pin_1)*%
X155620000Y-108570000D02*
X155690000Y-108500000D01*
X152475000Y-108570000D02*
X155620000Y-108570000D01*
%TD*%
%TA.AperFunction,Conductor*%
%TO.N,VS*%
G36*
X141695734Y-88607940D02*
G01*
X141853720Y-88673380D01*
X141871057Y-88682214D01*
X142071832Y-88805249D01*
X142087565Y-88816679D01*
X142266640Y-88969623D01*
X142280376Y-88983359D01*
X142433318Y-89162432D01*
X142444750Y-89178167D01*
X142567785Y-89378942D01*
X142576619Y-89396279D01*
X142666732Y-89613830D01*
X142672745Y-89632336D01*
X142727715Y-89861303D01*
X142730759Y-89880521D01*
X142749618Y-90120146D01*
X142750000Y-90129875D01*
X142750000Y-91750000D01*
X142750000Y-94750000D01*
X142750065Y-94758083D01*
X142750066Y-94758130D01*
X142809205Y-102032360D01*
X142803891Y-102051014D01*
X142803548Y-102070406D01*
X142790743Y-102097179D01*
X142790066Y-102099557D01*
X142788320Y-102102246D01*
X142783483Y-102109487D01*
X142783474Y-102109500D01*
X142701985Y-102231455D01*
X142668046Y-102313393D01*
X142634106Y-102395330D01*
X142634103Y-102395342D01*
X142622417Y-102454093D01*
X142599500Y-102569304D01*
X142599500Y-104088696D01*
X142634103Y-104262658D01*
X142634106Y-104262670D01*
X142650693Y-104302713D01*
X142701985Y-104426544D01*
X142701986Y-104426546D01*
X142701987Y-104426547D01*
X142724674Y-104460500D01*
X142800536Y-104574036D01*
X142803508Y-104577008D01*
X142809223Y-104585454D01*
X142818180Y-104613488D01*
X142829689Y-104640583D01*
X142830377Y-104651664D01*
X142830488Y-104652009D01*
X142830415Y-104652277D01*
X142830519Y-104653935D01*
X142970049Y-121816206D01*
X142950910Y-121883403D01*
X142933736Y-121904894D01*
X142857289Y-121981343D01*
X142765187Y-122130663D01*
X142765186Y-122130666D01*
X142710001Y-122297203D01*
X142710001Y-122297204D01*
X142710000Y-122297204D01*
X142699500Y-122399983D01*
X142699500Y-123600001D01*
X142699501Y-123600018D01*
X142710000Y-123702796D01*
X142710001Y-123702799D01*
X142765185Y-123869331D01*
X142765187Y-123869336D01*
X142857289Y-124018657D01*
X142953124Y-124114492D01*
X142986609Y-124175815D01*
X142989439Y-124201165D01*
X142999934Y-125491870D01*
X142999936Y-125492146D01*
X142999981Y-125499766D01*
X142999983Y-125500231D01*
X143000000Y-125508122D01*
X143000000Y-132995572D01*
X142999684Y-133004418D01*
X142980275Y-133275785D01*
X142977757Y-133293297D01*
X142920872Y-133554794D01*
X142915888Y-133571770D01*
X142822361Y-133822524D01*
X142815011Y-133838617D01*
X142686758Y-134073496D01*
X142677193Y-134088380D01*
X142516811Y-134302624D01*
X142505225Y-134315994D01*
X142315994Y-134505225D01*
X142302624Y-134516811D01*
X142088380Y-134677193D01*
X142073496Y-134686758D01*
X141838617Y-134815011D01*
X141822524Y-134822361D01*
X141571770Y-134915888D01*
X141554794Y-134920872D01*
X141293297Y-134977757D01*
X141275785Y-134980275D01*
X141004418Y-134999684D01*
X140995572Y-135000000D01*
X136004428Y-135000000D01*
X135995582Y-134999684D01*
X135724214Y-134980275D01*
X135706702Y-134977757D01*
X135445205Y-134920872D01*
X135428229Y-134915888D01*
X135177475Y-134822361D01*
X135161382Y-134815011D01*
X134926503Y-134686758D01*
X134911619Y-134677193D01*
X134697375Y-134516811D01*
X134684005Y-134505225D01*
X134494774Y-134315994D01*
X134483188Y-134302624D01*
X134322802Y-134088375D01*
X134313244Y-134073501D01*
X134184987Y-133838616D01*
X134177638Y-133822524D01*
X134084112Y-133571772D01*
X134084111Y-133571770D01*
X134084110Y-133571767D01*
X134079124Y-133554779D01*
X134078329Y-133551122D01*
X134075499Y-133524785D01*
X134075499Y-132602128D01*
X134069091Y-132542517D01*
X134018796Y-132407669D01*
X134018793Y-132407665D01*
X134015168Y-132401026D01*
X134000000Y-132341598D01*
X134000000Y-101500000D01*
X133537472Y-100944966D01*
X133537460Y-100944951D01*
X132125000Y-99250000D01*
X130716309Y-97559571D01*
X130711028Y-97552766D01*
X130556083Y-97338126D01*
X130547000Y-97323502D01*
X130425287Y-97093276D01*
X130418325Y-97077555D01*
X130329664Y-96832670D01*
X130324943Y-96816117D01*
X130271061Y-96561347D01*
X130268676Y-96544297D01*
X130261048Y-96434679D01*
X130276031Y-96366438D01*
X130284418Y-96353207D01*
X130390051Y-96207816D01*
X130486557Y-96018412D01*
X130552246Y-95816243D01*
X130585500Y-95606287D01*
X130585500Y-95393713D01*
X130552246Y-95183757D01*
X130486557Y-94981588D01*
X130390051Y-94792184D01*
X130390049Y-94792181D01*
X130390048Y-94792179D01*
X130273682Y-94632013D01*
X130250202Y-94566206D01*
X130250000Y-94559128D01*
X130250000Y-90589861D01*
X130269685Y-90522822D01*
X130286319Y-90502180D01*
X132153679Y-88634820D01*
X132215002Y-88601335D01*
X132241360Y-88598501D01*
X141648281Y-88598501D01*
X141695734Y-88607940D01*
G37*
%TD.AperFunction*%
%TD*%
%TA.AperFunction,Conductor*%
%TO.N,Net-(J3-Pin_1)*%
G36*
X125504418Y-89000316D02*
G01*
X125775790Y-89019724D01*
X125793291Y-89022241D01*
X126054803Y-89079129D01*
X126071762Y-89084108D01*
X126322524Y-89177638D01*
X126338616Y-89184987D01*
X126573501Y-89313244D01*
X126588375Y-89322802D01*
X126802624Y-89483188D01*
X126815994Y-89494774D01*
X127005225Y-89684005D01*
X127016811Y-89697375D01*
X127177193Y-89911619D01*
X127186758Y-89926503D01*
X127315013Y-90161385D01*
X127322363Y-90177478D01*
X127352918Y-90259399D01*
X127357902Y-90329091D01*
X127354668Y-90341049D01*
X127347778Y-90362253D01*
X127347776Y-90362261D01*
X127312000Y-90588146D01*
X127312000Y-90911853D01*
X127347778Y-91137746D01*
X127347778Y-91137749D01*
X127418450Y-91355255D01*
X127486485Y-91488780D01*
X127500000Y-91545075D01*
X127500000Y-109276626D01*
X127499690Y-109285384D01*
X127480665Y-109554063D01*
X127478197Y-109571405D01*
X127422427Y-109830432D01*
X127417540Y-109847253D01*
X127325825Y-110095841D01*
X127318616Y-110111805D01*
X127192794Y-110344980D01*
X127183408Y-110359770D01*
X127025976Y-110572900D01*
X127014600Y-110586218D01*
X126828714Y-110775032D01*
X126815573Y-110786616D01*
X126604937Y-110947351D01*
X126590297Y-110956967D01*
X126359107Y-111086423D01*
X126343257Y-111093880D01*
X126096135Y-111189465D01*
X126079398Y-111194613D01*
X125884478Y-111239779D01*
X125821271Y-111254425D01*
X125803969Y-111257163D01*
X125535624Y-111280382D01*
X125526872Y-111280829D01*
X124932482Y-111290115D01*
X124865143Y-111271480D01*
X124850011Y-111260418D01*
X124847216Y-111258031D01*
X124681613Y-111137715D01*
X124681612Y-111137714D01*
X124681610Y-111137713D01*
X124595583Y-111093880D01*
X124499223Y-111044781D01*
X124304534Y-110981522D01*
X124129995Y-110953878D01*
X124102352Y-110949500D01*
X123897648Y-110949500D01*
X123873329Y-110953351D01*
X123695465Y-110981522D01*
X123500776Y-111044781D01*
X123318386Y-111137715D01*
X123152781Y-111258033D01*
X123152774Y-111258039D01*
X123127454Y-111283358D01*
X123066130Y-111316841D01*
X123041713Y-111319659D01*
X113535708Y-111468191D01*
X113526771Y-111468008D01*
X113252462Y-111452497D01*
X113234741Y-111450206D01*
X112969884Y-111396322D01*
X112952678Y-111391508D01*
X112922138Y-111380535D01*
X112698316Y-111300118D01*
X112681997Y-111292889D01*
X112443405Y-111165888D01*
X112428281Y-111156379D01*
X112210429Y-110996414D01*
X112196826Y-110984829D01*
X112004218Y-110795207D01*
X111992427Y-110781793D01*
X111829071Y-110566458D01*
X111819336Y-110551498D01*
X111688619Y-110314910D01*
X111681134Y-110298701D01*
X111585779Y-110045794D01*
X111580701Y-110028681D01*
X111522683Y-109764687D01*
X111520118Y-109747020D01*
X111500322Y-109472962D01*
X111500000Y-109464029D01*
X111500000Y-91004427D01*
X111500316Y-90995581D01*
X111519724Y-90724214D01*
X111522240Y-90706710D01*
X111579130Y-90445192D01*
X111584107Y-90428241D01*
X111677640Y-90177470D01*
X111684987Y-90161385D01*
X111813248Y-89926491D01*
X111822798Y-89911630D01*
X111983195Y-89697366D01*
X111994767Y-89684012D01*
X112184012Y-89494767D01*
X112197366Y-89483195D01*
X112411630Y-89322798D01*
X112426491Y-89313248D01*
X112661388Y-89184985D01*
X112677470Y-89177640D01*
X112928241Y-89084107D01*
X112945192Y-89079130D01*
X113206710Y-89022240D01*
X113224207Y-89019724D01*
X113495582Y-89000316D01*
X113504428Y-89000000D01*
X125495572Y-89000000D01*
X125504418Y-89000316D01*
G37*
%TD.AperFunction*%
%TD*%
%TA.AperFunction,Conductor*%
%TO.N,Net-(J2-Pin_1)*%
G36*
X132004418Y-111000316D02*
G01*
X132275790Y-111019724D01*
X132293291Y-111022241D01*
X132554803Y-111079129D01*
X132571762Y-111084108D01*
X132822524Y-111177638D01*
X132838616Y-111184987D01*
X133073501Y-111313244D01*
X133088375Y-111322802D01*
X133302624Y-111483188D01*
X133315994Y-111494774D01*
X133458181Y-111636961D01*
X133491666Y-111698284D01*
X133494500Y-111724642D01*
X133494500Y-132341601D01*
X133510202Y-132466611D01*
X133510203Y-132466617D01*
X133525370Y-132526041D01*
X133525371Y-132526044D01*
X133527573Y-132531640D01*
X133529169Y-132535927D01*
X133546058Y-132583988D01*
X133545167Y-132584321D01*
X133562598Y-132631056D01*
X133562986Y-132632160D01*
X133563151Y-132635314D01*
X133569999Y-132673270D01*
X133569999Y-133524785D01*
X133571503Y-133552868D01*
X133572892Y-133578804D01*
X133575719Y-133605104D01*
X133575725Y-133605149D01*
X133584362Y-133658483D01*
X133584364Y-133658497D01*
X133585163Y-133662173D01*
X133594078Y-133697120D01*
X133599073Y-133714139D01*
X133610477Y-133748409D01*
X133704017Y-133999198D01*
X133717820Y-134032521D01*
X133725159Y-134048591D01*
X133741324Y-134080884D01*
X133780674Y-134152948D01*
X133783257Y-134164821D01*
X133790043Y-134174900D01*
X133790544Y-134198323D01*
X133795526Y-134221221D01*
X133791316Y-134234335D01*
X133791540Y-134244753D01*
X133777570Y-134277165D01*
X133718622Y-134373360D01*
X133707184Y-134389102D01*
X133566997Y-134553239D01*
X133553238Y-134566997D01*
X133389096Y-134707187D01*
X133373355Y-134718624D01*
X133189308Y-134831409D01*
X133171971Y-134840243D01*
X132972541Y-134922850D01*
X132954035Y-134928863D01*
X132744142Y-134979254D01*
X132724924Y-134982298D01*
X132504854Y-134999618D01*
X132495125Y-135000000D01*
X131786597Y-135000000D01*
X131777362Y-134999656D01*
X131494132Y-134978504D01*
X131475868Y-134975760D01*
X131203464Y-134913807D01*
X131185809Y-134908382D01*
X130925610Y-134806648D01*
X130908958Y-134798660D01*
X130666763Y-134659411D01*
X130651482Y-134649038D01*
X130429043Y-134472492D01*
X130422023Y-134466482D01*
X127750000Y-132000000D01*
X125072983Y-129528907D01*
X125072975Y-129528900D01*
X124500000Y-129000000D01*
X124376450Y-129000000D01*
X124309411Y-128980315D01*
X124303565Y-128976318D01*
X124181613Y-128887715D01*
X124181612Y-128887714D01*
X124181610Y-128887713D01*
X124124653Y-128858691D01*
X123999223Y-128794781D01*
X123804534Y-128731522D01*
X123629995Y-128703878D01*
X123602352Y-128699500D01*
X123397648Y-128699500D01*
X123373329Y-128703351D01*
X123195465Y-128731522D01*
X123000776Y-128794781D01*
X122818386Y-128887715D01*
X122696435Y-128976318D01*
X122630629Y-128999798D01*
X122623550Y-129000000D01*
X113504428Y-129000000D01*
X113495582Y-128999684D01*
X113224214Y-128980275D01*
X113206702Y-128977757D01*
X112945205Y-128920872D01*
X112928229Y-128915888D01*
X112677475Y-128822361D01*
X112661382Y-128815011D01*
X112426503Y-128686758D01*
X112411619Y-128677193D01*
X112197375Y-128516811D01*
X112184005Y-128505225D01*
X111994774Y-128315994D01*
X111983188Y-128302624D01*
X111822802Y-128088375D01*
X111813244Y-128073501D01*
X111684987Y-127838616D01*
X111677638Y-127822524D01*
X111584108Y-127571762D01*
X111579129Y-127554803D01*
X111522241Y-127293291D01*
X111519724Y-127275785D01*
X111500316Y-127004418D01*
X111500000Y-126995572D01*
X111500000Y-125514759D01*
X111500277Y-125506477D01*
X111517290Y-125252319D01*
X111519497Y-125235913D01*
X111569406Y-124990361D01*
X111573776Y-124974409D01*
X111655971Y-124737689D01*
X111662429Y-124722459D01*
X111775445Y-124498801D01*
X111783870Y-124484576D01*
X111925691Y-124277973D01*
X111935940Y-124264995D01*
X112104028Y-124079141D01*
X112115913Y-124067647D01*
X112310453Y-123903166D01*
X112316914Y-123898063D01*
X116244984Y-121003696D01*
X116250006Y-121000008D01*
X116255039Y-120996335D01*
X129470097Y-111385383D01*
X129478159Y-111379991D01*
X129733431Y-111223413D01*
X129750755Y-111214577D01*
X130022866Y-111101771D01*
X130041362Y-111095756D01*
X130327780Y-111026939D01*
X130346992Y-111023894D01*
X130645505Y-111000382D01*
X130655241Y-111000000D01*
X131995572Y-111000000D01*
X132004418Y-111000316D01*
G37*
%TD.AperFunction*%
%TD*%
%TA.AperFunction,Conductor*%
%TO.N,+12V*%
G36*
X160809101Y-119019685D02*
G01*
X160852547Y-119067706D01*
X160887713Y-119136724D01*
X161008028Y-119302326D01*
X161152786Y-119447084D01*
X161307749Y-119559669D01*
X161318390Y-119567400D01*
X161434607Y-119626616D01*
X161500776Y-119660331D01*
X161500778Y-119660331D01*
X161500781Y-119660333D01*
X161605137Y-119694240D01*
X161695465Y-119723590D01*
X161796557Y-119739601D01*
X161897648Y-119755613D01*
X161897649Y-119755613D01*
X162102351Y-119755613D01*
X162102352Y-119755613D01*
X162304534Y-119723590D01*
X162499219Y-119660333D01*
X162681610Y-119567400D01*
X162797519Y-119483188D01*
X162847213Y-119447084D01*
X162847215Y-119447081D01*
X162847219Y-119447079D01*
X162991966Y-119302332D01*
X162991968Y-119302328D01*
X162991971Y-119302326D01*
X163112286Y-119136724D01*
X163147453Y-119067706D01*
X163195427Y-119016909D01*
X163257938Y-119000000D01*
X168495572Y-119000000D01*
X168504418Y-119000316D01*
X168775790Y-119019724D01*
X168793291Y-119022241D01*
X169054803Y-119079129D01*
X169071762Y-119084108D01*
X169322524Y-119177638D01*
X169338616Y-119184987D01*
X169573501Y-119313244D01*
X169588375Y-119322802D01*
X169754395Y-119447084D01*
X169802624Y-119483188D01*
X169815994Y-119494774D01*
X170005225Y-119684005D01*
X170016811Y-119697375D01*
X170177193Y-119911619D01*
X170186758Y-119926503D01*
X170315011Y-120161382D01*
X170322361Y-120177475D01*
X170415888Y-120428229D01*
X170420872Y-120445205D01*
X170477757Y-120706702D01*
X170480275Y-120724214D01*
X170499684Y-120995581D01*
X170500000Y-121004427D01*
X170500000Y-128495572D01*
X170499684Y-128504418D01*
X170480275Y-128775785D01*
X170477757Y-128793297D01*
X170420872Y-129054794D01*
X170415888Y-129071770D01*
X170322361Y-129322524D01*
X170315011Y-129338617D01*
X170186758Y-129573496D01*
X170177193Y-129588380D01*
X170016811Y-129802624D01*
X170005225Y-129815994D01*
X169815994Y-130005225D01*
X169802624Y-130016811D01*
X169588380Y-130177193D01*
X169573496Y-130186758D01*
X169338617Y-130315011D01*
X169322524Y-130322361D01*
X169071770Y-130415888D01*
X169054794Y-130420872D01*
X168793297Y-130477757D01*
X168775785Y-130480275D01*
X168504418Y-130499684D01*
X168495572Y-130500000D01*
X157504428Y-130500000D01*
X157495582Y-130499684D01*
X157224214Y-130480275D01*
X157206702Y-130477757D01*
X156945205Y-130420872D01*
X156928229Y-130415888D01*
X156677475Y-130322361D01*
X156661382Y-130315011D01*
X156426503Y-130186758D01*
X156411619Y-130177193D01*
X156197375Y-130016811D01*
X156184005Y-130005225D01*
X155994774Y-129815994D01*
X155983188Y-129802624D01*
X155822802Y-129588375D01*
X155813244Y-129573501D01*
X155684987Y-129338616D01*
X155677638Y-129322524D01*
X155584108Y-129071762D01*
X155579129Y-129054803D01*
X155522241Y-128793291D01*
X155519724Y-128775785D01*
X155500316Y-128504418D01*
X155500000Y-128495572D01*
X155500000Y-121004427D01*
X155500316Y-120995581D01*
X155519724Y-120724214D01*
X155522240Y-120706710D01*
X155579130Y-120445192D01*
X155584107Y-120428241D01*
X155677640Y-120177470D01*
X155684985Y-120161388D01*
X155813248Y-119926491D01*
X155822798Y-119911630D01*
X155983195Y-119697366D01*
X155994767Y-119684012D01*
X156184012Y-119494767D01*
X156197366Y-119483195D01*
X156411630Y-119322798D01*
X156426491Y-119313248D01*
X156661388Y-119184985D01*
X156677470Y-119177640D01*
X156928241Y-119084107D01*
X156945192Y-119079130D01*
X157206710Y-119022240D01*
X157224207Y-119019724D01*
X157495582Y-119000316D01*
X157504428Y-119000000D01*
X160742062Y-119000000D01*
X160809101Y-119019685D01*
G37*
%TD.AperFunction*%
%TD*%
%TA.AperFunction,Conductor*%
%TO.N,GND*%
G36*
X160737833Y-99920185D02*
G01*
X160783588Y-99972989D01*
X160793532Y-100042147D01*
X160764507Y-100105703D01*
X160758475Y-100112181D01*
X158997475Y-101873181D01*
X158936152Y-101906666D01*
X158909794Y-101909500D01*
X155945908Y-101909500D01*
X155878869Y-101889815D01*
X155840363Y-101845728D01*
X155838605Y-101846813D01*
X155834814Y-101840666D01*
X155742712Y-101691344D01*
X155618656Y-101567288D01*
X155469334Y-101475186D01*
X155302797Y-101420001D01*
X155302795Y-101420000D01*
X155200010Y-101409500D01*
X153799998Y-101409500D01*
X153799981Y-101409501D01*
X153697203Y-101420000D01*
X153697200Y-101420001D01*
X153530668Y-101475185D01*
X153530663Y-101475187D01*
X153381342Y-101567289D01*
X153257289Y-101691342D01*
X153244159Y-101712629D01*
X153167441Y-101837011D01*
X153161395Y-101846813D01*
X153159600Y-101845706D01*
X153120313Y-101890337D01*
X153054092Y-101909500D01*
X151979047Y-101909500D01*
X151912008Y-101889815D01*
X151866253Y-101837011D01*
X151856309Y-101767853D01*
X151885334Y-101704297D01*
X151891366Y-101697819D01*
X151940659Y-101648526D01*
X151991966Y-101597219D01*
X151991968Y-101597215D01*
X151991971Y-101597213D01*
X152044732Y-101524590D01*
X152112287Y-101431610D01*
X152205220Y-101249219D01*
X152268477Y-101054534D01*
X152300500Y-100852352D01*
X152300500Y-100647648D01*
X152268477Y-100445466D01*
X152205220Y-100250781D01*
X152205218Y-100250778D01*
X152205218Y-100250776D01*
X152118608Y-100080795D01*
X152105712Y-100012126D01*
X152131988Y-99947385D01*
X152189095Y-99907128D01*
X152229093Y-99900500D01*
X160670794Y-99900500D01*
X160737833Y-99920185D01*
G37*
%TD.AperFunction*%
%TD*%
%TA.AperFunction,NonConductor*%
G36*
X183042539Y-86157443D02*
G01*
X183088294Y-86210247D01*
X183099500Y-86261758D01*
X183099500Y-136012758D01*
X183079815Y-136079797D01*
X183027011Y-136125552D01*
X182975500Y-136136758D01*
X108224500Y-136136758D01*
X108157461Y-136117073D01*
X108111706Y-136064269D01*
X108100500Y-136012758D01*
X108100500Y-91004407D01*
X110994500Y-91004407D01*
X110994500Y-109464024D01*
X110994828Y-109482261D01*
X110995148Y-109491125D01*
X110996137Y-109509393D01*
X111015932Y-109783439D01*
X111019863Y-109819654D01*
X111022428Y-109837322D01*
X111028962Y-109873179D01*
X111086983Y-110137189D01*
X111096085Y-110172482D01*
X111101165Y-110189601D01*
X111112780Y-110224125D01*
X111208137Y-110477040D01*
X111222203Y-110510626D01*
X111229688Y-110526835D01*
X111246161Y-110559372D01*
X111376878Y-110795960D01*
X111376888Y-110795977D01*
X111376891Y-110795982D01*
X111395636Y-110827195D01*
X111395643Y-110827206D01*
X111395645Y-110827209D01*
X111405380Y-110842169D01*
X111426342Y-110871973D01*
X111458632Y-110914537D01*
X111589692Y-111087302D01*
X111608226Y-111109986D01*
X111612754Y-111115528D01*
X111619667Y-111123393D01*
X111624542Y-111128939D01*
X111649585Y-111155437D01*
X111660132Y-111165820D01*
X111842187Y-111345053D01*
X111861316Y-111362573D01*
X111869080Y-111369684D01*
X111882671Y-111381259D01*
X111911235Y-111403862D01*
X112069941Y-111520396D01*
X112129095Y-111563832D01*
X112159218Y-111584322D01*
X112159227Y-111584327D01*
X112159229Y-111584329D01*
X112174328Y-111593823D01*
X112174342Y-111593831D01*
X112205884Y-111612110D01*
X112444476Y-111739111D01*
X112477259Y-111755071D01*
X112477276Y-111755078D01*
X112477277Y-111755079D01*
X112493568Y-111762296D01*
X112527404Y-111775849D01*
X112781734Y-111867227D01*
X112781738Y-111867228D01*
X112781754Y-111867234D01*
X112816477Y-111878313D01*
X112816485Y-111878315D01*
X112816500Y-111878320D01*
X112833667Y-111883123D01*
X112833679Y-111883125D01*
X112833683Y-111883127D01*
X112869107Y-111891675D01*
X113133964Y-111945559D01*
X113133970Y-111945560D01*
X113133980Y-111945562D01*
X113169910Y-111951531D01*
X113169914Y-111951531D01*
X113169929Y-111951534D01*
X113187650Y-111953825D01*
X113223924Y-111957191D01*
X113498233Y-111972702D01*
X113516422Y-111973402D01*
X113525359Y-111973585D01*
X113543606Y-111973629D01*
X123049611Y-111825097D01*
X123094813Y-111822143D01*
X123099671Y-111821826D01*
X123111846Y-111820420D01*
X123124086Y-111819008D01*
X123173567Y-111810792D01*
X123308377Y-111760515D01*
X123369701Y-111727032D01*
X123449508Y-111667292D01*
X123450750Y-111666376D01*
X123575440Y-111575784D01*
X123592032Y-111565619D01*
X123595110Y-111564050D01*
X123595198Y-111564006D01*
X123635705Y-111554283D01*
X123641238Y-111552310D01*
X123642605Y-111552627D01*
X123651476Y-111550499D01*
X124348519Y-111550499D01*
X124404825Y-111564020D01*
X124407984Y-111565630D01*
X124424562Y-111575790D01*
X124544136Y-111662664D01*
X124548160Y-111665715D01*
X124551681Y-111668499D01*
X124566821Y-111679567D01*
X124587956Y-111693822D01*
X124598525Y-111700951D01*
X124730321Y-111758669D01*
X124797660Y-111777304D01*
X124940378Y-111795553D01*
X125534768Y-111786267D01*
X125552656Y-111785671D01*
X125561408Y-111785224D01*
X125579200Y-111784000D01*
X125579210Y-111783999D01*
X125579241Y-111783997D01*
X125847526Y-111760783D01*
X125847535Y-111760781D01*
X125847545Y-111760781D01*
X125882980Y-111756450D01*
X125900282Y-111753712D01*
X125935380Y-111746877D01*
X126086255Y-111711917D01*
X126193486Y-111687070D01*
X126193489Y-111687069D01*
X126193507Y-111687065D01*
X126228010Y-111677774D01*
X126244747Y-111672626D01*
X126278493Y-111660926D01*
X126525615Y-111565341D01*
X126558454Y-111551286D01*
X126574304Y-111543829D01*
X126606081Y-111527483D01*
X126837271Y-111398027D01*
X126867814Y-111379477D01*
X126882454Y-111369861D01*
X126911594Y-111349211D01*
X127122230Y-111188476D01*
X127149844Y-111165816D01*
X127162985Y-111154232D01*
X127188939Y-111129671D01*
X127374825Y-110940857D01*
X127398966Y-110914537D01*
X127410342Y-110901219D01*
X127432577Y-110873243D01*
X127590009Y-110660113D01*
X127605444Y-110637592D01*
X127610206Y-110630645D01*
X127616294Y-110621052D01*
X127619602Y-110615840D01*
X127637660Y-110585031D01*
X127763482Y-110351856D01*
X127779320Y-110319849D01*
X127786529Y-110303885D01*
X127800077Y-110270813D01*
X127891792Y-110022225D01*
X127902968Y-109988284D01*
X127907855Y-109971463D01*
X127916603Y-109936831D01*
X127972373Y-109677804D01*
X127978654Y-109642627D01*
X127981122Y-109625285D01*
X127984902Y-109589768D01*
X128003927Y-109321089D01*
X128004874Y-109303266D01*
X128005184Y-109294508D01*
X128005500Y-109276626D01*
X128005500Y-96479758D01*
X128025185Y-96412719D01*
X128077989Y-96366964D01*
X128147147Y-96357020D01*
X128210703Y-96386045D01*
X128217181Y-96392077D01*
X128355213Y-96530109D01*
X128527179Y-96655048D01*
X128527181Y-96655049D01*
X128527184Y-96655051D01*
X128716588Y-96751557D01*
X128918757Y-96817246D01*
X129128713Y-96850500D01*
X129128714Y-96850500D01*
X129341286Y-96850500D01*
X129341287Y-96850500D01*
X129551243Y-96817246D01*
X129660851Y-96781631D01*
X129730690Y-96779637D01*
X129790523Y-96815717D01*
X129820483Y-96873904D01*
X129830385Y-96920724D01*
X129838821Y-96954741D01*
X129843551Y-96971326D01*
X129854349Y-97004734D01*
X129943022Y-97249653D01*
X129956115Y-97282230D01*
X129956120Y-97282241D01*
X129963082Y-97297962D01*
X129963087Y-97297972D01*
X129978399Y-97329541D01*
X130100101Y-97559746D01*
X130117590Y-97590220D01*
X130126667Y-97604834D01*
X130144984Y-97632157D01*
X130146219Y-97634000D01*
X130205874Y-97716638D01*
X130301189Y-97848675D01*
X130311648Y-97862645D01*
X130311676Y-97862682D01*
X130316957Y-97869487D01*
X130327973Y-97883184D01*
X130327995Y-97883211D01*
X131385309Y-99151987D01*
X133465759Y-101648527D01*
X133493555Y-101712629D01*
X133494500Y-101727909D01*
X133494500Y-110758185D01*
X133474815Y-110825224D01*
X133422011Y-110870979D01*
X133352853Y-110880923D01*
X133311073Y-110867017D01*
X133080884Y-110741324D01*
X133048591Y-110725159D01*
X133032521Y-110717820D01*
X132999198Y-110704017D01*
X132828903Y-110640500D01*
X132748417Y-110610480D01*
X132748411Y-110610478D01*
X132748395Y-110610472D01*
X132714171Y-110599082D01*
X132697208Y-110594102D01*
X132662246Y-110585178D01*
X132400747Y-110528294D01*
X132400744Y-110528293D01*
X132400742Y-110528293D01*
X132392518Y-110526809D01*
X132365261Y-110521890D01*
X132347748Y-110519371D01*
X132322607Y-110516668D01*
X132311850Y-110515512D01*
X132311841Y-110515511D01*
X132311838Y-110515511D01*
X132040468Y-110496103D01*
X132022497Y-110495139D01*
X132013574Y-110494820D01*
X131995591Y-110494500D01*
X131995572Y-110494500D01*
X130655241Y-110494500D01*
X130655237Y-110494500D01*
X130635434Y-110494888D01*
X130625683Y-110495271D01*
X130609637Y-110496217D01*
X130605813Y-110496443D01*
X130605810Y-110496443D01*
X130605797Y-110496444D01*
X130307295Y-110519955D01*
X130267863Y-110524625D01*
X130248660Y-110527668D01*
X130209691Y-110535426D01*
X130209686Y-110535427D01*
X129923268Y-110604244D01*
X129901203Y-110610472D01*
X129885019Y-110615040D01*
X129866531Y-110621052D01*
X129829286Y-110634805D01*
X129672983Y-110699602D01*
X129572342Y-110741324D01*
X129557164Y-110747616D01*
X129521086Y-110764263D01*
X129503749Y-110773106D01*
X129469120Y-110792517D01*
X129213868Y-110949083D01*
X129197117Y-110959817D01*
X129189075Y-110965194D01*
X129172763Y-110976575D01*
X115957689Y-120587539D01*
X115957048Y-120588007D01*
X115952015Y-120591680D01*
X115951237Y-120592249D01*
X115950690Y-120592650D01*
X115945814Y-120596230D01*
X115945775Y-120596260D01*
X115945179Y-120596697D01*
X115945122Y-120596740D01*
X114234378Y-121857288D01*
X112017032Y-123491121D01*
X112003600Y-123501370D01*
X111997144Y-123506469D01*
X111984079Y-123517146D01*
X111789535Y-123681631D01*
X111764502Y-123704272D01*
X111752613Y-123715770D01*
X111729116Y-123740066D01*
X111561028Y-123925920D01*
X111539231Y-123951701D01*
X111528977Y-123964686D01*
X111508933Y-123991889D01*
X111367106Y-124198502D01*
X111348935Y-124226968D01*
X111340502Y-124241207D01*
X111324274Y-124270820D01*
X111211255Y-124494483D01*
X111197038Y-124525122D01*
X111190581Y-124540348D01*
X111178447Y-124571854D01*
X111096240Y-124808608D01*
X111086234Y-124840867D01*
X111081868Y-124856801D01*
X111074032Y-124889682D01*
X111024126Y-125135224D01*
X111018513Y-125168492D01*
X111016302Y-125184931D01*
X111012917Y-125218566D01*
X110995907Y-125472700D01*
X110995059Y-125489577D01*
X110994782Y-125497849D01*
X110994500Y-125514778D01*
X110994500Y-126995591D01*
X110994820Y-127013574D01*
X110995139Y-127022497D01*
X110996103Y-127040469D01*
X111015511Y-127311836D01*
X111019370Y-127347738D01*
X111021883Y-127365216D01*
X111028296Y-127400760D01*
X111085178Y-127662246D01*
X111094102Y-127697208D01*
X111099082Y-127714171D01*
X111110472Y-127748395D01*
X111204017Y-127999198D01*
X111217820Y-128032521D01*
X111225159Y-128048591D01*
X111225167Y-128048608D01*
X111225168Y-128048609D01*
X111241320Y-128080876D01*
X111369577Y-128315761D01*
X111387978Y-128346776D01*
X111397536Y-128361650D01*
X111418129Y-128391311D01*
X111578515Y-128605560D01*
X111578528Y-128605577D01*
X111601158Y-128633659D01*
X111601168Y-128633670D01*
X111612754Y-128647040D01*
X111637332Y-128673436D01*
X111826563Y-128862667D01*
X111829332Y-128865245D01*
X111852956Y-128887242D01*
X111866339Y-128898840D01*
X111894421Y-128921470D01*
X111894429Y-128921476D01*
X111894439Y-128921484D01*
X112108683Y-129081866D01*
X112108686Y-129081868D01*
X112138331Y-129102451D01*
X112144405Y-129106353D01*
X112153216Y-129112016D01*
X112184244Y-129130425D01*
X112184250Y-129130428D01*
X112184258Y-129130433D01*
X112242518Y-129162245D01*
X112419123Y-129258678D01*
X112435249Y-129266751D01*
X112451375Y-129274824D01*
X112467467Y-129282173D01*
X112500807Y-129295984D01*
X112500816Y-129295987D01*
X112500820Y-129295989D01*
X112751574Y-129389516D01*
X112751594Y-129389522D01*
X112751595Y-129389523D01*
X112785819Y-129400913D01*
X112785827Y-129400915D01*
X112785829Y-129400916D01*
X112802805Y-129405900D01*
X112826821Y-129412029D01*
X112837761Y-129414822D01*
X113099241Y-129471703D01*
X113099245Y-129471703D01*
X113099251Y-129471705D01*
X113134758Y-129478111D01*
X113152270Y-129480629D01*
X113152291Y-129480632D01*
X113188137Y-129484486D01*
X113188151Y-129484487D01*
X113459519Y-129503896D01*
X113477536Y-129504862D01*
X113486382Y-129505178D01*
X113486414Y-129505178D01*
X113486426Y-129505179D01*
X113504409Y-129505500D01*
X113504428Y-129505500D01*
X122623578Y-129505500D01*
X122635424Y-129505330D01*
X122637969Y-129505294D01*
X122642688Y-129505159D01*
X122645051Y-129505092D01*
X122648987Y-129504923D01*
X122659491Y-129504473D01*
X122800505Y-129475899D01*
X122866311Y-129452419D01*
X122993561Y-129385275D01*
X123075438Y-129325786D01*
X123092029Y-129315620D01*
X123095199Y-129314005D01*
X123151477Y-129300499D01*
X123848519Y-129300499D01*
X123904808Y-129314011D01*
X123907979Y-129315627D01*
X123924567Y-129325792D01*
X124006441Y-129385277D01*
X124018258Y-129393607D01*
X124024104Y-129397604D01*
X124036114Y-129405567D01*
X124166991Y-129465338D01*
X124234030Y-129485023D01*
X124234034Y-129485024D01*
X124250541Y-129487397D01*
X124314097Y-129516421D01*
X124317003Y-129519019D01*
X127779478Y-132715150D01*
X127815387Y-132775086D01*
X127813192Y-132844921D01*
X127773590Y-132902484D01*
X127751666Y-132916751D01*
X127640800Y-132973240D01*
X127563281Y-133029561D01*
X127499614Y-133075818D01*
X127433810Y-133099298D01*
X127426730Y-133099500D01*
X126573270Y-133099500D01*
X126506231Y-133079815D01*
X126500397Y-133075827D01*
X126359199Y-132973240D01*
X126190836Y-132887454D01*
X126011118Y-132829059D01*
X125824486Y-132799500D01*
X125824481Y-132799500D01*
X125635519Y-132799500D01*
X125635514Y-132799500D01*
X125448881Y-132829059D01*
X125269163Y-132887454D01*
X125100800Y-132973240D01*
X125013579Y-133036610D01*
X124947927Y-133084310D01*
X124947925Y-133084312D01*
X124947924Y-133084312D01*
X124814312Y-133217924D01*
X124814312Y-133217925D01*
X124814310Y-133217927D01*
X124766610Y-133283579D01*
X124703240Y-133370800D01*
X124617454Y-133539163D01*
X124559059Y-133718881D01*
X124529500Y-133905513D01*
X124529500Y-134094486D01*
X124559059Y-134281118D01*
X124617454Y-134460836D01*
X124691195Y-134605560D01*
X124703240Y-134629199D01*
X124814310Y-134782073D01*
X124947927Y-134915690D01*
X125100801Y-135026760D01*
X125136566Y-135044983D01*
X125269163Y-135112545D01*
X125269165Y-135112545D01*
X125269168Y-135112547D01*
X125365497Y-135143846D01*
X125448881Y-135170940D01*
X125635514Y-135200500D01*
X125635519Y-135200500D01*
X125824486Y-135200500D01*
X126011118Y-135170940D01*
X126190832Y-135112547D01*
X126359199Y-135026760D01*
X126500385Y-134924181D01*
X126566190Y-134900702D01*
X126573270Y-134900500D01*
X127426730Y-134900500D01*
X127493769Y-134920185D01*
X127499602Y-134924172D01*
X127640801Y-135026760D01*
X127676566Y-135044983D01*
X127809163Y-135112545D01*
X127809165Y-135112545D01*
X127809168Y-135112547D01*
X127905497Y-135143846D01*
X127988881Y-135170940D01*
X128175514Y-135200500D01*
X128175519Y-135200500D01*
X128364486Y-135200500D01*
X128551118Y-135170940D01*
X128730832Y-135112547D01*
X128899199Y-135026760D01*
X129040385Y-134924181D01*
X129106190Y-134900702D01*
X129113270Y-134900500D01*
X130111956Y-134900500D01*
X130178995Y-134920185D01*
X130189033Y-134927366D01*
X130337226Y-135044984D01*
X130367573Y-135067279D01*
X130382854Y-135077652D01*
X130414804Y-135097642D01*
X130466852Y-135127567D01*
X130657009Y-135236897D01*
X130675666Y-135246717D01*
X130690323Y-135254433D01*
X130706969Y-135262418D01*
X130706988Y-135262427D01*
X130741526Y-135277438D01*
X130741533Y-135277441D01*
X130741536Y-135277442D01*
X130775312Y-135290648D01*
X131001745Y-135379180D01*
X131018082Y-135384874D01*
X131037331Y-135391584D01*
X131054986Y-135397009D01*
X131054993Y-135397011D01*
X131091360Y-135406720D01*
X131320099Y-135458742D01*
X131363765Y-135468673D01*
X131400764Y-135475650D01*
X131400780Y-135475653D01*
X131410720Y-135477145D01*
X131419028Y-135478394D01*
X131438932Y-135480629D01*
X131456470Y-135482599D01*
X131481752Y-135484487D01*
X131739715Y-135503752D01*
X131739747Y-135503753D01*
X131739750Y-135503754D01*
X131741556Y-135503855D01*
X131758545Y-135504806D01*
X131767780Y-135505150D01*
X131786597Y-135505500D01*
X131786621Y-135505500D01*
X132495131Y-135505500D01*
X132499884Y-135505406D01*
X132514958Y-135505111D01*
X132524687Y-135504729D01*
X132544515Y-135503560D01*
X132764585Y-135486240D01*
X132764588Y-135486239D01*
X132764596Y-135486239D01*
X132779395Y-135484487D01*
X132804006Y-135481574D01*
X132823224Y-135478530D01*
X132862149Y-135470787D01*
X133072042Y-135420396D01*
X133110244Y-135409622D01*
X133128750Y-135403609D01*
X133165988Y-135389871D01*
X133365418Y-135307264D01*
X133401471Y-135290643D01*
X133418808Y-135281809D01*
X133453432Y-135262418D01*
X133570330Y-135190782D01*
X133637468Y-135149640D01*
X133637472Y-135149636D01*
X133637479Y-135149633D01*
X133670489Y-135127576D01*
X133686230Y-135116139D01*
X133717391Y-135091573D01*
X133881533Y-134951383D01*
X133910667Y-134924452D01*
X133924426Y-134910694D01*
X133951381Y-134881536D01*
X134045783Y-134771005D01*
X134104288Y-134732814D01*
X134174156Y-134732314D01*
X134227753Y-134763857D01*
X134326563Y-134862667D01*
X134346828Y-134881536D01*
X134352956Y-134887242D01*
X134366339Y-134898840D01*
X134394421Y-134921470D01*
X134394429Y-134921476D01*
X134394439Y-134921484D01*
X134603054Y-135077652D01*
X134608686Y-135081868D01*
X134638331Y-135102451D01*
X134644405Y-135106353D01*
X134653216Y-135112016D01*
X134684244Y-135130425D01*
X134684250Y-135130428D01*
X134684258Y-135130433D01*
X134758442Y-135170940D01*
X134919123Y-135258678D01*
X134926598Y-135262420D01*
X134951375Y-135274824D01*
X134967467Y-135282173D01*
X135000807Y-135295984D01*
X135000816Y-135295987D01*
X135000820Y-135295989D01*
X135251574Y-135389516D01*
X135251594Y-135389522D01*
X135251595Y-135389523D01*
X135285819Y-135400913D01*
X135285827Y-135400915D01*
X135285829Y-135400916D01*
X135302805Y-135405900D01*
X135326821Y-135412029D01*
X135337761Y-135414822D01*
X135599241Y-135471703D01*
X135599245Y-135471703D01*
X135599251Y-135471705D01*
X135634758Y-135478111D01*
X135652270Y-135480629D01*
X135652291Y-135480632D01*
X135688137Y-135484486D01*
X135688151Y-135484487D01*
X135959519Y-135503896D01*
X135977536Y-135504862D01*
X135986382Y-135505178D01*
X135986414Y-135505178D01*
X135986426Y-135505179D01*
X136004409Y-135505500D01*
X136004428Y-135505500D01*
X140995591Y-135505500D01*
X141013573Y-135505179D01*
X141013583Y-135505178D01*
X141013618Y-135505178D01*
X141022464Y-135504862D01*
X141040481Y-135503896D01*
X141311848Y-135484487D01*
X141311849Y-135484486D01*
X141311861Y-135484486D01*
X141347707Y-135480632D01*
X141347724Y-135480629D01*
X141347729Y-135480629D01*
X141365241Y-135478111D01*
X141400748Y-135471705D01*
X141437287Y-135463756D01*
X141662237Y-135414822D01*
X141662245Y-135414820D01*
X141697194Y-135405900D01*
X141714170Y-135400916D01*
X141748425Y-135389516D01*
X141999179Y-135295989D01*
X142032530Y-135282174D01*
X142048623Y-135274824D01*
X142080876Y-135258678D01*
X142315755Y-135130425D01*
X142346783Y-135112016D01*
X142361667Y-135102451D01*
X142391316Y-135081866D01*
X142605560Y-134921484D01*
X142633670Y-134898831D01*
X142647040Y-134887245D01*
X142673436Y-134862667D01*
X142862667Y-134673436D01*
X142887245Y-134647040D01*
X142898831Y-134633670D01*
X142921484Y-134605560D01*
X143037794Y-134450188D01*
X143093728Y-134408318D01*
X143137061Y-134400500D01*
X150338693Y-134400500D01*
X150338694Y-134400499D01*
X150512666Y-134365895D01*
X150594606Y-134331953D01*
X150676547Y-134298013D01*
X150764959Y-134238936D01*
X150824036Y-134199464D01*
X153699463Y-131324036D01*
X153699464Y-131324035D01*
X153798013Y-131176547D01*
X153865894Y-131012666D01*
X153865894Y-131012663D01*
X153865896Y-131012659D01*
X153872267Y-130980630D01*
X153872267Y-130980629D01*
X153900500Y-130838694D01*
X153900500Y-121161308D01*
X153900499Y-121161305D01*
X153881436Y-121065466D01*
X153881436Y-121065462D01*
X153865896Y-120987341D01*
X153865895Y-120987334D01*
X153800339Y-120829071D01*
X153798695Y-120824474D01*
X153699465Y-120675966D01*
X153658252Y-120634753D01*
X153574035Y-120550536D01*
X146685819Y-113662319D01*
X146652334Y-113600996D01*
X146649500Y-113574638D01*
X146649500Y-113304500D01*
X146652050Y-113295814D01*
X146650762Y-113286853D01*
X146661740Y-113262812D01*
X146669185Y-113237461D01*
X146676025Y-113231533D01*
X146679787Y-113223297D01*
X146702021Y-113209007D01*
X146721989Y-113191706D01*
X146732503Y-113189418D01*
X146738565Y-113185523D01*
X146773500Y-113180500D01*
X146976638Y-113180500D01*
X147043677Y-113200185D01*
X147064319Y-113216819D01*
X154958181Y-121110681D01*
X154991666Y-121172004D01*
X154994500Y-121198362D01*
X154994500Y-128495591D01*
X154994820Y-128513574D01*
X154995139Y-128522497D01*
X154996103Y-128540469D01*
X155015511Y-128811836D01*
X155019370Y-128847738D01*
X155021883Y-128865216D01*
X155028296Y-128900760D01*
X155085178Y-129162246D01*
X155094102Y-129197208D01*
X155099082Y-129214171D01*
X155110472Y-129248395D01*
X155110475Y-129248403D01*
X155110480Y-129248417D01*
X155161527Y-129385279D01*
X155204017Y-129499198D01*
X155217820Y-129532521D01*
X155225159Y-129548591D01*
X155241324Y-129580884D01*
X155369574Y-129815755D01*
X155369577Y-129815761D01*
X155387978Y-129846776D01*
X155397536Y-129861650D01*
X155418129Y-129891311D01*
X155578515Y-130105560D01*
X155578528Y-130105577D01*
X155601158Y-130133659D01*
X155612756Y-130147042D01*
X155637335Y-130173439D01*
X155826559Y-130362663D01*
X155852956Y-130387242D01*
X155866339Y-130398840D01*
X155894421Y-130421470D01*
X155894429Y-130421476D01*
X155894439Y-130421484D01*
X156108683Y-130581866D01*
X156108686Y-130581868D01*
X156138331Y-130602451D01*
X156144405Y-130606353D01*
X156153216Y-130612016D01*
X156184244Y-130630425D01*
X156184250Y-130630428D01*
X156184258Y-130630433D01*
X156240804Y-130661309D01*
X156419123Y-130758678D01*
X156435249Y-130766751D01*
X156451375Y-130774824D01*
X156467467Y-130782173D01*
X156500807Y-130795984D01*
X156500816Y-130795987D01*
X156500820Y-130795989D01*
X156751574Y-130889516D01*
X156751594Y-130889522D01*
X156751595Y-130889523D01*
X156785819Y-130900913D01*
X156785827Y-130900915D01*
X156785829Y-130900916D01*
X156802805Y-130905900D01*
X156826821Y-130912029D01*
X156837761Y-130914822D01*
X157099241Y-130971703D01*
X157099245Y-130971703D01*
X157099251Y-130971705D01*
X157134758Y-130978111D01*
X157152270Y-130980629D01*
X157152291Y-130980632D01*
X157188137Y-130984486D01*
X157188151Y-130984487D01*
X157459519Y-131003896D01*
X157477536Y-131004862D01*
X157486382Y-131005178D01*
X157486414Y-131005178D01*
X157486426Y-131005179D01*
X157504409Y-131005500D01*
X157504428Y-131005500D01*
X168495591Y-131005500D01*
X168513573Y-131005179D01*
X168513583Y-131005178D01*
X168513618Y-131005178D01*
X168522464Y-131004862D01*
X168540481Y-131003896D01*
X168811848Y-130984487D01*
X168811849Y-130984486D01*
X168811861Y-130984486D01*
X168847707Y-130980632D01*
X168847724Y-130980629D01*
X168847729Y-130980629D01*
X168865241Y-130978111D01*
X168900748Y-130971705D01*
X168937287Y-130963756D01*
X169162237Y-130914822D01*
X169162245Y-130914820D01*
X169197194Y-130905900D01*
X169214170Y-130900916D01*
X169248425Y-130889516D01*
X169499179Y-130795989D01*
X169532530Y-130782174D01*
X169548623Y-130774824D01*
X169580876Y-130758678D01*
X169815755Y-130630425D01*
X169846783Y-130612016D01*
X169861667Y-130602451D01*
X169891316Y-130581866D01*
X170105560Y-130421484D01*
X170133670Y-130398831D01*
X170147040Y-130387245D01*
X170173436Y-130362667D01*
X170362667Y-130173436D01*
X170387245Y-130147040D01*
X170398831Y-130133670D01*
X170421484Y-130105560D01*
X170581866Y-129891316D01*
X170602451Y-129861667D01*
X170612016Y-129846783D01*
X170630425Y-129815755D01*
X170758678Y-129580876D01*
X170774824Y-129548623D01*
X170782174Y-129532530D01*
X170795989Y-129499179D01*
X170889516Y-129248425D01*
X170900916Y-129214170D01*
X170905900Y-129197194D01*
X170914820Y-129162245D01*
X170925749Y-129112008D01*
X170971703Y-128900757D01*
X170972051Y-128898831D01*
X170978111Y-128865241D01*
X170980629Y-128847729D01*
X170980629Y-128847724D01*
X170980632Y-128847707D01*
X170984486Y-128811861D01*
X170994386Y-128673439D01*
X171003896Y-128540481D01*
X171004862Y-128522464D01*
X171005178Y-128513618D01*
X171005500Y-128495572D01*
X171005500Y-121004427D01*
X171005178Y-120986381D01*
X171004862Y-120977535D01*
X171003896Y-120959518D01*
X170984487Y-120688151D01*
X170984486Y-120688137D01*
X170980632Y-120652291D01*
X170978110Y-120634753D01*
X170971703Y-120599241D01*
X170914822Y-120337761D01*
X170905898Y-120302799D01*
X170900913Y-120285819D01*
X170889523Y-120251595D01*
X170889522Y-120251594D01*
X170889516Y-120251574D01*
X170795989Y-120000820D01*
X170782174Y-119967469D01*
X170774824Y-119951376D01*
X170774824Y-119951375D01*
X170766751Y-119935249D01*
X170758678Y-119919123D01*
X170630425Y-119684244D01*
X170612016Y-119653216D01*
X170606353Y-119644405D01*
X170602451Y-119638331D01*
X170581868Y-119608686D01*
X170581866Y-119608683D01*
X170421484Y-119394439D01*
X170421476Y-119394429D01*
X170421470Y-119394421D01*
X170398840Y-119366339D01*
X170387242Y-119352956D01*
X170362663Y-119326559D01*
X170173439Y-119137335D01*
X170170991Y-119135056D01*
X170147040Y-119112754D01*
X170133676Y-119101173D01*
X170133659Y-119101158D01*
X170105577Y-119078528D01*
X170082836Y-119061504D01*
X169891311Y-118918129D01*
X169861650Y-118897536D01*
X169846776Y-118887978D01*
X169815761Y-118869577D01*
X169803879Y-118863089D01*
X169580884Y-118741324D01*
X169548591Y-118725159D01*
X169532521Y-118717820D01*
X169499198Y-118704017D01*
X169407513Y-118669820D01*
X169248417Y-118610480D01*
X169248411Y-118610478D01*
X169248395Y-118610472D01*
X169214171Y-118599082D01*
X169197208Y-118594102D01*
X169162246Y-118585178D01*
X168900747Y-118528294D01*
X168900744Y-118528293D01*
X168900742Y-118528293D01*
X168895939Y-118527426D01*
X168865261Y-118521890D01*
X168847748Y-118519371D01*
X168822607Y-118516668D01*
X168811850Y-118515512D01*
X168811841Y-118515511D01*
X168811838Y-118515511D01*
X168540468Y-118496103D01*
X168522497Y-118495139D01*
X168513574Y-118494820D01*
X168495591Y-118494500D01*
X168495572Y-118494500D01*
X163257938Y-118494500D01*
X163182514Y-118504521D01*
X163125943Y-118512037D01*
X163125933Y-118512039D01*
X163063447Y-118528942D01*
X163063432Y-118528947D01*
X163049771Y-118534663D01*
X162940590Y-118580345D01*
X162940588Y-118580346D01*
X162940587Y-118580347D01*
X162940584Y-118580348D01*
X162827921Y-118669820D01*
X162779941Y-118720623D01*
X162779939Y-118720626D01*
X162697057Y-118838201D01*
X162697050Y-118838212D01*
X162684374Y-118863089D01*
X162674210Y-118879675D01*
X162612125Y-118965129D01*
X162599487Y-118979925D01*
X162524812Y-119054600D01*
X162510016Y-119067237D01*
X162424568Y-119129318D01*
X162407988Y-119139480D01*
X162404837Y-119141086D01*
X162404823Y-119141093D01*
X162348518Y-119154613D01*
X161651480Y-119154613D01*
X161638465Y-119151487D01*
X161628566Y-119152478D01*
X161595163Y-119141086D01*
X161593489Y-119140233D01*
X161591997Y-119139473D01*
X161575432Y-119129319D01*
X161489984Y-119067239D01*
X161475187Y-119054601D01*
X161400504Y-118979918D01*
X161387867Y-118965122D01*
X161325796Y-118879688D01*
X161315628Y-118863095D01*
X161302953Y-118838218D01*
X161302952Y-118838216D01*
X161227399Y-118728566D01*
X161205184Y-118704012D01*
X161183957Y-118680549D01*
X161183953Y-118680545D01*
X161101323Y-118610480D01*
X161082398Y-118594433D01*
X161004551Y-118558881D01*
X160951524Y-118534663D01*
X160932054Y-118528946D01*
X160908025Y-118521890D01*
X160884479Y-118514976D01*
X160837006Y-118508150D01*
X160742062Y-118494500D01*
X157504428Y-118494500D01*
X157504409Y-118494500D01*
X157486425Y-118494820D01*
X157477502Y-118495139D01*
X157459531Y-118496103D01*
X157188133Y-118515512D01*
X157152260Y-118519369D01*
X157134776Y-118521884D01*
X157099249Y-118528293D01*
X156837740Y-118585181D01*
X156802789Y-118594102D01*
X156785836Y-118599079D01*
X156751582Y-118610480D01*
X156500811Y-118704013D01*
X156467461Y-118717827D01*
X156451410Y-118725159D01*
X156451382Y-118725172D01*
X156435237Y-118733253D01*
X156419117Y-118741323D01*
X156184237Y-118869576D01*
X156153200Y-118887992D01*
X156138358Y-118897529D01*
X156108692Y-118918126D01*
X155894419Y-119078529D01*
X155866329Y-119101167D01*
X155852965Y-119112747D01*
X155826579Y-119137316D01*
X155766878Y-119197017D01*
X155705554Y-119230501D01*
X155635862Y-119225516D01*
X155591516Y-119197016D01*
X149036819Y-112642319D01*
X149003334Y-112580996D01*
X149000500Y-112554638D01*
X149000500Y-112164313D01*
X149000499Y-112164298D01*
X148997598Y-112127432D01*
X148997597Y-112127426D01*
X148952848Y-111973401D01*
X148951744Y-111969602D01*
X148868081Y-111828135D01*
X148868078Y-111828132D01*
X148863298Y-111821969D01*
X148865750Y-111820066D01*
X148839155Y-111771421D01*
X148844104Y-111701726D01*
X148864940Y-111669304D01*
X148863298Y-111668031D01*
X148868075Y-111661870D01*
X148868081Y-111661865D01*
X148951744Y-111520398D01*
X148987296Y-111398027D01*
X148997597Y-111362573D01*
X148997598Y-111362567D01*
X149000499Y-111325701D01*
X149000500Y-111325694D01*
X149000500Y-110894306D01*
X148997598Y-110857431D01*
X148970861Y-110765402D01*
X148970932Y-110740216D01*
X148966904Y-110715354D01*
X148971030Y-110705873D01*
X148971060Y-110695533D01*
X148984736Y-110674384D01*
X148994789Y-110651290D01*
X149006439Y-110640824D01*
X149009002Y-110636863D01*
X149021035Y-110627713D01*
X149094033Y-110578936D01*
X149153110Y-110539464D01*
X149388820Y-110303753D01*
X149450142Y-110270269D01*
X149519833Y-110275253D01*
X149575767Y-110317124D01*
X149600184Y-110382589D01*
X149600500Y-110391435D01*
X149600500Y-111548770D01*
X149632953Y-111711923D01*
X149635105Y-111722740D01*
X149661419Y-111786267D01*
X149702987Y-111886621D01*
X149746361Y-111951534D01*
X149750234Y-111957330D01*
X149750238Y-111957338D01*
X149801537Y-112034112D01*
X150846887Y-113079462D01*
X150875381Y-113098501D01*
X150994380Y-113178014D01*
X151042378Y-113197895D01*
X151158260Y-113245895D01*
X151332229Y-113280499D01*
X151332233Y-113280500D01*
X151332234Y-113280500D01*
X152563693Y-113280500D01*
X152563694Y-113280499D01*
X152621682Y-113268964D01*
X152737658Y-113245896D01*
X152737661Y-113245894D01*
X152737666Y-113245894D01*
X152872755Y-113189939D01*
X152920207Y-113180500D01*
X153365686Y-113180500D01*
X153365694Y-113180500D01*
X153402569Y-113177598D01*
X153402571Y-113177597D01*
X153402573Y-113177597D01*
X153444191Y-113165505D01*
X153560398Y-113131744D01*
X153701865Y-113048081D01*
X153818081Y-112931865D01*
X153901744Y-112790398D01*
X153947598Y-112632569D01*
X153950500Y-112595694D01*
X153950500Y-112164306D01*
X153947598Y-112127431D01*
X153920485Y-112034110D01*
X153902848Y-111973401D01*
X153901744Y-111969602D01*
X153818081Y-111828135D01*
X153818079Y-111828133D01*
X153818076Y-111828129D01*
X153701870Y-111711923D01*
X153701862Y-111711917D01*
X153560396Y-111628255D01*
X153560393Y-111628254D01*
X153402573Y-111582402D01*
X153402567Y-111582401D01*
X153365701Y-111579500D01*
X153365694Y-111579500D01*
X152920207Y-111579500D01*
X152872755Y-111570061D01*
X152737667Y-111514106D01*
X152737658Y-111514103D01*
X152563694Y-111479500D01*
X152563691Y-111479500D01*
X151845288Y-111479500D01*
X151778249Y-111459815D01*
X151757607Y-111443181D01*
X151437819Y-111123393D01*
X151404334Y-111062070D01*
X151401500Y-111035712D01*
X151401500Y-110759643D01*
X151421185Y-110692604D01*
X151473989Y-110646849D01*
X151541106Y-110637198D01*
X151541114Y-110637101D01*
X151541546Y-110637135D01*
X151543147Y-110636905D01*
X151547360Y-110637592D01*
X151547429Y-110637597D01*
X151547431Y-110637598D01*
X151584306Y-110640500D01*
X152029793Y-110640500D01*
X152077245Y-110649939D01*
X152212334Y-110705894D01*
X152212336Y-110705894D01*
X152212341Y-110705896D01*
X152386304Y-110740499D01*
X152386307Y-110740500D01*
X152386309Y-110740500D01*
X154165638Y-110740500D01*
X154232677Y-110760185D01*
X154253319Y-110776819D01*
X157546195Y-114069694D01*
X157546205Y-114069705D01*
X157550535Y-114074035D01*
X157550536Y-114074036D01*
X157800536Y-114324035D01*
X157902048Y-114425547D01*
X157925966Y-114449465D01*
X158073446Y-114548009D01*
X158073459Y-114548016D01*
X158196363Y-114598923D01*
X158237334Y-114615894D01*
X158279935Y-114624368D01*
X158411305Y-114650500D01*
X158411308Y-114650500D01*
X158411309Y-114650500D01*
X168009953Y-114650500D01*
X168076992Y-114670185D01*
X168097634Y-114686819D01*
X168152786Y-114741971D01*
X168307749Y-114854556D01*
X168318390Y-114862287D01*
X168434607Y-114921503D01*
X168500776Y-114955218D01*
X168500778Y-114955218D01*
X168500781Y-114955220D01*
X168605137Y-114989127D01*
X168695465Y-115018477D01*
X168796557Y-115034488D01*
X168897648Y-115050500D01*
X168897649Y-115050500D01*
X169102351Y-115050500D01*
X169102352Y-115050500D01*
X169304534Y-115018477D01*
X169499219Y-114955220D01*
X169681610Y-114862287D01*
X169831465Y-114753412D01*
X169847213Y-114741971D01*
X169847215Y-114741968D01*
X169847219Y-114741966D01*
X169902366Y-114686819D01*
X169963689Y-114653334D01*
X169990047Y-114650500D01*
X175124913Y-114650500D01*
X175191952Y-114670185D01*
X175237707Y-114722989D01*
X175242844Y-114736182D01*
X175248441Y-114753409D01*
X175344951Y-114942820D01*
X175469890Y-115114786D01*
X175583430Y-115228326D01*
X175616915Y-115289649D01*
X175611931Y-115359341D01*
X175570059Y-115415274D01*
X175539083Y-115432189D01*
X175407669Y-115481203D01*
X175407664Y-115481206D01*
X175292455Y-115567452D01*
X175292452Y-115567455D01*
X175206206Y-115682664D01*
X175206202Y-115682671D01*
X175155908Y-115817517D01*
X175149501Y-115877116D01*
X175149500Y-115877135D01*
X175149500Y-117672870D01*
X175149501Y-117672876D01*
X175155908Y-117732483D01*
X175206202Y-117867328D01*
X175206206Y-117867335D01*
X175292452Y-117982544D01*
X175292455Y-117982547D01*
X175407664Y-118068793D01*
X175407671Y-118068797D01*
X175542517Y-118119091D01*
X175542516Y-118119091D01*
X175549444Y-118119835D01*
X175602127Y-118125500D01*
X177397872Y-118125499D01*
X177457483Y-118119091D01*
X177592331Y-118068796D01*
X177707546Y-117982546D01*
X177793796Y-117867331D01*
X177844091Y-117732483D01*
X177850500Y-117672873D01*
X177850499Y-116749360D01*
X177870183Y-116682322D01*
X177886813Y-116661685D01*
X178850464Y-115698035D01*
X178860735Y-115682664D01*
X178876624Y-115658885D01*
X178876624Y-115658884D01*
X178937715Y-115567455D01*
X178949013Y-115550547D01*
X178989075Y-115453828D01*
X179016895Y-115386666D01*
X179051500Y-115212691D01*
X179051500Y-115035308D01*
X179051500Y-113462442D01*
X179050589Y-113457861D01*
X179050588Y-113457854D01*
X179050588Y-113457853D01*
X179016896Y-113288474D01*
X179016895Y-113288467D01*
X178964391Y-113161712D01*
X178949014Y-113124588D01*
X178949009Y-113124579D01*
X178850464Y-112977097D01*
X178850461Y-112977093D01*
X176262902Y-110389535D01*
X176262897Y-110389531D01*
X176208489Y-110353178D01*
X176208483Y-110353175D01*
X176203826Y-110350063D01*
X176115414Y-110290987D01*
X176033473Y-110257046D01*
X176017423Y-110250398D01*
X175951533Y-110223105D01*
X175951525Y-110223103D01*
X175777563Y-110188500D01*
X175777559Y-110188500D01*
X175777558Y-110188500D01*
X158703362Y-110188500D01*
X158636323Y-110168815D01*
X158615681Y-110152181D01*
X157026819Y-108563319D01*
X156993334Y-108501996D01*
X156990500Y-108475638D01*
X156990500Y-108397648D01*
X156958477Y-108195465D01*
X156895218Y-108000776D01*
X156828857Y-107870537D01*
X156802287Y-107818390D01*
X156758625Y-107758294D01*
X156681971Y-107652786D01*
X156537213Y-107508028D01*
X156371613Y-107387715D01*
X156371612Y-107387714D01*
X156371610Y-107387713D01*
X156314653Y-107358691D01*
X156189223Y-107294781D01*
X155994534Y-107231522D01*
X155819995Y-107203878D01*
X155792352Y-107199500D01*
X155587648Y-107199500D01*
X155563329Y-107203351D01*
X155385465Y-107231522D01*
X155190776Y-107294781D01*
X155008386Y-107387715D01*
X154842786Y-107508028D01*
X154842782Y-107508032D01*
X154717634Y-107633181D01*
X154656311Y-107666666D01*
X154629953Y-107669500D01*
X152386306Y-107669500D01*
X152212341Y-107704103D01*
X152212332Y-107704106D01*
X152077245Y-107760061D01*
X152029793Y-107769500D01*
X151584298Y-107769500D01*
X151541114Y-107772899D01*
X151541013Y-107771625D01*
X151478293Y-107765019D01*
X151423796Y-107721294D01*
X151401589Y-107655048D01*
X151401500Y-107650356D01*
X151401500Y-107174361D01*
X151421185Y-107107322D01*
X151437819Y-107086680D01*
X152337680Y-106186819D01*
X152399003Y-106153334D01*
X152425361Y-106150500D01*
X159148693Y-106150500D01*
X159148694Y-106150499D01*
X159322666Y-106115895D01*
X159413893Y-106078107D01*
X159486547Y-106048013D01*
X159574959Y-105988936D01*
X159634036Y-105949464D01*
X175246680Y-90336818D01*
X175308003Y-90303334D01*
X175334361Y-90300500D01*
X175412351Y-90300500D01*
X175412352Y-90300500D01*
X175614534Y-90268477D01*
X175809219Y-90205220D01*
X175991610Y-90112287D01*
X176112105Y-90024743D01*
X176157213Y-89991971D01*
X176157215Y-89991968D01*
X176157219Y-89991966D01*
X176301966Y-89847219D01*
X176301968Y-89847215D01*
X176301971Y-89847213D01*
X176383753Y-89734648D01*
X176422287Y-89681610D01*
X176515220Y-89499219D01*
X176522499Y-89476815D01*
X176561934Y-89419143D01*
X176626292Y-89391944D01*
X176695138Y-89403857D01*
X176728110Y-89427454D01*
X178063181Y-90762525D01*
X178096666Y-90823848D01*
X178099500Y-90850206D01*
X178099500Y-92174242D01*
X178079815Y-92241281D01*
X178063181Y-92261923D01*
X177969894Y-92355209D01*
X177969890Y-92355213D01*
X177844951Y-92527179D01*
X177748444Y-92716585D01*
X177682753Y-92918760D01*
X177649500Y-93128713D01*
X177649500Y-93341286D01*
X177673783Y-93494606D01*
X177682754Y-93551243D01*
X177747698Y-93751120D01*
X177748444Y-93753414D01*
X177844951Y-93942820D01*
X177969890Y-94114786D01*
X178120213Y-94265109D01*
X178292179Y-94390048D01*
X178292181Y-94390049D01*
X178292184Y-94390051D01*
X178481588Y-94486557D01*
X178683757Y-94552246D01*
X178893713Y-94585500D01*
X178893714Y-94585500D01*
X179106286Y-94585500D01*
X179106287Y-94585500D01*
X179316243Y-94552246D01*
X179518412Y-94486557D01*
X179707816Y-94390051D01*
X179783288Y-94335218D01*
X179879786Y-94265109D01*
X179879788Y-94265106D01*
X179879792Y-94265104D01*
X180030104Y-94114792D01*
X180030106Y-94114788D01*
X180030109Y-94114786D01*
X180155048Y-93942820D01*
X180155047Y-93942820D01*
X180155051Y-93942816D01*
X180251557Y-93753412D01*
X180317246Y-93551243D01*
X180350500Y-93341287D01*
X180350500Y-93128713D01*
X180317246Y-92918757D01*
X180251557Y-92716588D01*
X180155051Y-92527184D01*
X180155049Y-92527181D01*
X180155048Y-92527179D01*
X180030109Y-92355213D01*
X179936819Y-92261923D01*
X179903334Y-92200600D01*
X179900500Y-92174242D01*
X179900500Y-90337152D01*
X179900499Y-90337151D01*
X179899130Y-90330269D01*
X179897775Y-90323450D01*
X179897775Y-90323449D01*
X179865896Y-90163185D01*
X179865895Y-90163178D01*
X179798645Y-90000824D01*
X179798013Y-89999297D01*
X179731999Y-89900500D01*
X179725625Y-89890961D01*
X179699467Y-89851812D01*
X179699461Y-89851804D01*
X176547191Y-86699535D01*
X176547186Y-86699531D01*
X176492778Y-86663178D01*
X176492772Y-86663175D01*
X176488115Y-86660063D01*
X176399703Y-86600987D01*
X176317762Y-86567046D01*
X176235822Y-86533105D01*
X176235814Y-86533103D01*
X176061852Y-86498500D01*
X176061848Y-86498500D01*
X176061847Y-86498500D01*
X169379692Y-86498500D01*
X169202308Y-86498500D01*
X169202303Y-86498500D01*
X169028341Y-86533103D01*
X169028329Y-86533106D01*
X168946392Y-86567045D01*
X168946393Y-86567046D01*
X168864455Y-86600985D01*
X168776040Y-86660063D01*
X168776039Y-86660064D01*
X168716961Y-86699537D01*
X167777680Y-87638818D01*
X167716357Y-87672303D01*
X167646665Y-87667319D01*
X167602318Y-87638818D01*
X166663035Y-86699535D01*
X166663030Y-86699531D01*
X166608622Y-86663178D01*
X166608616Y-86663175D01*
X166603959Y-86660063D01*
X166515547Y-86600987D01*
X166433606Y-86567046D01*
X166351666Y-86533105D01*
X166351658Y-86533103D01*
X166177696Y-86498500D01*
X166177692Y-86498500D01*
X166177691Y-86498500D01*
X163545536Y-86498500D01*
X163368152Y-86498500D01*
X163368147Y-86498500D01*
X163194183Y-86533103D01*
X163194167Y-86533108D01*
X163078297Y-86581102D01*
X163078298Y-86581103D01*
X163030298Y-86600986D01*
X162882809Y-86699535D01*
X162882805Y-86699538D01*
X161800540Y-87781802D01*
X161800537Y-87781805D01*
X161773355Y-87822486D01*
X161773346Y-87822501D01*
X161771311Y-87825547D01*
X161701987Y-87929297D01*
X161683870Y-87973036D01*
X161680617Y-87980889D01*
X161680616Y-87980891D01*
X161634105Y-88093177D01*
X161634103Y-88093185D01*
X161606528Y-88231812D01*
X161606529Y-88231813D01*
X161599500Y-88267153D01*
X161599500Y-96389953D01*
X161579815Y-96456992D01*
X161563181Y-96477634D01*
X161508032Y-96532782D01*
X161508028Y-96532786D01*
X161387715Y-96698386D01*
X161294781Y-96880776D01*
X161231522Y-97075465D01*
X161199500Y-97277648D01*
X161199500Y-97475637D01*
X161179815Y-97542676D01*
X161163181Y-97563318D01*
X160663319Y-98063181D01*
X160601996Y-98096666D01*
X160575638Y-98099500D01*
X150484361Y-98099500D01*
X150417322Y-98079815D01*
X150396680Y-98063181D01*
X147936819Y-95603320D01*
X147903334Y-95541997D01*
X147900500Y-95515639D01*
X147900500Y-95329778D01*
X147892090Y-95276681D01*
X147866015Y-95112049D01*
X147797895Y-94902394D01*
X147797895Y-94902393D01*
X147763237Y-94834375D01*
X147697815Y-94705978D01*
X147658884Y-94652394D01*
X147568247Y-94527641D01*
X147568243Y-94527636D01*
X147412363Y-94371756D01*
X147412358Y-94371752D01*
X147234025Y-94242187D01*
X147234024Y-94242186D01*
X147234022Y-94242185D01*
X147171096Y-94210122D01*
X147037606Y-94142104D01*
X147037603Y-94142103D01*
X146827952Y-94073985D01*
X146719086Y-94056742D01*
X146610222Y-94039500D01*
X146424362Y-94039500D01*
X146357323Y-94019815D01*
X146336681Y-94003181D01*
X145146819Y-92813319D01*
X145113334Y-92751996D01*
X145110500Y-92725638D01*
X145110500Y-91952294D01*
X145130185Y-91885255D01*
X145153981Y-91857993D01*
X145156557Y-91855792D01*
X145156566Y-91855786D01*
X145318286Y-91694066D01*
X145452717Y-91509038D01*
X145556548Y-91305258D01*
X145556549Y-91305255D01*
X145627221Y-91087749D01*
X145627221Y-91087748D01*
X145627222Y-91087745D01*
X145663000Y-90861854D01*
X145663000Y-90538146D01*
X145627222Y-90312255D01*
X145627221Y-90312251D01*
X145627221Y-90312250D01*
X145556549Y-90094744D01*
X145534188Y-90050858D01*
X145452717Y-89890962D01*
X145318286Y-89705934D01*
X145156566Y-89544214D01*
X144971538Y-89409783D01*
X144941406Y-89394430D01*
X144767755Y-89305950D01*
X144550248Y-89235278D01*
X144345391Y-89202832D01*
X144324354Y-89199500D01*
X144095646Y-89199500D01*
X144020349Y-89211426D01*
X143869753Y-89235278D01*
X143869750Y-89235278D01*
X143652244Y-89305950D01*
X143448458Y-89409785D01*
X143329715Y-89496057D01*
X143263909Y-89519537D01*
X143195855Y-89503711D01*
X143147160Y-89453606D01*
X143140496Y-89438661D01*
X143133753Y-89420383D01*
X143043640Y-89202832D01*
X143042104Y-89199500D01*
X143027023Y-89166786D01*
X143018176Y-89149425D01*
X142998798Y-89114823D01*
X142875766Y-88914054D01*
X142875760Y-88914044D01*
X142853710Y-88881044D01*
X142853706Y-88881038D01*
X142853699Y-88881028D01*
X142842288Y-88865323D01*
X142842278Y-88865309D01*
X142817704Y-88834137D01*
X142817698Y-88834131D01*
X142817691Y-88834121D01*
X142791139Y-88803032D01*
X142762568Y-88739271D01*
X142773005Y-88670185D01*
X142819136Y-88617709D01*
X142885429Y-88598501D01*
X147549433Y-88598501D01*
X147616472Y-88618186D01*
X147637114Y-88634820D01*
X150063181Y-91060887D01*
X150096666Y-91122210D01*
X150099500Y-91148568D01*
X150099500Y-92139953D01*
X150079815Y-92206992D01*
X150063181Y-92227634D01*
X150008032Y-92282782D01*
X150008028Y-92282786D01*
X149887715Y-92448386D01*
X149794781Y-92630776D01*
X149731522Y-92825465D01*
X149699500Y-93027648D01*
X149699500Y-93232351D01*
X149731522Y-93434534D01*
X149794781Y-93629223D01*
X149887715Y-93811613D01*
X150008028Y-93977213D01*
X150152786Y-94121971D01*
X150287546Y-94219878D01*
X150318390Y-94242287D01*
X150434607Y-94301503D01*
X150500776Y-94335218D01*
X150500778Y-94335218D01*
X150500781Y-94335220D01*
X150605137Y-94369127D01*
X150695465Y-94398477D01*
X150796557Y-94414488D01*
X150897648Y-94430500D01*
X150897649Y-94430500D01*
X151102351Y-94430500D01*
X151102352Y-94430500D01*
X151304534Y-94398477D01*
X151499219Y-94335220D01*
X151681610Y-94242287D01*
X151774590Y-94174732D01*
X151847213Y-94121971D01*
X151847215Y-94121968D01*
X151847219Y-94121966D01*
X151991966Y-93977219D01*
X151991968Y-93977215D01*
X151991971Y-93977213D01*
X152044732Y-93904590D01*
X152112287Y-93811610D01*
X152205220Y-93629219D01*
X152268477Y-93434534D01*
X152300500Y-93232352D01*
X152300500Y-93027648D01*
X152268477Y-92825466D01*
X152252729Y-92777000D01*
X152205218Y-92630776D01*
X152171503Y-92564607D01*
X152112287Y-92448390D01*
X152104556Y-92437749D01*
X151991971Y-92282786D01*
X151936819Y-92227634D01*
X151903334Y-92166311D01*
X151900500Y-92139953D01*
X151900500Y-90635516D01*
X151891419Y-90589859D01*
X151891419Y-90589858D01*
X151865896Y-90461548D01*
X151865895Y-90461541D01*
X151817895Y-90345659D01*
X151808695Y-90323449D01*
X151798014Y-90297662D01*
X151790109Y-90285832D01*
X151699464Y-90150172D01*
X151699461Y-90150168D01*
X151661474Y-90112181D01*
X151627989Y-90050858D01*
X151632973Y-89981166D01*
X151674845Y-89925233D01*
X151740309Y-89900816D01*
X151749155Y-89900500D01*
X154026638Y-89900500D01*
X154093677Y-89920185D01*
X154139432Y-89972989D01*
X154149376Y-90042147D01*
X154120351Y-90105703D01*
X154114319Y-90112181D01*
X153800538Y-90425960D01*
X153800537Y-90425961D01*
X153769096Y-90473018D01*
X153769095Y-90473019D01*
X153701990Y-90573447D01*
X153701987Y-90573453D01*
X153686306Y-90611311D01*
X153654477Y-90688153D01*
X153634105Y-90737334D01*
X153609337Y-90861854D01*
X153609337Y-90861855D01*
X153599500Y-90911307D01*
X153599500Y-94058530D01*
X153579815Y-94125569D01*
X153563182Y-94146211D01*
X153431751Y-94277642D01*
X153302187Y-94455974D01*
X153202104Y-94652393D01*
X153202103Y-94652396D01*
X153133985Y-94862047D01*
X153099500Y-95079778D01*
X153099500Y-95300221D01*
X153133985Y-95517952D01*
X153202103Y-95727603D01*
X153202104Y-95727606D01*
X153302187Y-95924025D01*
X153431752Y-96102358D01*
X153431756Y-96102363D01*
X153587636Y-96258243D01*
X153587641Y-96258247D01*
X153717175Y-96352358D01*
X153765978Y-96387815D01*
X153870977Y-96441315D01*
X153962393Y-96487895D01*
X153962396Y-96487896D01*
X154025032Y-96508247D01*
X154172049Y-96556015D01*
X154389778Y-96590500D01*
X154389779Y-96590500D01*
X154610221Y-96590500D01*
X154610222Y-96590500D01*
X154827951Y-96556015D01*
X155037606Y-96487895D01*
X155234022Y-96387815D01*
X155412365Y-96258242D01*
X155568242Y-96102365D01*
X155697815Y-95924022D01*
X155797895Y-95727606D01*
X155866015Y-95517951D01*
X155900500Y-95300222D01*
X155900500Y-95079778D01*
X155866015Y-94862049D01*
X155797895Y-94652394D01*
X155797895Y-94652393D01*
X155763237Y-94584375D01*
X155697815Y-94455978D01*
X155679304Y-94430500D01*
X155568248Y-94277642D01*
X155568244Y-94277638D01*
X155568242Y-94277635D01*
X155436818Y-94146211D01*
X155403334Y-94084888D01*
X155400500Y-94058530D01*
X155400500Y-91424362D01*
X155420185Y-91357323D01*
X155436819Y-91336681D01*
X156436681Y-90336819D01*
X156498004Y-90303334D01*
X156524362Y-90300500D01*
X156602351Y-90300500D01*
X156602352Y-90300500D01*
X156804534Y-90268477D01*
X156999219Y-90205220D01*
X157181610Y-90112287D01*
X157302105Y-90024743D01*
X157347213Y-89991971D01*
X157347215Y-89991968D01*
X157347219Y-89991966D01*
X157491966Y-89847219D01*
X157491968Y-89847215D01*
X157491971Y-89847213D01*
X157573753Y-89734648D01*
X157612287Y-89681610D01*
X157705220Y-89499219D01*
X157768477Y-89304534D01*
X157800500Y-89102352D01*
X157800500Y-88897648D01*
X157773182Y-88725172D01*
X157768477Y-88695465D01*
X157735542Y-88594102D01*
X157705220Y-88500781D01*
X157705218Y-88500778D01*
X157705218Y-88500776D01*
X157659539Y-88411127D01*
X157612287Y-88318390D01*
X157598563Y-88299500D01*
X157491971Y-88152786D01*
X157347213Y-88008028D01*
X157181613Y-87887715D01*
X157181612Y-87887714D01*
X157181610Y-87887713D01*
X157124653Y-87858691D01*
X156999223Y-87794781D01*
X156804534Y-87731522D01*
X156629995Y-87703878D01*
X156602352Y-87699500D01*
X156397648Y-87699500D01*
X156373329Y-87703351D01*
X156195465Y-87731522D01*
X156000776Y-87794781D01*
X155818386Y-87887715D01*
X155652786Y-88008028D01*
X155652782Y-88008032D01*
X155597634Y-88063181D01*
X155536311Y-88096666D01*
X155509953Y-88099500D01*
X149700155Y-88099500D01*
X149633116Y-88079815D01*
X149612474Y-88063181D01*
X148836933Y-87287639D01*
X148836931Y-87287637D01*
X148547828Y-86998536D01*
X148508792Y-86972453D01*
X148400341Y-86899988D01*
X148400340Y-86899987D01*
X148400338Y-86899986D01*
X148304341Y-86860223D01*
X148304341Y-86860222D01*
X148236469Y-86832109D01*
X148236452Y-86832104D01*
X148097091Y-86804383D01*
X148097091Y-86804384D01*
X148062485Y-86797501D01*
X131905690Y-86797501D01*
X131728307Y-86797501D01*
X131728305Y-86797501D01*
X131590243Y-86824964D01*
X131566247Y-86829737D01*
X131554331Y-86832107D01*
X131390458Y-86899984D01*
X131390445Y-86899991D01*
X131242965Y-86998535D01*
X131242963Y-86998538D01*
X129021273Y-89220226D01*
X128959950Y-89253711D01*
X128914195Y-89255018D01*
X128879354Y-89249500D01*
X128650646Y-89249500D01*
X128583784Y-89260090D01*
X128424753Y-89285278D01*
X128424750Y-89285278D01*
X128207244Y-89355950D01*
X128003461Y-89459783D01*
X127820759Y-89592525D01*
X127754952Y-89616005D01*
X127686898Y-89600180D01*
X127638203Y-89550074D01*
X127631690Y-89535538D01*
X127621296Y-89507669D01*
X127621293Y-89507664D01*
X127535047Y-89392455D01*
X127535044Y-89392452D01*
X127419835Y-89306206D01*
X127419832Y-89306205D01*
X127419831Y-89306204D01*
X127321465Y-89269515D01*
X127277119Y-89241015D01*
X127173439Y-89137335D01*
X127147042Y-89112756D01*
X127147029Y-89112745D01*
X127142180Y-89108542D01*
X127133659Y-89101158D01*
X127105577Y-89078528D01*
X127105560Y-89078515D01*
X126891311Y-88918129D01*
X126861650Y-88897536D01*
X126846776Y-88887978D01*
X126815761Y-88869577D01*
X126815759Y-88869576D01*
X126580884Y-88741324D01*
X126548591Y-88725159D01*
X126532521Y-88717820D01*
X126499198Y-88704017D01*
X126408491Y-88670185D01*
X126248417Y-88610480D01*
X126248411Y-88610478D01*
X126248395Y-88610472D01*
X126214171Y-88599082D01*
X126197208Y-88594102D01*
X126162246Y-88585178D01*
X125900747Y-88528294D01*
X125900744Y-88528293D01*
X125900742Y-88528293D01*
X125895939Y-88527426D01*
X125865261Y-88521890D01*
X125847748Y-88519371D01*
X125822607Y-88516668D01*
X125811850Y-88515512D01*
X125811841Y-88515511D01*
X125811838Y-88515511D01*
X125540468Y-88496103D01*
X125522497Y-88495139D01*
X125513574Y-88494820D01*
X125495591Y-88494500D01*
X125495572Y-88494500D01*
X113504428Y-88494500D01*
X113504409Y-88494500D01*
X113486425Y-88494820D01*
X113477502Y-88495139D01*
X113459531Y-88496103D01*
X113188133Y-88515512D01*
X113152260Y-88519369D01*
X113134776Y-88521884D01*
X113099249Y-88528293D01*
X112837740Y-88585181D01*
X112802789Y-88594102D01*
X112785836Y-88599079D01*
X112751582Y-88610480D01*
X112500811Y-88704013D01*
X112467461Y-88717827D01*
X112451410Y-88725159D01*
X112451382Y-88725172D01*
X112435237Y-88733253D01*
X112419117Y-88741323D01*
X112184237Y-88869576D01*
X112153200Y-88887992D01*
X112138358Y-88897529D01*
X112108692Y-88918126D01*
X111894419Y-89078529D01*
X111866329Y-89101167D01*
X111852965Y-89112747D01*
X111826565Y-89137329D01*
X111637329Y-89326565D01*
X111612747Y-89352965D01*
X111601167Y-89366329D01*
X111578529Y-89394419D01*
X111418126Y-89608692D01*
X111397535Y-89638349D01*
X111387979Y-89653220D01*
X111369575Y-89684240D01*
X111241324Y-89919115D01*
X111225183Y-89951358D01*
X111217831Y-89967453D01*
X111204641Y-89999296D01*
X111204012Y-90000815D01*
X111127773Y-90205220D01*
X111110477Y-90251592D01*
X111099079Y-90285836D01*
X111094102Y-90302789D01*
X111085181Y-90337740D01*
X111028291Y-90599258D01*
X111021884Y-90634773D01*
X111019365Y-90652299D01*
X111015511Y-90688156D01*
X110996103Y-90959529D01*
X110995139Y-90977501D01*
X110994820Y-90986424D01*
X110994500Y-91004407D01*
X108100500Y-91004407D01*
X108100500Y-86261758D01*
X108120185Y-86194719D01*
X108172989Y-86148964D01*
X108224500Y-86137758D01*
X182975500Y-86137758D01*
X183042539Y-86157443D01*
G37*
%TD.AperFunction*%
%TA.AperFunction,NonConductor*%
G36*
X165731677Y-88319185D02*
G01*
X165752319Y-88335819D01*
X166353181Y-88936681D01*
X166386666Y-88998004D01*
X166389500Y-89024362D01*
X166389500Y-89102352D01*
X166391148Y-89112754D01*
X166421522Y-89304534D01*
X166484781Y-89499223D01*
X166577715Y-89681613D01*
X166698028Y-89847213D01*
X166842786Y-89991971D01*
X166984241Y-90094742D01*
X167008390Y-90112287D01*
X167108267Y-90163177D01*
X167190776Y-90205218D01*
X167190778Y-90205218D01*
X167190781Y-90205220D01*
X167295137Y-90239127D01*
X167385465Y-90268477D01*
X167486557Y-90284488D01*
X167587648Y-90300500D01*
X167587649Y-90300500D01*
X167792351Y-90300500D01*
X167792352Y-90300500D01*
X167994534Y-90268477D01*
X168189219Y-90205220D01*
X168371610Y-90112287D01*
X168492105Y-90024743D01*
X168537213Y-89991971D01*
X168537215Y-89991968D01*
X168537219Y-89991966D01*
X168681966Y-89847219D01*
X168681968Y-89847215D01*
X168681971Y-89847213D01*
X168763753Y-89734648D01*
X168802287Y-89681610D01*
X168895220Y-89499219D01*
X168958477Y-89304534D01*
X168990500Y-89102352D01*
X168990500Y-89024362D01*
X169010185Y-88957323D01*
X169026819Y-88936681D01*
X169627681Y-88335819D01*
X169689004Y-88302334D01*
X169715362Y-88299500D01*
X174004988Y-88299500D01*
X174072027Y-88319185D01*
X174117782Y-88371989D01*
X174127726Y-88441147D01*
X174115472Y-88479796D01*
X174104782Y-88500774D01*
X174041522Y-88695465D01*
X174009500Y-88897648D01*
X174009500Y-88975638D01*
X173989815Y-89042677D01*
X173973181Y-89063319D01*
X165232181Y-97804319D01*
X165170858Y-97837804D01*
X165101166Y-97832820D01*
X165045233Y-97790948D01*
X165020816Y-97725484D01*
X165020500Y-97716638D01*
X165020500Y-89990047D01*
X165040185Y-89923008D01*
X165056819Y-89902366D01*
X165068224Y-89890961D01*
X165111966Y-89847219D01*
X165111968Y-89847215D01*
X165111971Y-89847213D01*
X165193753Y-89734648D01*
X165232287Y-89681610D01*
X165325220Y-89499219D01*
X165388477Y-89304534D01*
X165420500Y-89102352D01*
X165420500Y-88897648D01*
X165393182Y-88725172D01*
X165388477Y-88695465D01*
X165357160Y-88599082D01*
X165325220Y-88500781D01*
X165325217Y-88500777D01*
X165325217Y-88500774D01*
X165314528Y-88479796D01*
X165314019Y-88477090D01*
X165312218Y-88475011D01*
X165307608Y-88442955D01*
X165301631Y-88411127D01*
X165302665Y-88408577D01*
X165302274Y-88405853D01*
X165315731Y-88376386D01*
X165327907Y-88346386D01*
X165330155Y-88344800D01*
X165331299Y-88342297D01*
X165358543Y-88324787D01*
X165385013Y-88306128D01*
X165388471Y-88305554D01*
X165390077Y-88304523D01*
X165425012Y-88299500D01*
X165664638Y-88299500D01*
X165731677Y-88319185D01*
G37*
%TD.AperFunction*%
%TA.AperFunction,NonConductor*%
G36*
X143460703Y-93657407D02*
G01*
X143482602Y-93682230D01*
X143510534Y-93724034D01*
X143510540Y-93724041D01*
X145063181Y-95276681D01*
X145096666Y-95338004D01*
X145099500Y-95364362D01*
X145099500Y-95550221D01*
X145133985Y-95767952D01*
X145202103Y-95977603D01*
X145202104Y-95977606D01*
X145302187Y-96174025D01*
X145431752Y-96352358D01*
X145431756Y-96352363D01*
X145587636Y-96508243D01*
X145587641Y-96508247D01*
X145653389Y-96556015D01*
X145765978Y-96637815D01*
X145884854Y-96698386D01*
X145962393Y-96737895D01*
X145962396Y-96737896D01*
X146067221Y-96771955D01*
X146172049Y-96806015D01*
X146389778Y-96840500D01*
X146389779Y-96840500D01*
X146575639Y-96840500D01*
X146642678Y-96860185D01*
X146663320Y-96876819D01*
X148624321Y-98837820D01*
X148657806Y-98899143D01*
X148652822Y-98968835D01*
X148610950Y-99024768D01*
X148545486Y-99049185D01*
X148536640Y-99049501D01*
X144422247Y-99049501D01*
X144248282Y-99084104D01*
X144248266Y-99084109D01*
X144132396Y-99132103D01*
X144132397Y-99132104D01*
X144084397Y-99151987D01*
X143954351Y-99238882D01*
X143954350Y-99238883D01*
X143936905Y-99250538D01*
X143506576Y-99680867D01*
X143445253Y-99714352D01*
X143375561Y-99709368D01*
X143319628Y-99667496D01*
X143295211Y-99602032D01*
X143294899Y-99594194D01*
X143255549Y-94754020D01*
X143255504Y-94748482D01*
X143255500Y-94747474D01*
X143255500Y-93751120D01*
X143275185Y-93684081D01*
X143327989Y-93638326D01*
X143397147Y-93628382D01*
X143460703Y-93657407D01*
G37*
%TD.AperFunction*%
%TA.AperFunction,NonConductor*%
G36*
X159093677Y-103730185D02*
G01*
X159139432Y-103782989D01*
X159149376Y-103852147D01*
X159120351Y-103915703D01*
X159114319Y-103922181D01*
X158723319Y-104313181D01*
X158661996Y-104346666D01*
X158635638Y-104349500D01*
X155574724Y-104349500D01*
X155507685Y-104329815D01*
X155461930Y-104277011D01*
X155451986Y-104207853D01*
X155481011Y-104144297D01*
X155509627Y-104119961D01*
X155541120Y-104100536D01*
X155618656Y-104052712D01*
X155742712Y-103928656D01*
X155834814Y-103779334D01*
X155834814Y-103779332D01*
X155838605Y-103773187D01*
X155840399Y-103774293D01*
X155879687Y-103729663D01*
X155945908Y-103710500D01*
X159026638Y-103710500D01*
X159093677Y-103730185D01*
G37*
%TD.AperFunction*%
%TA.AperFunction,NonConductor*%
G36*
X153070741Y-103715388D02*
G01*
X153088095Y-103715253D01*
X153103571Y-103725028D01*
X153121131Y-103730185D01*
X153132695Y-103743425D01*
X153147167Y-103752567D01*
X153160862Y-103773515D01*
X153161395Y-103773187D01*
X153165185Y-103779332D01*
X153165186Y-103779334D01*
X153257288Y-103928656D01*
X153381344Y-104052712D01*
X153458880Y-104100536D01*
X153490373Y-104119961D01*
X153537097Y-104171909D01*
X153548320Y-104240872D01*
X153520476Y-104304954D01*
X153462408Y-104343810D01*
X153425276Y-104349500D01*
X151912306Y-104349500D01*
X151791890Y-104373453D01*
X151791889Y-104373453D01*
X151738341Y-104384104D01*
X151738332Y-104384106D01*
X151574459Y-104451983D01*
X151574446Y-104451990D01*
X151426967Y-104550533D01*
X151426965Y-104550535D01*
X151426965Y-104550536D01*
X151426964Y-104550537D01*
X151357575Y-104619926D01*
X151296251Y-104653410D01*
X151226560Y-104648425D01*
X151182213Y-104619926D01*
X151075035Y-104512748D01*
X150803159Y-104240872D01*
X150484469Y-103922181D01*
X150450984Y-103860858D01*
X150455968Y-103791166D01*
X150497840Y-103735233D01*
X150563304Y-103710816D01*
X150572150Y-103710500D01*
X153054092Y-103710500D01*
X153070741Y-103715388D01*
G37*
%TD.AperFunction*%
%TA.AperFunction,NonConductor*%
G36*
X143546665Y-105320719D02*
G01*
X143553908Y-105327408D01*
X143725960Y-105499461D01*
X143725964Y-105499464D01*
X143873446Y-105598009D01*
X143873452Y-105598012D01*
X143873453Y-105598013D01*
X144037334Y-105665895D01*
X144211303Y-105700499D01*
X144211307Y-105700500D01*
X144211308Y-105700500D01*
X144211309Y-105700500D01*
X147086768Y-105700500D01*
X147153807Y-105720185D01*
X147174449Y-105736819D01*
X148364181Y-106926550D01*
X148397666Y-106987873D01*
X148400500Y-107014231D01*
X148400500Y-107645500D01*
X148380815Y-107712539D01*
X148328011Y-107758294D01*
X148276500Y-107769500D01*
X147970207Y-107769500D01*
X147922755Y-107760061D01*
X147787667Y-107704106D01*
X147787658Y-107704103D01*
X147613694Y-107669500D01*
X147613691Y-107669500D01*
X146559618Y-107669500D01*
X146382234Y-107669500D01*
X146382229Y-107669500D01*
X146208267Y-107704103D01*
X146208255Y-107704106D01*
X146126318Y-107738045D01*
X146126319Y-107738046D01*
X146044381Y-107771985D01*
X145962289Y-107826838D01*
X145896887Y-107870537D01*
X143591897Y-110175527D01*
X143530574Y-110209012D01*
X143460882Y-110204028D01*
X143404949Y-110162156D01*
X143380532Y-110096692D01*
X143380221Y-110088883D01*
X143342231Y-105416096D01*
X143361370Y-105348900D01*
X143413800Y-105302717D01*
X143482876Y-105292212D01*
X143546665Y-105320719D01*
G37*
%TD.AperFunction*%
%TA.AperFunction,NonConductor*%
G36*
X175331544Y-112009185D02*
G01*
X175352186Y-112025819D01*
X175964186Y-112637819D01*
X175997671Y-112699142D01*
X175992687Y-112768834D01*
X175950815Y-112824767D01*
X175885351Y-112849184D01*
X175876505Y-112849500D01*
X169990047Y-112849500D01*
X169923008Y-112829815D01*
X169902366Y-112813181D01*
X169847213Y-112758028D01*
X169681613Y-112637715D01*
X169681612Y-112637714D01*
X169681610Y-112637713D01*
X169599157Y-112595701D01*
X169499223Y-112544781D01*
X169304534Y-112481522D01*
X169129995Y-112453878D01*
X169102352Y-112449500D01*
X168897648Y-112449500D01*
X168873329Y-112453351D01*
X168695465Y-112481522D01*
X168500776Y-112544781D01*
X168318386Y-112637715D01*
X168152786Y-112758028D01*
X168152782Y-112758032D01*
X168097634Y-112813181D01*
X168036311Y-112846666D01*
X168009953Y-112849500D01*
X158924363Y-112849500D01*
X158894931Y-112840857D01*
X158864943Y-112834336D01*
X158859922Y-112830578D01*
X158857324Y-112829815D01*
X158836687Y-112813186D01*
X158819699Y-112796200D01*
X158224680Y-112201181D01*
X158191195Y-112139858D01*
X158196179Y-112070166D01*
X158238051Y-112014233D01*
X158303515Y-111989816D01*
X158312361Y-111989500D01*
X175264505Y-111989500D01*
X175331544Y-112009185D01*
G37*
%TD.AperFunction*%
%TA.AperFunction,NonConductor*%
G36*
X145105703Y-114629649D02*
G01*
X145112181Y-114635681D01*
X152063181Y-121586680D01*
X152096666Y-121648003D01*
X152099500Y-121674361D01*
X152099500Y-130325638D01*
X152079815Y-130392677D01*
X152063181Y-130413319D01*
X149913319Y-132563181D01*
X149851996Y-132596666D01*
X149825638Y-132599500D01*
X143629500Y-132599500D01*
X143562461Y-132579815D01*
X143516706Y-132527011D01*
X143505500Y-132475500D01*
X143505500Y-125508166D01*
X143505499Y-125507117D01*
X143505482Y-125499277D01*
X143505482Y-125499142D01*
X143505474Y-125497292D01*
X143505449Y-125493112D01*
X143505427Y-125489130D01*
X143505427Y-125489129D01*
X143505420Y-125488116D01*
X143499894Y-124808598D01*
X143496779Y-124425505D01*
X143515918Y-124358310D01*
X143568348Y-124312127D01*
X143620775Y-124300499D01*
X143975637Y-124300499D01*
X144042676Y-124320184D01*
X144063318Y-124336818D01*
X147943181Y-128216681D01*
X147976666Y-128278004D01*
X147979500Y-128304362D01*
X147979500Y-129200001D01*
X147979501Y-129200019D01*
X147990000Y-129302796D01*
X147990001Y-129302799D01*
X148045185Y-129469331D01*
X148045187Y-129469336D01*
X148067295Y-129505178D01*
X148137288Y-129618656D01*
X148261344Y-129742712D01*
X148410666Y-129834814D01*
X148577203Y-129889999D01*
X148679991Y-129900500D01*
X150080008Y-129900499D01*
X150182797Y-129889999D01*
X150349334Y-129834814D01*
X150498656Y-129742712D01*
X150622712Y-129618656D01*
X150714814Y-129469334D01*
X150769999Y-129302797D01*
X150780500Y-129200009D01*
X150780499Y-127799992D01*
X150769999Y-127697203D01*
X150714814Y-127530666D01*
X150622712Y-127381344D01*
X150498656Y-127257288D01*
X150349334Y-127165186D01*
X150182797Y-127110001D01*
X150182795Y-127110000D01*
X150080016Y-127099500D01*
X150080009Y-127099500D01*
X149424362Y-127099500D01*
X149357323Y-127079815D01*
X149336681Y-127063181D01*
X145336818Y-123063318D01*
X145303333Y-123001995D01*
X145300499Y-122975637D01*
X145300499Y-122399998D01*
X145300498Y-122399981D01*
X145289999Y-122297203D01*
X145289998Y-122297200D01*
X145234814Y-122130666D01*
X145142712Y-121981344D01*
X145018656Y-121857288D01*
X145018655Y-121857287D01*
X144959402Y-121820739D01*
X144912678Y-121768791D01*
X144900500Y-121715201D01*
X144900500Y-114723362D01*
X144920185Y-114656323D01*
X144972989Y-114610568D01*
X145042147Y-114600624D01*
X145105703Y-114629649D01*
G37*
%TD.AperFunction*%
M02*
