%TF.GenerationSoftware,KiCad,Pcbnew,9.0.5*%
%TF.CreationDate,2025-10-21T22:54:45-03:00*%
%TF.ProjectId,buck_bidireccional,6275636b-5f62-4696-9469-72656363696f,rev?*%
%TF.SameCoordinates,Original*%
%TF.FileFunction,Legend,Top*%
%TF.FilePolarity,Positive*%
%FSLAX46Y46*%
G04 Gerber Fmt 4.6, Leading zero omitted, Abs format (unit mm)*
G04 Created by KiCad (PCBNEW 9.0.5) date 2025-10-21 22:54:45*
%MOMM*%
%LPD*%
G01*
G04 APERTURE LIST*
%ADD10C,0.100000*%
%ADD11C,0.200000*%
%ADD12C,0.150000*%
%ADD13C,0.120000*%
G04 APERTURE END LIST*
D10*
X174250000Y-134750000D02*
X173750000Y-134750000D01*
X181000000Y-118250000D02*
G75*
G02*
X173367832Y-118250000I-3816084J0D01*
G01*
X173367832Y-118250000D02*
G75*
G02*
X181000000Y-118250000I3816084J0D01*
G01*
X108500000Y-115750000D02*
X108500000Y-115250000D01*
X108500000Y-106625000D02*
X108500000Y-108375000D01*
X108500000Y-114750000D02*
X107750000Y-115250000D01*
X173750000Y-134000000D02*
X173750000Y-134750000D01*
X167250000Y-133875000D02*
X167250000Y-135625000D01*
X174500000Y-115500000D02*
X176250000Y-114433916D01*
X178000000Y-114500000D02*
X180000000Y-113500000D01*
X107750000Y-115250000D02*
X108500000Y-115750000D01*
X174500000Y-114000000D02*
X174750000Y-115250000D01*
X107625000Y-107500000D02*
X109375000Y-107500000D01*
X107180000Y-126295000D02*
X108930000Y-126295000D01*
X108055000Y-125420000D02*
X108055000Y-127170000D01*
X178500000Y-114750000D02*
X179750000Y-114000000D01*
X176500000Y-119000000D02*
X177500000Y-119000000D01*
X179651388Y-117250000D02*
G75*
G02*
X177848612Y-117250000I-901388J0D01*
G01*
X177848612Y-117250000D02*
G75*
G02*
X179651388Y-117250000I901388J0D01*
G01*
X176250000Y-114433916D02*
X174250000Y-113500000D01*
X174250000Y-113500000D02*
X174500000Y-115500000D01*
X177853553Y-120103553D02*
G75*
G02*
X177000001Y-119750000I-353553J353553D01*
G01*
X108055000Y-132045000D02*
X107305000Y-132545000D01*
X108055000Y-133045000D02*
X108055000Y-132545000D01*
X174750000Y-115250000D02*
X175750000Y-114750000D01*
X175750000Y-114750000D02*
X174500000Y-114000000D01*
X173750000Y-135500000D02*
X174250000Y-134750000D01*
X178750000Y-114750000D02*
X178500000Y-114750000D01*
X176401388Y-117250000D02*
G75*
G02*
X174598612Y-117250000I-901388J0D01*
G01*
X174598612Y-117250000D02*
G75*
G02*
X176401388Y-117250000I901388J0D01*
G01*
X108805000Y-132545000D02*
X108055000Y-132545000D01*
X180000000Y-113500000D02*
X180000000Y-115750000D01*
X109250000Y-115250000D02*
X108500000Y-115250000D01*
X108500000Y-115250000D02*
X108500000Y-114750000D01*
X166375000Y-134750000D02*
X168125000Y-134750000D01*
X179750000Y-114000000D02*
X179750000Y-115250000D01*
X173250000Y-134750000D02*
X173750000Y-135500000D01*
X173750000Y-134750000D02*
X173250000Y-134750000D01*
X177500000Y-119000000D02*
X177000000Y-119750000D01*
X176059017Y-117250000D02*
G75*
G02*
X174940983Y-117250000I-559017J0D01*
G01*
X174940983Y-117250000D02*
G75*
G02*
X176059017Y-117250000I559017J0D01*
G01*
X177000000Y-119750000D02*
X176500000Y-119000000D01*
X108055000Y-132545000D02*
X108055000Y-132045000D01*
X177000000Y-119750000D02*
G75*
G02*
X176146447Y-120103553I-500000J0D01*
G01*
X107305000Y-132545000D02*
X108055000Y-133045000D01*
X179250000Y-117250000D02*
G75*
G02*
X178250000Y-117250000I-500000J0D01*
G01*
X178250000Y-117250000D02*
G75*
G02*
X179250000Y-117250000I500000J0D01*
G01*
X179750000Y-115250000D02*
X178750000Y-114750000D01*
D11*
X157856517Y-93335161D02*
X157951755Y-93382780D01*
X157951755Y-93382780D02*
X158094612Y-93382780D01*
X158094612Y-93382780D02*
X158237469Y-93335161D01*
X158237469Y-93335161D02*
X158332707Y-93239923D01*
X158332707Y-93239923D02*
X158380326Y-93144685D01*
X158380326Y-93144685D02*
X158427945Y-92954209D01*
X158427945Y-92954209D02*
X158427945Y-92811352D01*
X158427945Y-92811352D02*
X158380326Y-92620876D01*
X158380326Y-92620876D02*
X158332707Y-92525638D01*
X158332707Y-92525638D02*
X158237469Y-92430400D01*
X158237469Y-92430400D02*
X158094612Y-92382780D01*
X158094612Y-92382780D02*
X157999374Y-92382780D01*
X157999374Y-92382780D02*
X157856517Y-92430400D01*
X157856517Y-92430400D02*
X157808898Y-92478019D01*
X157808898Y-92478019D02*
X157808898Y-92811352D01*
X157808898Y-92811352D02*
X157999374Y-92811352D01*
X156856517Y-92382780D02*
X157427945Y-92382780D01*
X157142231Y-92382780D02*
X157142231Y-93382780D01*
X157142231Y-93382780D02*
X157237469Y-93239923D01*
X157237469Y-93239923D02*
X157332707Y-93144685D01*
X157332707Y-93144685D02*
X157427945Y-93097066D01*
X125273183Y-97242724D02*
X124939850Y-96242724D01*
X124939850Y-96242724D02*
X124606517Y-97242724D01*
X123844612Y-96909391D02*
X123844612Y-96099867D01*
X123844612Y-96099867D02*
X123892231Y-96004629D01*
X123892231Y-96004629D02*
X123939850Y-95957010D01*
X123939850Y-95957010D02*
X124035088Y-95909391D01*
X124035088Y-95909391D02*
X124177945Y-95909391D01*
X124177945Y-95909391D02*
X124273183Y-95957010D01*
X123844612Y-96290344D02*
X123939850Y-96242724D01*
X123939850Y-96242724D02*
X124130326Y-96242724D01*
X124130326Y-96242724D02*
X124225564Y-96290344D01*
X124225564Y-96290344D02*
X124273183Y-96337963D01*
X124273183Y-96337963D02*
X124320802Y-96433201D01*
X124320802Y-96433201D02*
X124320802Y-96718915D01*
X124320802Y-96718915D02*
X124273183Y-96814153D01*
X124273183Y-96814153D02*
X124225564Y-96861772D01*
X124225564Y-96861772D02*
X124130326Y-96909391D01*
X124130326Y-96909391D02*
X123939850Y-96909391D01*
X123939850Y-96909391D02*
X123844612Y-96861772D01*
X123416040Y-96290344D02*
X123320802Y-96242724D01*
X123320802Y-96242724D02*
X123130326Y-96242724D01*
X123130326Y-96242724D02*
X123035088Y-96290344D01*
X123035088Y-96290344D02*
X122987469Y-96385582D01*
X122987469Y-96385582D02*
X122987469Y-96433201D01*
X122987469Y-96433201D02*
X123035088Y-96528439D01*
X123035088Y-96528439D02*
X123130326Y-96576058D01*
X123130326Y-96576058D02*
X123273183Y-96576058D01*
X123273183Y-96576058D02*
X123368421Y-96623677D01*
X123368421Y-96623677D02*
X123416040Y-96718915D01*
X123416040Y-96718915D02*
X123416040Y-96766534D01*
X123416040Y-96766534D02*
X123368421Y-96861772D01*
X123368421Y-96861772D02*
X123273183Y-96909391D01*
X123273183Y-96909391D02*
X123130326Y-96909391D01*
X123130326Y-96909391D02*
X123035088Y-96861772D01*
X124463660Y-94537542D02*
X124558898Y-94585161D01*
X124558898Y-94585161D02*
X124654136Y-94680400D01*
X124654136Y-94680400D02*
X124796993Y-94823257D01*
X124796993Y-94823257D02*
X124892231Y-94870876D01*
X124892231Y-94870876D02*
X124987469Y-94870876D01*
X124939850Y-94632780D02*
X125035088Y-94680400D01*
X125035088Y-94680400D02*
X125130326Y-94775638D01*
X125130326Y-94775638D02*
X125177945Y-94966114D01*
X125177945Y-94966114D02*
X125177945Y-95299447D01*
X125177945Y-95299447D02*
X125130326Y-95489923D01*
X125130326Y-95489923D02*
X125035088Y-95585161D01*
X125035088Y-95585161D02*
X124939850Y-95632780D01*
X124939850Y-95632780D02*
X124749374Y-95632780D01*
X124749374Y-95632780D02*
X124654136Y-95585161D01*
X124654136Y-95585161D02*
X124558898Y-95489923D01*
X124558898Y-95489923D02*
X124511279Y-95299447D01*
X124511279Y-95299447D02*
X124511279Y-94966114D01*
X124511279Y-94966114D02*
X124558898Y-94775638D01*
X124558898Y-94775638D02*
X124654136Y-94680400D01*
X124654136Y-94680400D02*
X124749374Y-94632780D01*
X124749374Y-94632780D02*
X124939850Y-94632780D01*
X123558898Y-94632780D02*
X124130326Y-94632780D01*
X123844612Y-94632780D02*
X123844612Y-95632780D01*
X123844612Y-95632780D02*
X123939850Y-95489923D01*
X123939850Y-95489923D02*
X124035088Y-95394685D01*
X124035088Y-95394685D02*
X124130326Y-95347066D01*
X174856517Y-94085161D02*
X174951755Y-94132780D01*
X174951755Y-94132780D02*
X175094612Y-94132780D01*
X175094612Y-94132780D02*
X175237469Y-94085161D01*
X175237469Y-94085161D02*
X175332707Y-93989923D01*
X175332707Y-93989923D02*
X175380326Y-93894685D01*
X175380326Y-93894685D02*
X175427945Y-93704209D01*
X175427945Y-93704209D02*
X175427945Y-93561352D01*
X175427945Y-93561352D02*
X175380326Y-93370876D01*
X175380326Y-93370876D02*
X175332707Y-93275638D01*
X175332707Y-93275638D02*
X175237469Y-93180400D01*
X175237469Y-93180400D02*
X175094612Y-93132780D01*
X175094612Y-93132780D02*
X174999374Y-93132780D01*
X174999374Y-93132780D02*
X174856517Y-93180400D01*
X174856517Y-93180400D02*
X174808898Y-93228019D01*
X174808898Y-93228019D02*
X174808898Y-93561352D01*
X174808898Y-93561352D02*
X174999374Y-93561352D01*
X174427945Y-94037542D02*
X174380326Y-94085161D01*
X174380326Y-94085161D02*
X174285088Y-94132780D01*
X174285088Y-94132780D02*
X174046993Y-94132780D01*
X174046993Y-94132780D02*
X173951755Y-94085161D01*
X173951755Y-94085161D02*
X173904136Y-94037542D01*
X173904136Y-94037542D02*
X173856517Y-93942304D01*
X173856517Y-93942304D02*
X173856517Y-93847066D01*
X173856517Y-93847066D02*
X173904136Y-93704209D01*
X173904136Y-93704209D02*
X174475564Y-93132780D01*
X174475564Y-93132780D02*
X173856517Y-93132780D01*
X123126478Y-116203006D02*
X123078859Y-116345863D01*
X123078859Y-116345863D02*
X123031240Y-116393482D01*
X123031240Y-116393482D02*
X122936002Y-116441101D01*
X122936002Y-116441101D02*
X122793145Y-116441101D01*
X122793145Y-116441101D02*
X122697907Y-116393482D01*
X122697907Y-116393482D02*
X122650288Y-116345863D01*
X122650288Y-116345863D02*
X122602668Y-116250625D01*
X122602668Y-116250625D02*
X122602668Y-115869673D01*
X122602668Y-115869673D02*
X123602668Y-115869673D01*
X123602668Y-115869673D02*
X123602668Y-116203006D01*
X123602668Y-116203006D02*
X123555049Y-116298244D01*
X123555049Y-116298244D02*
X123507430Y-116345863D01*
X123507430Y-116345863D02*
X123412192Y-116393482D01*
X123412192Y-116393482D02*
X123316954Y-116393482D01*
X123316954Y-116393482D02*
X123221716Y-116345863D01*
X123221716Y-116345863D02*
X123174097Y-116298244D01*
X123174097Y-116298244D02*
X123126478Y-116203006D01*
X123126478Y-116203006D02*
X123126478Y-115869673D01*
X123269335Y-117298244D02*
X122602668Y-117298244D01*
X123269335Y-116869673D02*
X122745526Y-116869673D01*
X122745526Y-116869673D02*
X122650288Y-116917292D01*
X122650288Y-116917292D02*
X122602668Y-117012530D01*
X122602668Y-117012530D02*
X122602668Y-117155387D01*
X122602668Y-117155387D02*
X122650288Y-117250625D01*
X122650288Y-117250625D02*
X122697907Y-117298244D01*
X122650288Y-118203006D02*
X122602668Y-118107768D01*
X122602668Y-118107768D02*
X122602668Y-117917292D01*
X122602668Y-117917292D02*
X122650288Y-117822054D01*
X122650288Y-117822054D02*
X122697907Y-117774435D01*
X122697907Y-117774435D02*
X122793145Y-117726816D01*
X122793145Y-117726816D02*
X123078859Y-117726816D01*
X123078859Y-117726816D02*
X123174097Y-117774435D01*
X123174097Y-117774435D02*
X123221716Y-117822054D01*
X123221716Y-117822054D02*
X123269335Y-117917292D01*
X123269335Y-117917292D02*
X123269335Y-118107768D01*
X123269335Y-118107768D02*
X123221716Y-118203006D01*
X122602668Y-118631578D02*
X123602668Y-118631578D01*
X122983621Y-118726816D02*
X122602668Y-119012530D01*
X123269335Y-119012530D02*
X122888383Y-118631578D01*
X120992724Y-115869673D02*
X121659391Y-115869673D01*
X121992724Y-115869673D02*
X121945105Y-115822054D01*
X121945105Y-115822054D02*
X121897486Y-115869673D01*
X121897486Y-115869673D02*
X121945105Y-115917292D01*
X121945105Y-115917292D02*
X121992724Y-115869673D01*
X121992724Y-115869673D02*
X121897486Y-115869673D01*
X121659391Y-116345863D02*
X120992724Y-116345863D01*
X121564153Y-116345863D02*
X121611772Y-116393482D01*
X121611772Y-116393482D02*
X121659391Y-116488720D01*
X121659391Y-116488720D02*
X121659391Y-116631577D01*
X121659391Y-116631577D02*
X121611772Y-116726815D01*
X121611772Y-116726815D02*
X121516534Y-116774434D01*
X121516534Y-116774434D02*
X120992724Y-116774434D01*
X121659391Y-117250625D02*
X120659391Y-117250625D01*
X121611772Y-117250625D02*
X121659391Y-117345863D01*
X121659391Y-117345863D02*
X121659391Y-117536339D01*
X121659391Y-117536339D02*
X121611772Y-117631577D01*
X121611772Y-117631577D02*
X121564153Y-117679196D01*
X121564153Y-117679196D02*
X121468915Y-117726815D01*
X121468915Y-117726815D02*
X121183201Y-117726815D01*
X121183201Y-117726815D02*
X121087963Y-117679196D01*
X121087963Y-117679196D02*
X121040344Y-117631577D01*
X121040344Y-117631577D02*
X120992724Y-117536339D01*
X120992724Y-117536339D02*
X120992724Y-117345863D01*
X120992724Y-117345863D02*
X121040344Y-117250625D01*
X121659391Y-118583958D02*
X120992724Y-118583958D01*
X121659391Y-118155387D02*
X121135582Y-118155387D01*
X121135582Y-118155387D02*
X121040344Y-118203006D01*
X121040344Y-118203006D02*
X120992724Y-118298244D01*
X120992724Y-118298244D02*
X120992724Y-118441101D01*
X120992724Y-118441101D02*
X121040344Y-118536339D01*
X121040344Y-118536339D02*
X121087963Y-118583958D01*
X121659391Y-118917292D02*
X121659391Y-119298244D01*
X121992724Y-119060149D02*
X121135582Y-119060149D01*
X121135582Y-119060149D02*
X121040344Y-119107768D01*
X121040344Y-119107768D02*
X120992724Y-119203006D01*
X120992724Y-119203006D02*
X120992724Y-119298244D01*
D12*
X149045180Y-100488095D02*
X150045180Y-100488095D01*
X149045180Y-101059523D02*
X149616609Y-100630952D01*
X150045180Y-101059523D02*
X149473752Y-100488095D01*
D11*
X177257275Y-100023183D02*
X178257275Y-99689850D01*
X178257275Y-99689850D02*
X177257275Y-99356517D01*
X177590608Y-98594612D02*
X178400132Y-98594612D01*
X178400132Y-98594612D02*
X178495370Y-98642231D01*
X178495370Y-98642231D02*
X178542989Y-98689850D01*
X178542989Y-98689850D02*
X178590608Y-98785088D01*
X178590608Y-98785088D02*
X178590608Y-98927945D01*
X178590608Y-98927945D02*
X178542989Y-99023183D01*
X178209656Y-98594612D02*
X178257275Y-98689850D01*
X178257275Y-98689850D02*
X178257275Y-98880326D01*
X178257275Y-98880326D02*
X178209656Y-98975564D01*
X178209656Y-98975564D02*
X178162036Y-99023183D01*
X178162036Y-99023183D02*
X178066798Y-99070802D01*
X178066798Y-99070802D02*
X177781084Y-99070802D01*
X177781084Y-99070802D02*
X177685846Y-99023183D01*
X177685846Y-99023183D02*
X177638227Y-98975564D01*
X177638227Y-98975564D02*
X177590608Y-98880326D01*
X177590608Y-98880326D02*
X177590608Y-98689850D01*
X177590608Y-98689850D02*
X177638227Y-98594612D01*
X178209656Y-98166040D02*
X178257275Y-98070802D01*
X178257275Y-98070802D02*
X178257275Y-97880326D01*
X178257275Y-97880326D02*
X178209656Y-97785088D01*
X178209656Y-97785088D02*
X178114417Y-97737469D01*
X178114417Y-97737469D02*
X178066798Y-97737469D01*
X178066798Y-97737469D02*
X177971560Y-97785088D01*
X177971560Y-97785088D02*
X177923941Y-97880326D01*
X177923941Y-97880326D02*
X177923941Y-98023183D01*
X177923941Y-98023183D02*
X177876322Y-98118421D01*
X177876322Y-98118421D02*
X177781084Y-98166040D01*
X177781084Y-98166040D02*
X177733465Y-98166040D01*
X177733465Y-98166040D02*
X177638227Y-98118421D01*
X177638227Y-98118421D02*
X177590608Y-98023183D01*
X177590608Y-98023183D02*
X177590608Y-97880326D01*
X177590608Y-97880326D02*
X177638227Y-97785088D01*
X179962457Y-99213660D02*
X179914838Y-99308898D01*
X179914838Y-99308898D02*
X179819600Y-99404136D01*
X179819600Y-99404136D02*
X179676742Y-99546993D01*
X179676742Y-99546993D02*
X179629123Y-99642231D01*
X179629123Y-99642231D02*
X179629123Y-99737469D01*
X179867219Y-99689850D02*
X179819600Y-99785088D01*
X179819600Y-99785088D02*
X179724361Y-99880326D01*
X179724361Y-99880326D02*
X179533885Y-99927945D01*
X179533885Y-99927945D02*
X179200552Y-99927945D01*
X179200552Y-99927945D02*
X179010076Y-99880326D01*
X179010076Y-99880326D02*
X178914838Y-99785088D01*
X178914838Y-99785088D02*
X178867219Y-99689850D01*
X178867219Y-99689850D02*
X178867219Y-99499374D01*
X178867219Y-99499374D02*
X178914838Y-99404136D01*
X178914838Y-99404136D02*
X179010076Y-99308898D01*
X179010076Y-99308898D02*
X179200552Y-99261279D01*
X179200552Y-99261279D02*
X179533885Y-99261279D01*
X179533885Y-99261279D02*
X179724361Y-99308898D01*
X179724361Y-99308898D02*
X179819600Y-99404136D01*
X179819600Y-99404136D02*
X179867219Y-99499374D01*
X179867219Y-99499374D02*
X179867219Y-99689850D01*
X178962457Y-98880326D02*
X178914838Y-98832707D01*
X178914838Y-98832707D02*
X178867219Y-98737469D01*
X178867219Y-98737469D02*
X178867219Y-98499374D01*
X178867219Y-98499374D02*
X178914838Y-98404136D01*
X178914838Y-98404136D02*
X178962457Y-98356517D01*
X178962457Y-98356517D02*
X179057695Y-98308898D01*
X179057695Y-98308898D02*
X179152933Y-98308898D01*
X179152933Y-98308898D02*
X179295790Y-98356517D01*
X179295790Y-98356517D02*
X179867219Y-98927945D01*
X179867219Y-98927945D02*
X179867219Y-98308898D01*
X178867219Y-111130326D02*
X177867219Y-111130326D01*
X177867219Y-111130326D02*
X177867219Y-110749374D01*
X177867219Y-110749374D02*
X177914838Y-110654136D01*
X177914838Y-110654136D02*
X177962457Y-110606517D01*
X177962457Y-110606517D02*
X178057695Y-110558898D01*
X178057695Y-110558898D02*
X178200552Y-110558898D01*
X178200552Y-110558898D02*
X178295790Y-110606517D01*
X178295790Y-110606517D02*
X178343409Y-110654136D01*
X178343409Y-110654136D02*
X178391028Y-110749374D01*
X178391028Y-110749374D02*
X178391028Y-111130326D01*
X177867219Y-110225564D02*
X178867219Y-109987469D01*
X178867219Y-109987469D02*
X178152933Y-109796993D01*
X178152933Y-109796993D02*
X178867219Y-109606517D01*
X178867219Y-109606517D02*
X177867219Y-109368422D01*
X178867219Y-108987469D02*
X177867219Y-108987469D01*
X177867219Y-108987469D02*
X178581504Y-108654136D01*
X178581504Y-108654136D02*
X177867219Y-108320803D01*
X177867219Y-108320803D02*
X178867219Y-108320803D01*
X123126478Y-132703006D02*
X123078859Y-132845863D01*
X123078859Y-132845863D02*
X123031240Y-132893482D01*
X123031240Y-132893482D02*
X122936002Y-132941101D01*
X122936002Y-132941101D02*
X122793145Y-132941101D01*
X122793145Y-132941101D02*
X122697907Y-132893482D01*
X122697907Y-132893482D02*
X122650288Y-132845863D01*
X122650288Y-132845863D02*
X122602668Y-132750625D01*
X122602668Y-132750625D02*
X122602668Y-132369673D01*
X122602668Y-132369673D02*
X123602668Y-132369673D01*
X123602668Y-132369673D02*
X123602668Y-132703006D01*
X123602668Y-132703006D02*
X123555049Y-132798244D01*
X123555049Y-132798244D02*
X123507430Y-132845863D01*
X123507430Y-132845863D02*
X123412192Y-132893482D01*
X123412192Y-132893482D02*
X123316954Y-132893482D01*
X123316954Y-132893482D02*
X123221716Y-132845863D01*
X123221716Y-132845863D02*
X123174097Y-132798244D01*
X123174097Y-132798244D02*
X123126478Y-132703006D01*
X123126478Y-132703006D02*
X123126478Y-132369673D01*
X122602668Y-133512530D02*
X122650288Y-133417292D01*
X122650288Y-133417292D02*
X122697907Y-133369673D01*
X122697907Y-133369673D02*
X122793145Y-133322054D01*
X122793145Y-133322054D02*
X123078859Y-133322054D01*
X123078859Y-133322054D02*
X123174097Y-133369673D01*
X123174097Y-133369673D02*
X123221716Y-133417292D01*
X123221716Y-133417292D02*
X123269335Y-133512530D01*
X123269335Y-133512530D02*
X123269335Y-133655387D01*
X123269335Y-133655387D02*
X123221716Y-133750625D01*
X123221716Y-133750625D02*
X123174097Y-133798244D01*
X123174097Y-133798244D02*
X123078859Y-133845863D01*
X123078859Y-133845863D02*
X122793145Y-133845863D01*
X122793145Y-133845863D02*
X122697907Y-133798244D01*
X122697907Y-133798244D02*
X122650288Y-133750625D01*
X122650288Y-133750625D02*
X122602668Y-133655387D01*
X122602668Y-133655387D02*
X122602668Y-133512530D01*
X122602668Y-134417292D02*
X122650288Y-134322054D01*
X122650288Y-134322054D02*
X122697907Y-134274435D01*
X122697907Y-134274435D02*
X122793145Y-134226816D01*
X122793145Y-134226816D02*
X123078859Y-134226816D01*
X123078859Y-134226816D02*
X123174097Y-134274435D01*
X123174097Y-134274435D02*
X123221716Y-134322054D01*
X123221716Y-134322054D02*
X123269335Y-134417292D01*
X123269335Y-134417292D02*
X123269335Y-134560149D01*
X123269335Y-134560149D02*
X123221716Y-134655387D01*
X123221716Y-134655387D02*
X123174097Y-134703006D01*
X123174097Y-134703006D02*
X123078859Y-134750625D01*
X123078859Y-134750625D02*
X122793145Y-134750625D01*
X122793145Y-134750625D02*
X122697907Y-134703006D01*
X122697907Y-134703006D02*
X122650288Y-134655387D01*
X122650288Y-134655387D02*
X122602668Y-134560149D01*
X122602668Y-134560149D02*
X122602668Y-134417292D01*
X122650288Y-135131578D02*
X122602668Y-135226816D01*
X122602668Y-135226816D02*
X122602668Y-135417292D01*
X122602668Y-135417292D02*
X122650288Y-135512530D01*
X122650288Y-135512530D02*
X122745526Y-135560149D01*
X122745526Y-135560149D02*
X122793145Y-135560149D01*
X122793145Y-135560149D02*
X122888383Y-135512530D01*
X122888383Y-135512530D02*
X122936002Y-135417292D01*
X122936002Y-135417292D02*
X122936002Y-135274435D01*
X122936002Y-135274435D02*
X122983621Y-135179197D01*
X122983621Y-135179197D02*
X123078859Y-135131578D01*
X123078859Y-135131578D02*
X123126478Y-135131578D01*
X123126478Y-135131578D02*
X123221716Y-135179197D01*
X123221716Y-135179197D02*
X123269335Y-135274435D01*
X123269335Y-135274435D02*
X123269335Y-135417292D01*
X123269335Y-135417292D02*
X123221716Y-135512530D01*
X123269335Y-135845864D02*
X123269335Y-136226816D01*
X123602668Y-135988721D02*
X122745526Y-135988721D01*
X122745526Y-135988721D02*
X122650288Y-136036340D01*
X122650288Y-136036340D02*
X122602668Y-136131578D01*
X122602668Y-136131578D02*
X122602668Y-136226816D01*
X120992724Y-132369673D02*
X121659391Y-132369673D01*
X121992724Y-132369673D02*
X121945105Y-132322054D01*
X121945105Y-132322054D02*
X121897486Y-132369673D01*
X121897486Y-132369673D02*
X121945105Y-132417292D01*
X121945105Y-132417292D02*
X121992724Y-132369673D01*
X121992724Y-132369673D02*
X121897486Y-132369673D01*
X121659391Y-132845863D02*
X120992724Y-132845863D01*
X121564153Y-132845863D02*
X121611772Y-132893482D01*
X121611772Y-132893482D02*
X121659391Y-132988720D01*
X121659391Y-132988720D02*
X121659391Y-133131577D01*
X121659391Y-133131577D02*
X121611772Y-133226815D01*
X121611772Y-133226815D02*
X121516534Y-133274434D01*
X121516534Y-133274434D02*
X120992724Y-133274434D01*
X121659391Y-133750625D02*
X120659391Y-133750625D01*
X121611772Y-133750625D02*
X121659391Y-133845863D01*
X121659391Y-133845863D02*
X121659391Y-134036339D01*
X121659391Y-134036339D02*
X121611772Y-134131577D01*
X121611772Y-134131577D02*
X121564153Y-134179196D01*
X121564153Y-134179196D02*
X121468915Y-134226815D01*
X121468915Y-134226815D02*
X121183201Y-134226815D01*
X121183201Y-134226815D02*
X121087963Y-134179196D01*
X121087963Y-134179196D02*
X121040344Y-134131577D01*
X121040344Y-134131577D02*
X120992724Y-134036339D01*
X120992724Y-134036339D02*
X120992724Y-133845863D01*
X120992724Y-133845863D02*
X121040344Y-133750625D01*
X121659391Y-135083958D02*
X120992724Y-135083958D01*
X121659391Y-134655387D02*
X121135582Y-134655387D01*
X121135582Y-134655387D02*
X121040344Y-134703006D01*
X121040344Y-134703006D02*
X120992724Y-134798244D01*
X120992724Y-134798244D02*
X120992724Y-134941101D01*
X120992724Y-134941101D02*
X121040344Y-135036339D01*
X121040344Y-135036339D02*
X121087963Y-135083958D01*
X121659391Y-135417292D02*
X121659391Y-135798244D01*
X121992724Y-135560149D02*
X121135582Y-135560149D01*
X121135582Y-135560149D02*
X121040344Y-135607768D01*
X121040344Y-135607768D02*
X120992724Y-135703006D01*
X120992724Y-135703006D02*
X120992724Y-135798244D01*
X177476816Y-128117219D02*
X177810149Y-129117219D01*
X177810149Y-129117219D02*
X178143482Y-128117219D01*
X178905387Y-129069600D02*
X178810149Y-129117219D01*
X178810149Y-129117219D02*
X178619673Y-129117219D01*
X178619673Y-129117219D02*
X178524435Y-129069600D01*
X178524435Y-129069600D02*
X178476816Y-129021980D01*
X178476816Y-129021980D02*
X178429197Y-128926742D01*
X178429197Y-128926742D02*
X178429197Y-128641028D01*
X178429197Y-128641028D02*
X178476816Y-128545790D01*
X178476816Y-128545790D02*
X178524435Y-128498171D01*
X178524435Y-128498171D02*
X178619673Y-128450552D01*
X178619673Y-128450552D02*
X178810149Y-128450552D01*
X178810149Y-128450552D02*
X178905387Y-128498171D01*
X179762530Y-129069600D02*
X179667292Y-129117219D01*
X179667292Y-129117219D02*
X179476816Y-129117219D01*
X179476816Y-129117219D02*
X179381578Y-129069600D01*
X179381578Y-129069600D02*
X179333959Y-129021980D01*
X179333959Y-129021980D02*
X179286340Y-128926742D01*
X179286340Y-128926742D02*
X179286340Y-128641028D01*
X179286340Y-128641028D02*
X179333959Y-128545790D01*
X179333959Y-128545790D02*
X179381578Y-128498171D01*
X179381578Y-128498171D02*
X179476816Y-128450552D01*
X179476816Y-128450552D02*
X179667292Y-128450552D01*
X179667292Y-128450552D02*
X179762530Y-128498171D01*
X126869673Y-136367219D02*
X126869673Y-135367219D01*
X127822053Y-136367219D02*
X127345863Y-136367219D01*
X127345863Y-136367219D02*
X127345863Y-135367219D01*
X133726816Y-135867219D02*
X134060149Y-136867219D01*
X134060149Y-136867219D02*
X134393482Y-135867219D01*
X135203006Y-136867219D02*
X134726816Y-136867219D01*
X134726816Y-136867219D02*
X134726816Y-135867219D01*
X110319600Y-102177945D02*
X110367219Y-102035088D01*
X110367219Y-102035088D02*
X110367219Y-101796993D01*
X110367219Y-101796993D02*
X110319600Y-101701755D01*
X110319600Y-101701755D02*
X110271980Y-101654136D01*
X110271980Y-101654136D02*
X110176742Y-101606517D01*
X110176742Y-101606517D02*
X110081504Y-101606517D01*
X110081504Y-101606517D02*
X109986266Y-101654136D01*
X109986266Y-101654136D02*
X109938647Y-101701755D01*
X109938647Y-101701755D02*
X109891028Y-101796993D01*
X109891028Y-101796993D02*
X109843409Y-101987469D01*
X109843409Y-101987469D02*
X109795790Y-102082707D01*
X109795790Y-102082707D02*
X109748171Y-102130326D01*
X109748171Y-102130326D02*
X109652933Y-102177945D01*
X109652933Y-102177945D02*
X109557695Y-102177945D01*
X109557695Y-102177945D02*
X109462457Y-102130326D01*
X109462457Y-102130326D02*
X109414838Y-102082707D01*
X109414838Y-102082707D02*
X109367219Y-101987469D01*
X109367219Y-101987469D02*
X109367219Y-101749374D01*
X109367219Y-101749374D02*
X109414838Y-101606517D01*
X110462457Y-100511279D02*
X110414838Y-100606517D01*
X110414838Y-100606517D02*
X110319600Y-100701755D01*
X110319600Y-100701755D02*
X110176742Y-100844612D01*
X110176742Y-100844612D02*
X110129123Y-100939850D01*
X110129123Y-100939850D02*
X110129123Y-101035088D01*
X110367219Y-100987469D02*
X110319600Y-101082707D01*
X110319600Y-101082707D02*
X110224361Y-101177945D01*
X110224361Y-101177945D02*
X110033885Y-101225564D01*
X110033885Y-101225564D02*
X109700552Y-101225564D01*
X109700552Y-101225564D02*
X109510076Y-101177945D01*
X109510076Y-101177945D02*
X109414838Y-101082707D01*
X109414838Y-101082707D02*
X109367219Y-100987469D01*
X109367219Y-100987469D02*
X109367219Y-100796993D01*
X109367219Y-100796993D02*
X109414838Y-100701755D01*
X109414838Y-100701755D02*
X109510076Y-100606517D01*
X109510076Y-100606517D02*
X109700552Y-100558898D01*
X109700552Y-100558898D02*
X110033885Y-100558898D01*
X110033885Y-100558898D02*
X110224361Y-100606517D01*
X110224361Y-100606517D02*
X110319600Y-100701755D01*
X110319600Y-100701755D02*
X110367219Y-100796993D01*
X110367219Y-100796993D02*
X110367219Y-100987469D01*
X110367219Y-99606517D02*
X110367219Y-100177945D01*
X110367219Y-99892231D02*
X109367219Y-99892231D01*
X109367219Y-99892231D02*
X109510076Y-99987469D01*
X109510076Y-99987469D02*
X109605314Y-100082707D01*
X109605314Y-100082707D02*
X109652933Y-100177945D01*
X137869673Y-136617219D02*
X137869673Y-135617219D01*
X137869673Y-135617219D02*
X138107768Y-135617219D01*
X138107768Y-135617219D02*
X138250625Y-135664838D01*
X138250625Y-135664838D02*
X138345863Y-135760076D01*
X138345863Y-135760076D02*
X138393482Y-135855314D01*
X138393482Y-135855314D02*
X138441101Y-136045790D01*
X138441101Y-136045790D02*
X138441101Y-136188647D01*
X138441101Y-136188647D02*
X138393482Y-136379123D01*
X138393482Y-136379123D02*
X138345863Y-136474361D01*
X138345863Y-136474361D02*
X138250625Y-136569600D01*
X138250625Y-136569600D02*
X138107768Y-136617219D01*
X138107768Y-136617219D02*
X137869673Y-136617219D01*
X139536339Y-136712457D02*
X139441101Y-136664838D01*
X139441101Y-136664838D02*
X139345863Y-136569600D01*
X139345863Y-136569600D02*
X139203006Y-136426742D01*
X139203006Y-136426742D02*
X139107768Y-136379123D01*
X139107768Y-136379123D02*
X139012530Y-136379123D01*
X139060149Y-136617219D02*
X138964911Y-136569600D01*
X138964911Y-136569600D02*
X138869673Y-136474361D01*
X138869673Y-136474361D02*
X138822054Y-136283885D01*
X138822054Y-136283885D02*
X138822054Y-135950552D01*
X138822054Y-135950552D02*
X138869673Y-135760076D01*
X138869673Y-135760076D02*
X138964911Y-135664838D01*
X138964911Y-135664838D02*
X139060149Y-135617219D01*
X139060149Y-135617219D02*
X139250625Y-135617219D01*
X139250625Y-135617219D02*
X139345863Y-135664838D01*
X139345863Y-135664838D02*
X139441101Y-135760076D01*
X139441101Y-135760076D02*
X139488720Y-135950552D01*
X139488720Y-135950552D02*
X139488720Y-136283885D01*
X139488720Y-136283885D02*
X139441101Y-136474361D01*
X139441101Y-136474361D02*
X139345863Y-136569600D01*
X139345863Y-136569600D02*
X139250625Y-136617219D01*
X139250625Y-136617219D02*
X139060149Y-136617219D01*
X139869673Y-135712457D02*
X139917292Y-135664838D01*
X139917292Y-135664838D02*
X140012530Y-135617219D01*
X140012530Y-135617219D02*
X140250625Y-135617219D01*
X140250625Y-135617219D02*
X140345863Y-135664838D01*
X140345863Y-135664838D02*
X140393482Y-135712457D01*
X140393482Y-135712457D02*
X140441101Y-135807695D01*
X140441101Y-135807695D02*
X140441101Y-135902933D01*
X140441101Y-135902933D02*
X140393482Y-136045790D01*
X140393482Y-136045790D02*
X139822054Y-136617219D01*
X139822054Y-136617219D02*
X140441101Y-136617219D01*
D12*
X128109580Y-111416666D02*
X128157200Y-111464285D01*
X128157200Y-111464285D02*
X128204819Y-111607142D01*
X128204819Y-111607142D02*
X128204819Y-111702380D01*
X128204819Y-111702380D02*
X128157200Y-111845237D01*
X128157200Y-111845237D02*
X128061961Y-111940475D01*
X128061961Y-111940475D02*
X127966723Y-111988094D01*
X127966723Y-111988094D02*
X127776247Y-112035713D01*
X127776247Y-112035713D02*
X127633390Y-112035713D01*
X127633390Y-112035713D02*
X127442914Y-111988094D01*
X127442914Y-111988094D02*
X127347676Y-111940475D01*
X127347676Y-111940475D02*
X127252438Y-111845237D01*
X127252438Y-111845237D02*
X127204819Y-111702380D01*
X127204819Y-111702380D02*
X127204819Y-111607142D01*
X127204819Y-111607142D02*
X127252438Y-111464285D01*
X127252438Y-111464285D02*
X127300057Y-111416666D01*
X128204819Y-110464285D02*
X128204819Y-111035713D01*
X128204819Y-110749999D02*
X127204819Y-110749999D01*
X127204819Y-110749999D02*
X127347676Y-110845237D01*
X127347676Y-110845237D02*
X127442914Y-110940475D01*
X127442914Y-110940475D02*
X127490533Y-111035713D01*
X164833333Y-95464819D02*
X164500000Y-94988628D01*
X164261905Y-95464819D02*
X164261905Y-94464819D01*
X164261905Y-94464819D02*
X164642857Y-94464819D01*
X164642857Y-94464819D02*
X164738095Y-94512438D01*
X164738095Y-94512438D02*
X164785714Y-94560057D01*
X164785714Y-94560057D02*
X164833333Y-94655295D01*
X164833333Y-94655295D02*
X164833333Y-94798152D01*
X164833333Y-94798152D02*
X164785714Y-94893390D01*
X164785714Y-94893390D02*
X164738095Y-94941009D01*
X164738095Y-94941009D02*
X164642857Y-94988628D01*
X164642857Y-94988628D02*
X164261905Y-94988628D01*
X165738095Y-94464819D02*
X165261905Y-94464819D01*
X165261905Y-94464819D02*
X165214286Y-94941009D01*
X165214286Y-94941009D02*
X165261905Y-94893390D01*
X165261905Y-94893390D02*
X165357143Y-94845771D01*
X165357143Y-94845771D02*
X165595238Y-94845771D01*
X165595238Y-94845771D02*
X165690476Y-94893390D01*
X165690476Y-94893390D02*
X165738095Y-94941009D01*
X165738095Y-94941009D02*
X165785714Y-95036247D01*
X165785714Y-95036247D02*
X165785714Y-95274342D01*
X165785714Y-95274342D02*
X165738095Y-95369580D01*
X165738095Y-95369580D02*
X165690476Y-95417200D01*
X165690476Y-95417200D02*
X165595238Y-95464819D01*
X165595238Y-95464819D02*
X165357143Y-95464819D01*
X165357143Y-95464819D02*
X165261905Y-95417200D01*
X165261905Y-95417200D02*
X165214286Y-95369580D01*
X117454819Y-128083333D02*
X118169104Y-128083333D01*
X118169104Y-128083333D02*
X118311961Y-128130952D01*
X118311961Y-128130952D02*
X118407200Y-128226190D01*
X118407200Y-128226190D02*
X118454819Y-128369047D01*
X118454819Y-128369047D02*
X118454819Y-128464285D01*
X117550057Y-127654761D02*
X117502438Y-127607142D01*
X117502438Y-127607142D02*
X117454819Y-127511904D01*
X117454819Y-127511904D02*
X117454819Y-127273809D01*
X117454819Y-127273809D02*
X117502438Y-127178571D01*
X117502438Y-127178571D02*
X117550057Y-127130952D01*
X117550057Y-127130952D02*
X117645295Y-127083333D01*
X117645295Y-127083333D02*
X117740533Y-127083333D01*
X117740533Y-127083333D02*
X117883390Y-127130952D01*
X117883390Y-127130952D02*
X118454819Y-127702380D01*
X118454819Y-127702380D02*
X118454819Y-127083333D01*
X130504819Y-126001904D02*
X130504819Y-125430476D01*
X131504819Y-125716190D02*
X130504819Y-125716190D01*
X131504819Y-125097142D02*
X130504819Y-125097142D01*
X130504819Y-125097142D02*
X130504819Y-124716190D01*
X130504819Y-124716190D02*
X130552438Y-124620952D01*
X130552438Y-124620952D02*
X130600057Y-124573333D01*
X130600057Y-124573333D02*
X130695295Y-124525714D01*
X130695295Y-124525714D02*
X130838152Y-124525714D01*
X130838152Y-124525714D02*
X130933390Y-124573333D01*
X130933390Y-124573333D02*
X130981009Y-124620952D01*
X130981009Y-124620952D02*
X131028628Y-124716190D01*
X131028628Y-124716190D02*
X131028628Y-125097142D01*
X131504819Y-123573333D02*
X131504819Y-124144761D01*
X131504819Y-123859047D02*
X130504819Y-123859047D01*
X130504819Y-123859047D02*
X130647676Y-123954285D01*
X130647676Y-123954285D02*
X130742914Y-124049523D01*
X130742914Y-124049523D02*
X130790533Y-124144761D01*
X167083333Y-124454819D02*
X167416666Y-125454819D01*
X167416666Y-125454819D02*
X167749999Y-124454819D01*
X168511904Y-125407200D02*
X168416666Y-125454819D01*
X168416666Y-125454819D02*
X168226190Y-125454819D01*
X168226190Y-125454819D02*
X168130952Y-125407200D01*
X168130952Y-125407200D02*
X168083333Y-125359580D01*
X168083333Y-125359580D02*
X168035714Y-125264342D01*
X168035714Y-125264342D02*
X168035714Y-124978628D01*
X168035714Y-124978628D02*
X168083333Y-124883390D01*
X168083333Y-124883390D02*
X168130952Y-124835771D01*
X168130952Y-124835771D02*
X168226190Y-124788152D01*
X168226190Y-124788152D02*
X168416666Y-124788152D01*
X168416666Y-124788152D02*
X168511904Y-124835771D01*
X169369047Y-125407200D02*
X169273809Y-125454819D01*
X169273809Y-125454819D02*
X169083333Y-125454819D01*
X169083333Y-125454819D02*
X168988095Y-125407200D01*
X168988095Y-125407200D02*
X168940476Y-125359580D01*
X168940476Y-125359580D02*
X168892857Y-125264342D01*
X168892857Y-125264342D02*
X168892857Y-124978628D01*
X168892857Y-124978628D02*
X168940476Y-124883390D01*
X168940476Y-124883390D02*
X168988095Y-124835771D01*
X168988095Y-124835771D02*
X169083333Y-124788152D01*
X169083333Y-124788152D02*
X169273809Y-124788152D01*
X169273809Y-124788152D02*
X169369047Y-124835771D01*
X170321428Y-125454819D02*
X169750000Y-125454819D01*
X170035714Y-125454819D02*
X170035714Y-124454819D01*
X170035714Y-124454819D02*
X169940476Y-124597676D01*
X169940476Y-124597676D02*
X169845238Y-124692914D01*
X169845238Y-124692914D02*
X169750000Y-124740533D01*
X127609580Y-129166666D02*
X127657200Y-129214285D01*
X127657200Y-129214285D02*
X127704819Y-129357142D01*
X127704819Y-129357142D02*
X127704819Y-129452380D01*
X127704819Y-129452380D02*
X127657200Y-129595237D01*
X127657200Y-129595237D02*
X127561961Y-129690475D01*
X127561961Y-129690475D02*
X127466723Y-129738094D01*
X127466723Y-129738094D02*
X127276247Y-129785713D01*
X127276247Y-129785713D02*
X127133390Y-129785713D01*
X127133390Y-129785713D02*
X126942914Y-129738094D01*
X126942914Y-129738094D02*
X126847676Y-129690475D01*
X126847676Y-129690475D02*
X126752438Y-129595237D01*
X126752438Y-129595237D02*
X126704819Y-129452380D01*
X126704819Y-129452380D02*
X126704819Y-129357142D01*
X126704819Y-129357142D02*
X126752438Y-129214285D01*
X126752438Y-129214285D02*
X126800057Y-129166666D01*
X126800057Y-128785713D02*
X126752438Y-128738094D01*
X126752438Y-128738094D02*
X126704819Y-128642856D01*
X126704819Y-128642856D02*
X126704819Y-128404761D01*
X126704819Y-128404761D02*
X126752438Y-128309523D01*
X126752438Y-128309523D02*
X126800057Y-128261904D01*
X126800057Y-128261904D02*
X126895295Y-128214285D01*
X126895295Y-128214285D02*
X126990533Y-128214285D01*
X126990533Y-128214285D02*
X127133390Y-128261904D01*
X127133390Y-128261904D02*
X127704819Y-128833332D01*
X127704819Y-128833332D02*
X127704819Y-128214285D01*
D10*
X133833333Y-117457419D02*
X133357143Y-117457419D01*
X133357143Y-117457419D02*
X133357143Y-116457419D01*
X134690476Y-117457419D02*
X134119048Y-117457419D01*
X134404762Y-117457419D02*
X134404762Y-116457419D01*
X134404762Y-116457419D02*
X134309524Y-116600276D01*
X134309524Y-116600276D02*
X134214286Y-116695514D01*
X134214286Y-116695514D02*
X134119048Y-116743133D01*
D12*
X143778333Y-119814580D02*
X143730714Y-119862200D01*
X143730714Y-119862200D02*
X143587857Y-119909819D01*
X143587857Y-119909819D02*
X143492619Y-119909819D01*
X143492619Y-119909819D02*
X143349762Y-119862200D01*
X143349762Y-119862200D02*
X143254524Y-119766961D01*
X143254524Y-119766961D02*
X143206905Y-119671723D01*
X143206905Y-119671723D02*
X143159286Y-119481247D01*
X143159286Y-119481247D02*
X143159286Y-119338390D01*
X143159286Y-119338390D02*
X143206905Y-119147914D01*
X143206905Y-119147914D02*
X143254524Y-119052676D01*
X143254524Y-119052676D02*
X143349762Y-118957438D01*
X143349762Y-118957438D02*
X143492619Y-118909819D01*
X143492619Y-118909819D02*
X143587857Y-118909819D01*
X143587857Y-118909819D02*
X143730714Y-118957438D01*
X143730714Y-118957438D02*
X143778333Y-119005057D01*
X144111667Y-118909819D02*
X144730714Y-118909819D01*
X144730714Y-118909819D02*
X144397381Y-119290771D01*
X144397381Y-119290771D02*
X144540238Y-119290771D01*
X144540238Y-119290771D02*
X144635476Y-119338390D01*
X144635476Y-119338390D02*
X144683095Y-119386009D01*
X144683095Y-119386009D02*
X144730714Y-119481247D01*
X144730714Y-119481247D02*
X144730714Y-119719342D01*
X144730714Y-119719342D02*
X144683095Y-119814580D01*
X144683095Y-119814580D02*
X144635476Y-119862200D01*
X144635476Y-119862200D02*
X144540238Y-119909819D01*
X144540238Y-119909819D02*
X144254524Y-119909819D01*
X144254524Y-119909819D02*
X144159286Y-119862200D01*
X144159286Y-119862200D02*
X144111667Y-119814580D01*
X158609580Y-119621779D02*
X158657200Y-119669398D01*
X158657200Y-119669398D02*
X158704819Y-119812255D01*
X158704819Y-119812255D02*
X158704819Y-119907493D01*
X158704819Y-119907493D02*
X158657200Y-120050350D01*
X158657200Y-120050350D02*
X158561961Y-120145588D01*
X158561961Y-120145588D02*
X158466723Y-120193207D01*
X158466723Y-120193207D02*
X158276247Y-120240826D01*
X158276247Y-120240826D02*
X158133390Y-120240826D01*
X158133390Y-120240826D02*
X157942914Y-120193207D01*
X157942914Y-120193207D02*
X157847676Y-120145588D01*
X157847676Y-120145588D02*
X157752438Y-120050350D01*
X157752438Y-120050350D02*
X157704819Y-119907493D01*
X157704819Y-119907493D02*
X157704819Y-119812255D01*
X157704819Y-119812255D02*
X157752438Y-119669398D01*
X157752438Y-119669398D02*
X157800057Y-119621779D01*
X158038152Y-118764636D02*
X158704819Y-118764636D01*
X157657200Y-119002731D02*
X158371485Y-119240826D01*
X158371485Y-119240826D02*
X158371485Y-118621779D01*
X128654761Y-88230057D02*
X128559523Y-88182438D01*
X128559523Y-88182438D02*
X128464285Y-88087200D01*
X128464285Y-88087200D02*
X128321428Y-87944342D01*
X128321428Y-87944342D02*
X128226190Y-87896723D01*
X128226190Y-87896723D02*
X128130952Y-87896723D01*
X128178571Y-88134819D02*
X128083333Y-88087200D01*
X128083333Y-88087200D02*
X127988095Y-87991961D01*
X127988095Y-87991961D02*
X127940476Y-87801485D01*
X127940476Y-87801485D02*
X127940476Y-87468152D01*
X127940476Y-87468152D02*
X127988095Y-87277676D01*
X127988095Y-87277676D02*
X128083333Y-87182438D01*
X128083333Y-87182438D02*
X128178571Y-87134819D01*
X128178571Y-87134819D02*
X128369047Y-87134819D01*
X128369047Y-87134819D02*
X128464285Y-87182438D01*
X128464285Y-87182438D02*
X128559523Y-87277676D01*
X128559523Y-87277676D02*
X128607142Y-87468152D01*
X128607142Y-87468152D02*
X128607142Y-87801485D01*
X128607142Y-87801485D02*
X128559523Y-87991961D01*
X128559523Y-87991961D02*
X128464285Y-88087200D01*
X128464285Y-88087200D02*
X128369047Y-88134819D01*
X128369047Y-88134819D02*
X128178571Y-88134819D01*
X129559523Y-88134819D02*
X128988095Y-88134819D01*
X129273809Y-88134819D02*
X129273809Y-87134819D01*
X129273809Y-87134819D02*
X129178571Y-87277676D01*
X129178571Y-87277676D02*
X129083333Y-87372914D01*
X129083333Y-87372914D02*
X128988095Y-87420533D01*
X159583333Y-93324819D02*
X159250000Y-92848628D01*
X159011905Y-93324819D02*
X159011905Y-92324819D01*
X159011905Y-92324819D02*
X159392857Y-92324819D01*
X159392857Y-92324819D02*
X159488095Y-92372438D01*
X159488095Y-92372438D02*
X159535714Y-92420057D01*
X159535714Y-92420057D02*
X159583333Y-92515295D01*
X159583333Y-92515295D02*
X159583333Y-92658152D01*
X159583333Y-92658152D02*
X159535714Y-92753390D01*
X159535714Y-92753390D02*
X159488095Y-92801009D01*
X159488095Y-92801009D02*
X159392857Y-92848628D01*
X159392857Y-92848628D02*
X159011905Y-92848628D01*
X159916667Y-92324819D02*
X160535714Y-92324819D01*
X160535714Y-92324819D02*
X160202381Y-92705771D01*
X160202381Y-92705771D02*
X160345238Y-92705771D01*
X160345238Y-92705771D02*
X160440476Y-92753390D01*
X160440476Y-92753390D02*
X160488095Y-92801009D01*
X160488095Y-92801009D02*
X160535714Y-92896247D01*
X160535714Y-92896247D02*
X160535714Y-93134342D01*
X160535714Y-93134342D02*
X160488095Y-93229580D01*
X160488095Y-93229580D02*
X160440476Y-93277200D01*
X160440476Y-93277200D02*
X160345238Y-93324819D01*
X160345238Y-93324819D02*
X160059524Y-93324819D01*
X160059524Y-93324819D02*
X159964286Y-93277200D01*
X159964286Y-93277200D02*
X159916667Y-93229580D01*
X170833333Y-94324819D02*
X170500000Y-93848628D01*
X170261905Y-94324819D02*
X170261905Y-93324819D01*
X170261905Y-93324819D02*
X170642857Y-93324819D01*
X170642857Y-93324819D02*
X170738095Y-93372438D01*
X170738095Y-93372438D02*
X170785714Y-93420057D01*
X170785714Y-93420057D02*
X170833333Y-93515295D01*
X170833333Y-93515295D02*
X170833333Y-93658152D01*
X170833333Y-93658152D02*
X170785714Y-93753390D01*
X170785714Y-93753390D02*
X170738095Y-93801009D01*
X170738095Y-93801009D02*
X170642857Y-93848628D01*
X170642857Y-93848628D02*
X170261905Y-93848628D01*
X171214286Y-93420057D02*
X171261905Y-93372438D01*
X171261905Y-93372438D02*
X171357143Y-93324819D01*
X171357143Y-93324819D02*
X171595238Y-93324819D01*
X171595238Y-93324819D02*
X171690476Y-93372438D01*
X171690476Y-93372438D02*
X171738095Y-93420057D01*
X171738095Y-93420057D02*
X171785714Y-93515295D01*
X171785714Y-93515295D02*
X171785714Y-93610533D01*
X171785714Y-93610533D02*
X171738095Y-93753390D01*
X171738095Y-93753390D02*
X171166667Y-94324819D01*
X171166667Y-94324819D02*
X171785714Y-94324819D01*
X151454819Y-95416666D02*
X150978628Y-95749999D01*
X151454819Y-95988094D02*
X150454819Y-95988094D01*
X150454819Y-95988094D02*
X150454819Y-95607142D01*
X150454819Y-95607142D02*
X150502438Y-95511904D01*
X150502438Y-95511904D02*
X150550057Y-95464285D01*
X150550057Y-95464285D02*
X150645295Y-95416666D01*
X150645295Y-95416666D02*
X150788152Y-95416666D01*
X150788152Y-95416666D02*
X150883390Y-95464285D01*
X150883390Y-95464285D02*
X150931009Y-95511904D01*
X150931009Y-95511904D02*
X150978628Y-95607142D01*
X150978628Y-95607142D02*
X150978628Y-95988094D01*
X150788152Y-94559523D02*
X151454819Y-94559523D01*
X150407200Y-94797618D02*
X151121485Y-95035713D01*
X151121485Y-95035713D02*
X151121485Y-94416666D01*
X119964819Y-112623333D02*
X120679104Y-112623333D01*
X120679104Y-112623333D02*
X120821961Y-112670952D01*
X120821961Y-112670952D02*
X120917200Y-112766190D01*
X120917200Y-112766190D02*
X120964819Y-112909047D01*
X120964819Y-112909047D02*
X120964819Y-113004285D01*
X119964819Y-112242380D02*
X119964819Y-111623333D01*
X119964819Y-111623333D02*
X120345771Y-111956666D01*
X120345771Y-111956666D02*
X120345771Y-111813809D01*
X120345771Y-111813809D02*
X120393390Y-111718571D01*
X120393390Y-111718571D02*
X120441009Y-111670952D01*
X120441009Y-111670952D02*
X120536247Y-111623333D01*
X120536247Y-111623333D02*
X120774342Y-111623333D01*
X120774342Y-111623333D02*
X120869580Y-111670952D01*
X120869580Y-111670952D02*
X120917200Y-111718571D01*
X120917200Y-111718571D02*
X120964819Y-111813809D01*
X120964819Y-111813809D02*
X120964819Y-112099523D01*
X120964819Y-112099523D02*
X120917200Y-112194761D01*
X120917200Y-112194761D02*
X120869580Y-112242380D01*
X140694761Y-88250057D02*
X140599523Y-88202438D01*
X140599523Y-88202438D02*
X140504285Y-88107200D01*
X140504285Y-88107200D02*
X140361428Y-87964342D01*
X140361428Y-87964342D02*
X140266190Y-87916723D01*
X140266190Y-87916723D02*
X140170952Y-87916723D01*
X140218571Y-88154819D02*
X140123333Y-88107200D01*
X140123333Y-88107200D02*
X140028095Y-88011961D01*
X140028095Y-88011961D02*
X139980476Y-87821485D01*
X139980476Y-87821485D02*
X139980476Y-87488152D01*
X139980476Y-87488152D02*
X140028095Y-87297676D01*
X140028095Y-87297676D02*
X140123333Y-87202438D01*
X140123333Y-87202438D02*
X140218571Y-87154819D01*
X140218571Y-87154819D02*
X140409047Y-87154819D01*
X140409047Y-87154819D02*
X140504285Y-87202438D01*
X140504285Y-87202438D02*
X140599523Y-87297676D01*
X140599523Y-87297676D02*
X140647142Y-87488152D01*
X140647142Y-87488152D02*
X140647142Y-87821485D01*
X140647142Y-87821485D02*
X140599523Y-88011961D01*
X140599523Y-88011961D02*
X140504285Y-88107200D01*
X140504285Y-88107200D02*
X140409047Y-88154819D01*
X140409047Y-88154819D02*
X140218571Y-88154819D01*
X141028095Y-87250057D02*
X141075714Y-87202438D01*
X141075714Y-87202438D02*
X141170952Y-87154819D01*
X141170952Y-87154819D02*
X141409047Y-87154819D01*
X141409047Y-87154819D02*
X141504285Y-87202438D01*
X141504285Y-87202438D02*
X141551904Y-87250057D01*
X141551904Y-87250057D02*
X141599523Y-87345295D01*
X141599523Y-87345295D02*
X141599523Y-87440533D01*
X141599523Y-87440533D02*
X141551904Y-87583390D01*
X141551904Y-87583390D02*
X140980476Y-88154819D01*
X140980476Y-88154819D02*
X141599523Y-88154819D01*
X129849819Y-134571428D02*
X130849819Y-134238095D01*
X130849819Y-134238095D02*
X129849819Y-133904762D01*
X130849819Y-133428571D02*
X130802200Y-133523809D01*
X130802200Y-133523809D02*
X130706961Y-133571428D01*
X130706961Y-133571428D02*
X129849819Y-133571428D01*
X130849819Y-132523809D02*
X130849819Y-133095237D01*
X130849819Y-132809523D02*
X129849819Y-132809523D01*
X129849819Y-132809523D02*
X129992676Y-132904761D01*
X129992676Y-132904761D02*
X130087914Y-132999999D01*
X130087914Y-132999999D02*
X130135533Y-133095237D01*
X143571905Y-132954819D02*
X143571905Y-131954819D01*
X143571905Y-131954819D02*
X143810000Y-131954819D01*
X143810000Y-131954819D02*
X143952857Y-132002438D01*
X143952857Y-132002438D02*
X144048095Y-132097676D01*
X144048095Y-132097676D02*
X144095714Y-132192914D01*
X144095714Y-132192914D02*
X144143333Y-132383390D01*
X144143333Y-132383390D02*
X144143333Y-132526247D01*
X144143333Y-132526247D02*
X144095714Y-132716723D01*
X144095714Y-132716723D02*
X144048095Y-132811961D01*
X144048095Y-132811961D02*
X143952857Y-132907200D01*
X143952857Y-132907200D02*
X143810000Y-132954819D01*
X143810000Y-132954819D02*
X143571905Y-132954819D01*
X145000476Y-132288152D02*
X145000476Y-132954819D01*
X144762381Y-131907200D02*
X144524286Y-132621485D01*
X144524286Y-132621485D02*
X145143333Y-132621485D01*
X144238095Y-126554819D02*
X144238095Y-125554819D01*
X144809523Y-126554819D02*
X144380952Y-125983390D01*
X144809523Y-125554819D02*
X144238095Y-126126247D01*
D13*
%TO.C,C1*%
X122960000Y-111250000D02*
X121420000Y-111250000D01*
X122960000Y-111290000D02*
X121420000Y-111290000D01*
X122960000Y-111330000D02*
X121421000Y-111330000D01*
X122960000Y-111370000D02*
X121423000Y-111370000D01*
X122960000Y-111410000D02*
X121425000Y-111410000D01*
X122960000Y-111450000D02*
X121428000Y-111450000D01*
X122960000Y-111490000D02*
X121431000Y-111490000D01*
X122960000Y-111530000D02*
X121435000Y-111530000D01*
X122960000Y-111570000D02*
X121440000Y-111570000D01*
X122960000Y-111610000D02*
X121445000Y-111610000D01*
X122960000Y-111650000D02*
X121451000Y-111650000D01*
X122960000Y-111690000D02*
X121457000Y-111690000D01*
X122960000Y-111730000D02*
X121464000Y-111730000D01*
X122960000Y-111770000D02*
X121472000Y-111770000D01*
X122960000Y-111810000D02*
X121481000Y-111810000D01*
X122960000Y-111850000D02*
X121490000Y-111850000D01*
X122960000Y-111890000D02*
X121499000Y-111890000D01*
X122960000Y-111930000D02*
X121510000Y-111930000D01*
X122960000Y-111970000D02*
X121521000Y-111970000D01*
X122960000Y-112010000D02*
X121533000Y-112010000D01*
X122960000Y-112050000D02*
X121545000Y-112050000D01*
X122960000Y-112090000D02*
X121558000Y-112090000D01*
X122960000Y-112130000D02*
X121572000Y-112130000D01*
X122960000Y-112170000D02*
X121587000Y-112170000D01*
X122960000Y-112210000D02*
X121602000Y-112210000D01*
X122960000Y-112250000D02*
X121618000Y-112250000D01*
X122960000Y-112290000D02*
X121635000Y-112290000D01*
X122960000Y-112330000D02*
X121653000Y-112330000D01*
X122960000Y-112370000D02*
X121671000Y-112370000D01*
X122960000Y-112410000D02*
X121691000Y-112410000D01*
X122960000Y-112450000D02*
X121711000Y-112450000D01*
X122960000Y-112490000D02*
X121732000Y-112490000D01*
X122960000Y-112530000D02*
X121754000Y-112530000D01*
X122960000Y-112570000D02*
X121777000Y-112570000D01*
X122960000Y-112610000D02*
X121801000Y-112610000D01*
X122960000Y-112650000D02*
X121825000Y-112650000D01*
X122960000Y-112690000D02*
X121851000Y-112690000D01*
X122960000Y-112730000D02*
X121878000Y-112730000D01*
X122960000Y-112770000D02*
X121906000Y-112770000D01*
X122960000Y-112810000D02*
X121935000Y-112810000D01*
X122960000Y-112850000D02*
X121965000Y-112850000D01*
X122960000Y-112890000D02*
X121997000Y-112890000D01*
X122960000Y-112930000D02*
X122030000Y-112930000D01*
X122960000Y-112970000D02*
X122064000Y-112970000D01*
X122960000Y-113010000D02*
X122099000Y-113010000D01*
X122960000Y-113050000D02*
X122136000Y-113050000D01*
X122960000Y-113090000D02*
X122175000Y-113090000D01*
X122960000Y-113130000D02*
X122215000Y-113130000D01*
X122960000Y-113170000D02*
X122257000Y-113170000D01*
X122960000Y-113210000D02*
X122301000Y-113210000D01*
X122960000Y-113250000D02*
X122348000Y-113250000D01*
X124283000Y-113850000D02*
X123717000Y-113850000D01*
X124517000Y-113810000D02*
X123483000Y-113810000D01*
X124677000Y-113770000D02*
X123323000Y-113770000D01*
X124805000Y-113730000D02*
X123195000Y-113730000D01*
X124914000Y-113690000D02*
X123086000Y-113690000D01*
X125011000Y-113650000D02*
X122989000Y-113650000D01*
X125098000Y-113610000D02*
X122902000Y-113610000D01*
X125177000Y-113570000D02*
X122823000Y-113570000D01*
X125251000Y-113530000D02*
X122749000Y-113530000D01*
X125319000Y-113490000D02*
X122681000Y-113490000D01*
X125383000Y-113450000D02*
X122617000Y-113450000D01*
X125443000Y-113410000D02*
X122557000Y-113410000D01*
X125475000Y-108445225D02*
X125475000Y-108945225D01*
X125499000Y-113370000D02*
X122501000Y-113370000D01*
X125553000Y-113330000D02*
X122447000Y-113330000D01*
X125604000Y-113290000D02*
X122396000Y-113290000D01*
X125652000Y-113250000D02*
X125040000Y-113250000D01*
X125699000Y-113210000D02*
X125040000Y-113210000D01*
X125725000Y-108695225D02*
X125225000Y-108695225D01*
X125743000Y-113170000D02*
X125040000Y-113170000D01*
X125785000Y-113130000D02*
X125040000Y-113130000D01*
X125825000Y-113090000D02*
X125040000Y-113090000D01*
X125864000Y-113050000D02*
X125040000Y-113050000D01*
X125901000Y-113010000D02*
X125040000Y-113010000D01*
X125936000Y-112970000D02*
X125040000Y-112970000D01*
X125970000Y-112930000D02*
X125040000Y-112930000D01*
X126003000Y-112890000D02*
X125040000Y-112890000D01*
X126035000Y-112850000D02*
X125040000Y-112850000D01*
X126065000Y-112810000D02*
X125040000Y-112810000D01*
X126094000Y-112770000D02*
X125040000Y-112770000D01*
X126122000Y-112730000D02*
X125040000Y-112730000D01*
X126149000Y-112690000D02*
X125040000Y-112690000D01*
X126175000Y-112650000D02*
X125040000Y-112650000D01*
X126199000Y-112610000D02*
X125040000Y-112610000D01*
X126223000Y-112570000D02*
X125040000Y-112570000D01*
X126246000Y-112530000D02*
X125040000Y-112530000D01*
X126268000Y-112490000D02*
X125040000Y-112490000D01*
X126289000Y-112450000D02*
X125040000Y-112450000D01*
X126309000Y-112410000D02*
X125040000Y-112410000D01*
X126329000Y-112370000D02*
X125040000Y-112370000D01*
X126347000Y-112330000D02*
X125040000Y-112330000D01*
X126365000Y-112290000D02*
X125040000Y-112290000D01*
X126382000Y-112250000D02*
X125040000Y-112250000D01*
X126398000Y-112210000D02*
X125040000Y-112210000D01*
X126413000Y-112170000D02*
X125040000Y-112170000D01*
X126428000Y-112130000D02*
X125040000Y-112130000D01*
X126442000Y-112090000D02*
X125040000Y-112090000D01*
X126455000Y-112050000D02*
X125040000Y-112050000D01*
X126467000Y-112010000D02*
X125040000Y-112010000D01*
X126479000Y-111970000D02*
X125040000Y-111970000D01*
X126490000Y-111930000D02*
X125040000Y-111930000D01*
X126501000Y-111890000D02*
X125040000Y-111890000D01*
X126510000Y-111850000D02*
X125040000Y-111850000D01*
X126519000Y-111810000D02*
X125040000Y-111810000D01*
X126528000Y-111770000D02*
X125040000Y-111770000D01*
X126536000Y-111730000D02*
X125040000Y-111730000D01*
X126543000Y-111690000D02*
X125040000Y-111690000D01*
X126549000Y-111650000D02*
X125040000Y-111650000D01*
X126555000Y-111610000D02*
X125040000Y-111610000D01*
X126560000Y-111570000D02*
X125040000Y-111570000D01*
X126565000Y-111530000D02*
X125040000Y-111530000D01*
X126569000Y-111490000D02*
X125040000Y-111490000D01*
X126572000Y-111450000D02*
X125040000Y-111450000D01*
X126575000Y-111410000D02*
X125040000Y-111410000D01*
X126577000Y-111370000D02*
X125040000Y-111370000D01*
X126579000Y-111330000D02*
X125040000Y-111330000D01*
X126580000Y-111250000D02*
X125040000Y-111250000D01*
X126580000Y-111290000D02*
X125040000Y-111290000D01*
X126620000Y-111250000D02*
G75*
G02*
X121380000Y-111250000I-2620000J0D01*
G01*
X121380000Y-111250000D02*
G75*
G02*
X126620000Y-111250000I2620000J0D01*
G01*
%TO.C,R5*%
X161730000Y-96010000D02*
X168270000Y-96010000D01*
X161730000Y-96340000D02*
X161730000Y-96010000D01*
X161730000Y-98420000D02*
X161730000Y-98750000D01*
X161730000Y-98750000D02*
X168270000Y-98750000D01*
X168270000Y-96010000D02*
X168270000Y-96340000D01*
X168270000Y-98750000D02*
X168270000Y-98420000D01*
%TO.C,J2*%
X109585000Y-124385000D02*
X119625000Y-124385000D01*
X109585000Y-126745000D02*
X109585000Y-124385000D01*
X109585000Y-134785000D02*
X109585000Y-127345000D01*
X110205000Y-124385000D02*
X110205000Y-134785000D01*
X111705000Y-124385000D02*
X111705000Y-134785000D01*
X116605000Y-124385000D02*
X116605000Y-134785000D01*
X119625000Y-124385000D02*
X119625000Y-134785000D01*
X119625000Y-134785000D02*
X109585000Y-134785000D01*
X109585000Y-127045000D02*
X108975000Y-127485000D01*
X108975000Y-126605000D01*
X109585000Y-127045000D01*
G36*
X109585000Y-127045000D02*
G01*
X108975000Y-127485000D01*
X108975000Y-126605000D01*
X109585000Y-127045000D01*
G37*
%TO.C,TP1*%
X127250000Y-129040000D02*
X127250000Y-120940000D01*
X127250000Y-129040000D02*
X130250000Y-129040000D01*
X130250000Y-120940000D02*
X127250000Y-120940000D01*
X130250000Y-120940000D02*
X130250000Y-129040000D01*
%TO.C,Vcc1*%
X165840000Y-123180000D02*
X176240000Y-123180000D01*
X165840000Y-126200000D02*
X176240000Y-126200000D01*
X165840000Y-131100000D02*
X176240000Y-131100000D01*
X165840000Y-132600000D02*
X176240000Y-132600000D01*
X165840000Y-133220000D02*
X165840000Y-123180000D01*
X168200000Y-133220000D02*
X165840000Y-133220000D01*
X176240000Y-123180000D02*
X176240000Y-133220000D01*
X176240000Y-133220000D02*
X168800000Y-133220000D01*
X168940000Y-133830000D02*
X168060000Y-133830000D01*
X168500000Y-133220000D01*
X168940000Y-133830000D01*
G36*
X168940000Y-133830000D02*
G01*
X168060000Y-133830000D01*
X168500000Y-133220000D01*
X168940000Y-133830000D01*
G37*
%TO.C,Vgs_Q2*%
X178620000Y-94505000D02*
X178620000Y-91855000D01*
X181380000Y-91855000D02*
X178620000Y-91855000D01*
X181380000Y-94505000D02*
X178620000Y-94505000D01*
X181380000Y-94505000D02*
X181380000Y-91855000D01*
X181380000Y-95775000D02*
X181380000Y-97155000D01*
X181380000Y-97155000D02*
X180000000Y-97155000D01*
%TO.C,C2*%
X122460000Y-129000000D02*
X120920000Y-129000000D01*
X122460000Y-129040000D02*
X120920000Y-129040000D01*
X122460000Y-129080000D02*
X120921000Y-129080000D01*
X122460000Y-129120000D02*
X120923000Y-129120000D01*
X122460000Y-129160000D02*
X120925000Y-129160000D01*
X122460000Y-129200000D02*
X120928000Y-129200000D01*
X122460000Y-129240000D02*
X120931000Y-129240000D01*
X122460000Y-129280000D02*
X120935000Y-129280000D01*
X122460000Y-129320000D02*
X120940000Y-129320000D01*
X122460000Y-129360000D02*
X120945000Y-129360000D01*
X122460000Y-129400000D02*
X120951000Y-129400000D01*
X122460000Y-129440000D02*
X120957000Y-129440000D01*
X122460000Y-129480000D02*
X120964000Y-129480000D01*
X122460000Y-129520000D02*
X120972000Y-129520000D01*
X122460000Y-129560000D02*
X120981000Y-129560000D01*
X122460000Y-129600000D02*
X120990000Y-129600000D01*
X122460000Y-129640000D02*
X120999000Y-129640000D01*
X122460000Y-129680000D02*
X121010000Y-129680000D01*
X122460000Y-129720000D02*
X121021000Y-129720000D01*
X122460000Y-129760000D02*
X121033000Y-129760000D01*
X122460000Y-129800000D02*
X121045000Y-129800000D01*
X122460000Y-129840000D02*
X121058000Y-129840000D01*
X122460000Y-129880000D02*
X121072000Y-129880000D01*
X122460000Y-129920000D02*
X121087000Y-129920000D01*
X122460000Y-129960000D02*
X121102000Y-129960000D01*
X122460000Y-130000000D02*
X121118000Y-130000000D01*
X122460000Y-130040000D02*
X121135000Y-130040000D01*
X122460000Y-130080000D02*
X121153000Y-130080000D01*
X122460000Y-130120000D02*
X121171000Y-130120000D01*
X122460000Y-130160000D02*
X121191000Y-130160000D01*
X122460000Y-130200000D02*
X121211000Y-130200000D01*
X122460000Y-130240000D02*
X121232000Y-130240000D01*
X122460000Y-130280000D02*
X121254000Y-130280000D01*
X122460000Y-130320000D02*
X121277000Y-130320000D01*
X122460000Y-130360000D02*
X121301000Y-130360000D01*
X122460000Y-130400000D02*
X121325000Y-130400000D01*
X122460000Y-130440000D02*
X121351000Y-130440000D01*
X122460000Y-130480000D02*
X121378000Y-130480000D01*
X122460000Y-130520000D02*
X121406000Y-130520000D01*
X122460000Y-130560000D02*
X121435000Y-130560000D01*
X122460000Y-130600000D02*
X121465000Y-130600000D01*
X122460000Y-130640000D02*
X121497000Y-130640000D01*
X122460000Y-130680000D02*
X121530000Y-130680000D01*
X122460000Y-130720000D02*
X121564000Y-130720000D01*
X122460000Y-130760000D02*
X121599000Y-130760000D01*
X122460000Y-130800000D02*
X121636000Y-130800000D01*
X122460000Y-130840000D02*
X121675000Y-130840000D01*
X122460000Y-130880000D02*
X121715000Y-130880000D01*
X122460000Y-130920000D02*
X121757000Y-130920000D01*
X122460000Y-130960000D02*
X121801000Y-130960000D01*
X122460000Y-131000000D02*
X121848000Y-131000000D01*
X123783000Y-131600000D02*
X123217000Y-131600000D01*
X124017000Y-131560000D02*
X122983000Y-131560000D01*
X124177000Y-131520000D02*
X122823000Y-131520000D01*
X124305000Y-131480000D02*
X122695000Y-131480000D01*
X124414000Y-131440000D02*
X122586000Y-131440000D01*
X124511000Y-131400000D02*
X122489000Y-131400000D01*
X124598000Y-131360000D02*
X122402000Y-131360000D01*
X124677000Y-131320000D02*
X122323000Y-131320000D01*
X124751000Y-131280000D02*
X122249000Y-131280000D01*
X124819000Y-131240000D02*
X122181000Y-131240000D01*
X124883000Y-131200000D02*
X122117000Y-131200000D01*
X124943000Y-131160000D02*
X122057000Y-131160000D01*
X124975000Y-126195225D02*
X124975000Y-126695225D01*
X124999000Y-131120000D02*
X122001000Y-131120000D01*
X125053000Y-131080000D02*
X121947000Y-131080000D01*
X125104000Y-131040000D02*
X121896000Y-131040000D01*
X125152000Y-131000000D02*
X124540000Y-131000000D01*
X125199000Y-130960000D02*
X124540000Y-130960000D01*
X125225000Y-126445225D02*
X124725000Y-126445225D01*
X125243000Y-130920000D02*
X124540000Y-130920000D01*
X125285000Y-130880000D02*
X124540000Y-130880000D01*
X125325000Y-130840000D02*
X124540000Y-130840000D01*
X125364000Y-130800000D02*
X124540000Y-130800000D01*
X125401000Y-130760000D02*
X124540000Y-130760000D01*
X125436000Y-130720000D02*
X124540000Y-130720000D01*
X125470000Y-130680000D02*
X124540000Y-130680000D01*
X125503000Y-130640000D02*
X124540000Y-130640000D01*
X125535000Y-130600000D02*
X124540000Y-130600000D01*
X125565000Y-130560000D02*
X124540000Y-130560000D01*
X125594000Y-130520000D02*
X124540000Y-130520000D01*
X125622000Y-130480000D02*
X124540000Y-130480000D01*
X125649000Y-130440000D02*
X124540000Y-130440000D01*
X125675000Y-130400000D02*
X124540000Y-130400000D01*
X125699000Y-130360000D02*
X124540000Y-130360000D01*
X125723000Y-130320000D02*
X124540000Y-130320000D01*
X125746000Y-130280000D02*
X124540000Y-130280000D01*
X125768000Y-130240000D02*
X124540000Y-130240000D01*
X125789000Y-130200000D02*
X124540000Y-130200000D01*
X125809000Y-130160000D02*
X124540000Y-130160000D01*
X125829000Y-130120000D02*
X124540000Y-130120000D01*
X125847000Y-130080000D02*
X124540000Y-130080000D01*
X125865000Y-130040000D02*
X124540000Y-130040000D01*
X125882000Y-130000000D02*
X124540000Y-130000000D01*
X125898000Y-129960000D02*
X124540000Y-129960000D01*
X125913000Y-129920000D02*
X124540000Y-129920000D01*
X125928000Y-129880000D02*
X124540000Y-129880000D01*
X125942000Y-129840000D02*
X124540000Y-129840000D01*
X125955000Y-129800000D02*
X124540000Y-129800000D01*
X125967000Y-129760000D02*
X124540000Y-129760000D01*
X125979000Y-129720000D02*
X124540000Y-129720000D01*
X125990000Y-129680000D02*
X124540000Y-129680000D01*
X126001000Y-129640000D02*
X124540000Y-129640000D01*
X126010000Y-129600000D02*
X124540000Y-129600000D01*
X126019000Y-129560000D02*
X124540000Y-129560000D01*
X126028000Y-129520000D02*
X124540000Y-129520000D01*
X126036000Y-129480000D02*
X124540000Y-129480000D01*
X126043000Y-129440000D02*
X124540000Y-129440000D01*
X126049000Y-129400000D02*
X124540000Y-129400000D01*
X126055000Y-129360000D02*
X124540000Y-129360000D01*
X126060000Y-129320000D02*
X124540000Y-129320000D01*
X126065000Y-129280000D02*
X124540000Y-129280000D01*
X126069000Y-129240000D02*
X124540000Y-129240000D01*
X126072000Y-129200000D02*
X124540000Y-129200000D01*
X126075000Y-129160000D02*
X124540000Y-129160000D01*
X126077000Y-129120000D02*
X124540000Y-129120000D01*
X126079000Y-129080000D02*
X124540000Y-129080000D01*
X126080000Y-129000000D02*
X124540000Y-129000000D01*
X126080000Y-129040000D02*
X124540000Y-129040000D01*
X126120000Y-129000000D02*
G75*
G02*
X120880000Y-129000000I-2620000J0D01*
G01*
X120880000Y-129000000D02*
G75*
G02*
X126120000Y-129000000I2620000J0D01*
G01*
%TO.C,L1*%
D11*
X128500000Y-101500000D02*
X139500000Y-101500000D01*
X139500000Y-127500000D01*
X128500000Y-127500000D01*
X128500000Y-101500000D01*
D13*
%TO.C,C3*%
X140400000Y-123283000D02*
X140400000Y-122717000D01*
X140440000Y-123517000D02*
X140440000Y-122483000D01*
X140480000Y-123677000D02*
X140480000Y-122323000D01*
X140520000Y-123805000D02*
X140520000Y-122195000D01*
X140560000Y-123914000D02*
X140560000Y-122086000D01*
X140600000Y-124011000D02*
X140600000Y-121989000D01*
X140640000Y-124098000D02*
X140640000Y-121902000D01*
X140680000Y-124177000D02*
X140680000Y-121823000D01*
X140720000Y-124251000D02*
X140720000Y-121749000D01*
X140760000Y-124319000D02*
X140760000Y-121681000D01*
X140800000Y-124383000D02*
X140800000Y-121617000D01*
X140840000Y-124443000D02*
X140840000Y-121557000D01*
X140880000Y-124499000D02*
X140880000Y-121501000D01*
X140920000Y-124553000D02*
X140920000Y-121447000D01*
X140960000Y-124604000D02*
X140960000Y-121396000D01*
X141000000Y-121960000D02*
X141000000Y-121348000D01*
X141000000Y-124652000D02*
X141000000Y-124040000D01*
X141040000Y-121960000D02*
X141040000Y-121301000D01*
X141040000Y-124699000D02*
X141040000Y-124040000D01*
X141080000Y-121960000D02*
X141080000Y-121257000D01*
X141080000Y-124743000D02*
X141080000Y-124040000D01*
X141120000Y-121960000D02*
X141120000Y-121215000D01*
X141120000Y-124785000D02*
X141120000Y-124040000D01*
X141160000Y-121960000D02*
X141160000Y-121175000D01*
X141160000Y-124825000D02*
X141160000Y-124040000D01*
X141200000Y-121960000D02*
X141200000Y-121136000D01*
X141200000Y-124864000D02*
X141200000Y-124040000D01*
X141240000Y-121960000D02*
X141240000Y-121099000D01*
X141240000Y-124901000D02*
X141240000Y-124040000D01*
X141280000Y-121960000D02*
X141280000Y-121064000D01*
X141280000Y-124936000D02*
X141280000Y-124040000D01*
X141320000Y-121960000D02*
X141320000Y-121030000D01*
X141320000Y-124970000D02*
X141320000Y-124040000D01*
X141360000Y-121960000D02*
X141360000Y-120997000D01*
X141360000Y-125003000D02*
X141360000Y-124040000D01*
X141400000Y-121960000D02*
X141400000Y-120965000D01*
X141400000Y-125035000D02*
X141400000Y-124040000D01*
X141440000Y-121960000D02*
X141440000Y-120935000D01*
X141440000Y-125065000D02*
X141440000Y-124040000D01*
X141480000Y-121960000D02*
X141480000Y-120906000D01*
X141480000Y-125094000D02*
X141480000Y-124040000D01*
X141520000Y-121960000D02*
X141520000Y-120878000D01*
X141520000Y-125122000D02*
X141520000Y-124040000D01*
X141560000Y-121960000D02*
X141560000Y-120851000D01*
X141560000Y-125149000D02*
X141560000Y-124040000D01*
X141600000Y-121960000D02*
X141600000Y-120825000D01*
X141600000Y-125175000D02*
X141600000Y-124040000D01*
X141640000Y-121960000D02*
X141640000Y-120801000D01*
X141640000Y-125199000D02*
X141640000Y-124040000D01*
X141680000Y-121960000D02*
X141680000Y-120777000D01*
X141680000Y-125223000D02*
X141680000Y-124040000D01*
X141720000Y-121960000D02*
X141720000Y-120754000D01*
X141720000Y-125246000D02*
X141720000Y-124040000D01*
X141760000Y-121960000D02*
X141760000Y-120732000D01*
X141760000Y-125268000D02*
X141760000Y-124040000D01*
X141800000Y-121960000D02*
X141800000Y-120711000D01*
X141800000Y-125289000D02*
X141800000Y-124040000D01*
X141840000Y-121960000D02*
X141840000Y-120691000D01*
X141840000Y-125309000D02*
X141840000Y-124040000D01*
X141880000Y-121960000D02*
X141880000Y-120671000D01*
X141880000Y-125329000D02*
X141880000Y-124040000D01*
X141920000Y-121960000D02*
X141920000Y-120653000D01*
X141920000Y-125347000D02*
X141920000Y-124040000D01*
X141960000Y-121960000D02*
X141960000Y-120635000D01*
X141960000Y-125365000D02*
X141960000Y-124040000D01*
X142000000Y-121960000D02*
X142000000Y-120618000D01*
X142000000Y-125382000D02*
X142000000Y-124040000D01*
X142040000Y-121960000D02*
X142040000Y-120602000D01*
X142040000Y-125398000D02*
X142040000Y-124040000D01*
X142080000Y-121960000D02*
X142080000Y-120587000D01*
X142080000Y-125413000D02*
X142080000Y-124040000D01*
X142120000Y-121960000D02*
X142120000Y-120572000D01*
X142120000Y-125428000D02*
X142120000Y-124040000D01*
X142160000Y-121960000D02*
X142160000Y-120558000D01*
X142160000Y-125442000D02*
X142160000Y-124040000D01*
X142200000Y-121960000D02*
X142200000Y-120545000D01*
X142200000Y-125455000D02*
X142200000Y-124040000D01*
X142240000Y-121960000D02*
X142240000Y-120533000D01*
X142240000Y-125467000D02*
X142240000Y-124040000D01*
X142280000Y-121960000D02*
X142280000Y-120521000D01*
X142280000Y-125479000D02*
X142280000Y-124040000D01*
X142320000Y-121960000D02*
X142320000Y-120510000D01*
X142320000Y-125490000D02*
X142320000Y-124040000D01*
X142360000Y-121960000D02*
X142360000Y-120499000D01*
X142360000Y-125501000D02*
X142360000Y-124040000D01*
X142400000Y-121960000D02*
X142400000Y-120490000D01*
X142400000Y-125510000D02*
X142400000Y-124040000D01*
X142440000Y-121960000D02*
X142440000Y-120481000D01*
X142440000Y-125519000D02*
X142440000Y-124040000D01*
X142480000Y-121960000D02*
X142480000Y-120472000D01*
X142480000Y-125528000D02*
X142480000Y-124040000D01*
X142520000Y-121960000D02*
X142520000Y-120464000D01*
X142520000Y-125536000D02*
X142520000Y-124040000D01*
X142560000Y-121960000D02*
X142560000Y-120457000D01*
X142560000Y-125543000D02*
X142560000Y-124040000D01*
X142600000Y-121960000D02*
X142600000Y-120451000D01*
X142600000Y-125549000D02*
X142600000Y-124040000D01*
X142640000Y-121960000D02*
X142640000Y-120445000D01*
X142640000Y-125555000D02*
X142640000Y-124040000D01*
X142680000Y-121960000D02*
X142680000Y-120440000D01*
X142680000Y-125560000D02*
X142680000Y-124040000D01*
X142720000Y-121960000D02*
X142720000Y-120435000D01*
X142720000Y-125565000D02*
X142720000Y-124040000D01*
X142760000Y-121960000D02*
X142760000Y-120431000D01*
X142760000Y-125569000D02*
X142760000Y-124040000D01*
X142800000Y-121960000D02*
X142800000Y-120428000D01*
X142800000Y-125572000D02*
X142800000Y-124040000D01*
X142840000Y-121960000D02*
X142840000Y-120425000D01*
X142840000Y-125575000D02*
X142840000Y-124040000D01*
X142880000Y-121960000D02*
X142880000Y-120423000D01*
X142880000Y-125577000D02*
X142880000Y-124040000D01*
X142920000Y-121960000D02*
X142920000Y-120421000D01*
X142920000Y-125579000D02*
X142920000Y-124040000D01*
X142960000Y-121960000D02*
X142960000Y-120420000D01*
X142960000Y-125580000D02*
X142960000Y-124040000D01*
X143000000Y-121960000D02*
X143000000Y-120420000D01*
X143000000Y-125580000D02*
X143000000Y-124040000D01*
X145554775Y-124725000D02*
X145554775Y-124225000D01*
X145804775Y-124475000D02*
X145304775Y-124475000D01*
X145620000Y-123000000D02*
G75*
G02*
X140380000Y-123000000I-2620000J0D01*
G01*
X140380000Y-123000000D02*
G75*
G02*
X145620000Y-123000000I2620000J0D01*
G01*
%TO.C,C4*%
X159420000Y-119415113D02*
X160960000Y-119415113D01*
X159420000Y-119455113D02*
X160960000Y-119455113D01*
X159421000Y-119375113D02*
X160960000Y-119375113D01*
X159423000Y-119335113D02*
X160960000Y-119335113D01*
X159425000Y-119295113D02*
X160960000Y-119295113D01*
X159428000Y-119255113D02*
X160960000Y-119255113D01*
X159431000Y-119215113D02*
X160960000Y-119215113D01*
X159435000Y-119175113D02*
X160960000Y-119175113D01*
X159440000Y-119135113D02*
X160960000Y-119135113D01*
X159445000Y-119095113D02*
X160960000Y-119095113D01*
X159451000Y-119055113D02*
X160960000Y-119055113D01*
X159457000Y-119015113D02*
X160960000Y-119015113D01*
X159464000Y-118975113D02*
X160960000Y-118975113D01*
X159472000Y-118935113D02*
X160960000Y-118935113D01*
X159481000Y-118895113D02*
X160960000Y-118895113D01*
X159490000Y-118855113D02*
X160960000Y-118855113D01*
X159499000Y-118815113D02*
X160960000Y-118815113D01*
X159510000Y-118775113D02*
X160960000Y-118775113D01*
X159521000Y-118735113D02*
X160960000Y-118735113D01*
X159533000Y-118695113D02*
X160960000Y-118695113D01*
X159545000Y-118655113D02*
X160960000Y-118655113D01*
X159558000Y-118615113D02*
X160960000Y-118615113D01*
X159572000Y-118575113D02*
X160960000Y-118575113D01*
X159587000Y-118535113D02*
X160960000Y-118535113D01*
X159602000Y-118495113D02*
X160960000Y-118495113D01*
X159618000Y-118455113D02*
X160960000Y-118455113D01*
X159635000Y-118415113D02*
X160960000Y-118415113D01*
X159653000Y-118375113D02*
X160960000Y-118375113D01*
X159671000Y-118335113D02*
X160960000Y-118335113D01*
X159691000Y-118295113D02*
X160960000Y-118295113D01*
X159711000Y-118255113D02*
X160960000Y-118255113D01*
X159732000Y-118215113D02*
X160960000Y-118215113D01*
X159754000Y-118175113D02*
X160960000Y-118175113D01*
X159777000Y-118135113D02*
X160960000Y-118135113D01*
X159801000Y-118095113D02*
X160960000Y-118095113D01*
X159825000Y-118055113D02*
X160960000Y-118055113D01*
X159851000Y-118015113D02*
X160960000Y-118015113D01*
X159878000Y-117975113D02*
X160960000Y-117975113D01*
X159906000Y-117935113D02*
X160960000Y-117935113D01*
X159935000Y-117895113D02*
X160960000Y-117895113D01*
X159965000Y-117855113D02*
X160960000Y-117855113D01*
X159997000Y-117815113D02*
X160960000Y-117815113D01*
X160030000Y-117775113D02*
X160960000Y-117775113D01*
X160064000Y-117735113D02*
X160960000Y-117735113D01*
X160099000Y-117695113D02*
X160960000Y-117695113D01*
X160136000Y-117655113D02*
X160960000Y-117655113D01*
X160175000Y-117615113D02*
X160960000Y-117615113D01*
X160215000Y-117575113D02*
X160960000Y-117575113D01*
X160257000Y-117535113D02*
X160960000Y-117535113D01*
X160275000Y-122009888D02*
X160775000Y-122009888D01*
X160301000Y-117495113D02*
X160960000Y-117495113D01*
X160348000Y-117455113D02*
X160960000Y-117455113D01*
X160396000Y-117415113D02*
X163604000Y-117415113D01*
X160447000Y-117375113D02*
X163553000Y-117375113D01*
X160501000Y-117335113D02*
X163499000Y-117335113D01*
X160525000Y-122259888D02*
X160525000Y-121759888D01*
X160557000Y-117295113D02*
X163443000Y-117295113D01*
X160617000Y-117255113D02*
X163383000Y-117255113D01*
X160681000Y-117215113D02*
X163319000Y-117215113D01*
X160749000Y-117175113D02*
X163251000Y-117175113D01*
X160823000Y-117135113D02*
X163177000Y-117135113D01*
X160902000Y-117095113D02*
X163098000Y-117095113D01*
X160989000Y-117055113D02*
X163011000Y-117055113D01*
X161086000Y-117015113D02*
X162914000Y-117015113D01*
X161195000Y-116975113D02*
X162805000Y-116975113D01*
X161323000Y-116935113D02*
X162677000Y-116935113D01*
X161483000Y-116895113D02*
X162517000Y-116895113D01*
X161717000Y-116855113D02*
X162283000Y-116855113D01*
X163040000Y-117455113D02*
X163652000Y-117455113D01*
X163040000Y-117495113D02*
X163699000Y-117495113D01*
X163040000Y-117535113D02*
X163743000Y-117535113D01*
X163040000Y-117575113D02*
X163785000Y-117575113D01*
X163040000Y-117615113D02*
X163825000Y-117615113D01*
X163040000Y-117655113D02*
X163864000Y-117655113D01*
X163040000Y-117695113D02*
X163901000Y-117695113D01*
X163040000Y-117735113D02*
X163936000Y-117735113D01*
X163040000Y-117775113D02*
X163970000Y-117775113D01*
X163040000Y-117815113D02*
X164003000Y-117815113D01*
X163040000Y-117855113D02*
X164035000Y-117855113D01*
X163040000Y-117895113D02*
X164065000Y-117895113D01*
X163040000Y-117935113D02*
X164094000Y-117935113D01*
X163040000Y-117975113D02*
X164122000Y-117975113D01*
X163040000Y-118015113D02*
X164149000Y-118015113D01*
X163040000Y-118055113D02*
X164175000Y-118055113D01*
X163040000Y-118095113D02*
X164199000Y-118095113D01*
X163040000Y-118135113D02*
X164223000Y-118135113D01*
X163040000Y-118175113D02*
X164246000Y-118175113D01*
X163040000Y-118215113D02*
X164268000Y-118215113D01*
X163040000Y-118255113D02*
X164289000Y-118255113D01*
X163040000Y-118295113D02*
X164309000Y-118295113D01*
X163040000Y-118335113D02*
X164329000Y-118335113D01*
X163040000Y-118375113D02*
X164347000Y-118375113D01*
X163040000Y-118415113D02*
X164365000Y-118415113D01*
X163040000Y-118455113D02*
X164382000Y-118455113D01*
X163040000Y-118495113D02*
X164398000Y-118495113D01*
X163040000Y-118535113D02*
X164413000Y-118535113D01*
X163040000Y-118575113D02*
X164428000Y-118575113D01*
X163040000Y-118615113D02*
X164442000Y-118615113D01*
X163040000Y-118655113D02*
X164455000Y-118655113D01*
X163040000Y-118695113D02*
X164467000Y-118695113D01*
X163040000Y-118735113D02*
X164479000Y-118735113D01*
X163040000Y-118775113D02*
X164490000Y-118775113D01*
X163040000Y-118815113D02*
X164501000Y-118815113D01*
X163040000Y-118855113D02*
X164510000Y-118855113D01*
X163040000Y-118895113D02*
X164519000Y-118895113D01*
X163040000Y-118935113D02*
X164528000Y-118935113D01*
X163040000Y-118975113D02*
X164536000Y-118975113D01*
X163040000Y-119015113D02*
X164543000Y-119015113D01*
X163040000Y-119055113D02*
X164549000Y-119055113D01*
X163040000Y-119095113D02*
X164555000Y-119095113D01*
X163040000Y-119135113D02*
X164560000Y-119135113D01*
X163040000Y-119175113D02*
X164565000Y-119175113D01*
X163040000Y-119215113D02*
X164569000Y-119215113D01*
X163040000Y-119255113D02*
X164572000Y-119255113D01*
X163040000Y-119295113D02*
X164575000Y-119295113D01*
X163040000Y-119335113D02*
X164577000Y-119335113D01*
X163040000Y-119375113D02*
X164579000Y-119375113D01*
X163040000Y-119415113D02*
X164580000Y-119415113D01*
X163040000Y-119455113D02*
X164580000Y-119455113D01*
X164620000Y-119455113D02*
G75*
G02*
X159380000Y-119455113I-2620000J0D01*
G01*
X159380000Y-119455113D02*
G75*
G02*
X164620000Y-119455113I2620000J0D01*
G01*
%TO.C,Q1*%
X123640000Y-88690000D02*
X133860000Y-88690000D01*
X123640000Y-90070000D02*
X133860000Y-90070000D01*
X123640000Y-93310000D02*
X123640000Y-88690000D01*
X126900000Y-88690000D02*
X126900000Y-90070000D01*
X130600000Y-88690000D02*
X130600000Y-90070000D01*
X133860000Y-88690000D02*
X133860000Y-93310000D01*
X133860000Y-93310000D02*
X123640000Y-93310000D01*
%TO.C,R3*%
X156480000Y-89130000D02*
X156480000Y-89460000D01*
X156480000Y-91870000D02*
X156480000Y-91540000D01*
X163020000Y-89130000D02*
X156480000Y-89130000D01*
X163020000Y-89460000D02*
X163020000Y-89130000D01*
X163020000Y-91540000D02*
X163020000Y-91870000D01*
X163020000Y-91870000D02*
X156480000Y-91870000D01*
%TO.C,R2*%
X167730000Y-90130000D02*
X167730000Y-90460000D01*
X167730000Y-92870000D02*
X167730000Y-92540000D01*
X174270000Y-90130000D02*
X167730000Y-90130000D01*
X174270000Y-90460000D02*
X174270000Y-90130000D01*
X174270000Y-92540000D02*
X174270000Y-92870000D01*
X174270000Y-92870000D02*
X167730000Y-92870000D01*
%TO.C,R4*%
X149630000Y-93670000D02*
X149630000Y-100210000D01*
X149630000Y-100210000D02*
X149960000Y-100210000D01*
X149960000Y-93670000D02*
X149630000Y-93670000D01*
X152040000Y-93670000D02*
X152370000Y-93670000D01*
X152370000Y-93670000D02*
X152370000Y-100210000D01*
X152370000Y-100210000D02*
X152040000Y-100210000D01*
%TO.C,PWM1*%
X173120000Y-107120000D02*
X174500000Y-107120000D01*
X173120000Y-108500000D02*
X173120000Y-107120000D01*
X173120000Y-109770000D02*
X173120000Y-112420000D01*
X173120000Y-109770000D02*
X175880000Y-109770000D01*
X173120000Y-112420000D02*
X175880000Y-112420000D01*
X175880000Y-109770000D02*
X175880000Y-112420000D01*
%TO.C,J3*%
X109530000Y-107090000D02*
X119570000Y-107090000D01*
X109530000Y-109450000D02*
X109530000Y-107090000D01*
X109530000Y-117490000D02*
X109530000Y-110050000D01*
X110150000Y-107090000D02*
X110150000Y-117490000D01*
X111650000Y-107090000D02*
X111650000Y-117490000D01*
X116550000Y-107090000D02*
X116550000Y-117490000D01*
X119570000Y-107090000D02*
X119570000Y-117490000D01*
X119570000Y-117490000D02*
X109530000Y-117490000D01*
X109530000Y-109750000D02*
X108920000Y-110190000D01*
X108920000Y-109310000D01*
X109530000Y-109750000D01*
G36*
X109530000Y-109750000D02*
G01*
X108920000Y-110190000D01*
X108920000Y-109310000D01*
X109530000Y-109750000D01*
G37*
%TO.C,Q2*%
X139140000Y-88690000D02*
X149360000Y-88690000D01*
X139140000Y-90070000D02*
X149360000Y-90070000D01*
X139140000Y-93310000D02*
X139140000Y-88690000D01*
X142400000Y-88690000D02*
X142400000Y-90070000D01*
X146100000Y-88690000D02*
X146100000Y-90070000D01*
X149360000Y-88690000D02*
X149360000Y-93310000D01*
X149360000Y-93310000D02*
X139140000Y-93310000D01*
%TO.C,Vl1*%
X131345000Y-134880000D02*
X131345000Y-133500000D01*
X132725000Y-134880000D02*
X131345000Y-134880000D01*
X133995000Y-132120000D02*
X136645000Y-132120000D01*
X133995000Y-134880000D02*
X133995000Y-132120000D01*
X133995000Y-134880000D02*
X136645000Y-134880000D01*
X136645000Y-134880000D02*
X136645000Y-132120000D01*
%TO.C,D4*%
X145590000Y-126530000D02*
X151030000Y-126530000D01*
X145590000Y-126860000D02*
X145590000Y-126530000D01*
X145590000Y-129140000D02*
X145590000Y-129470000D01*
X145590000Y-129470000D02*
X151030000Y-129470000D01*
X146370000Y-126530000D02*
X146370000Y-129470000D01*
X146490000Y-126530000D02*
X146490000Y-129470000D01*
X146610000Y-126530000D02*
X146610000Y-129470000D01*
X151030000Y-126530000D02*
X151030000Y-126860000D01*
X151030000Y-129470000D02*
X151030000Y-129140000D01*
%TD*%
M02*
