M48
; DRILL file {KiCad 9.0.4} date 2025-09-12T15:15:45-0300
; FORMAT={-:-/ absolute / metric / decimal}
; #@! TF.CreationDate,2025-09-12T15:15:45-03:00
; #@! TF.GenerationSoftware,Kicad,Pcbnew,9.0.4
; #@! TF.FileFunction,Plated,1,2,PTH
FMAT,2
METRIC
; #@! TA.AperFunction,Plated,PTH,ComponentDrill
T1C0.700
; #@! TA.AperFunction,Plated,PTH,ComponentDrill
T2C0.800
; #@! TA.AperFunction,Plated,PTH,ComponentDrill
T3C0.900
; #@! TA.AperFunction,Plated,PTH,ComponentDrill
T4C1.000
; #@! TA.AperFunction,Plated,PTH,ComponentDrill
T5C1.100
; #@! TA.AperFunction,Plated,PTH,ComponentDrill
T6C1.300
; #@! TA.AperFunction,Plated,PTH,ComponentDrill
T7C1.500
%
G90
G05
T1
X113.0Y-96.98
X113.0Y-99.52
X125.73Y-134.0
X128.27Y-134.0
X139.23Y-133.5
X141.77Y-133.5
T2
X123.5Y-128.0
X123.5Y-130.0
X124.0Y-110.25
X124.0Y-112.25
X142.0Y-123.0
X144.0Y-123.0
X151.0Y-93.13
X151.0Y-100.75
X155.69Y-108.5
X156.5Y-89.0
X162.0Y-118.455
X162.0Y-120.455
X162.5Y-97.38
X162.5Y-105.0
X163.31Y-108.5
X164.12Y-89.0
X167.69Y-89.0
X169.0Y-113.75
X169.0Y-121.37
X175.31Y-89.0
T3
X146.5Y-95.44
X146.5Y-103.06
X149.38Y-128.5
X154.5Y-95.19
X154.5Y-102.81
X157.0Y-128.5
T4
X129.235Y-95.5
X131.775Y-95.5
X132.725Y-133.5
X135.265Y-133.5
X176.5Y-114.235
X176.5Y-116.775
X179.0Y-93.235
X179.0Y-95.775
T5
X126.225Y-90.75
X128.765Y-90.75
X131.305Y-90.75
X141.67Y-90.7
X144.21Y-90.7
X146.75Y-90.7
T6
X114.25Y-109.75
X114.25Y-114.83
X114.305Y-127.045
X114.305Y-132.125
X168.5Y-128.5
X173.58Y-128.5
T7
X130.5Y-114.5
X137.5Y-114.5
M30
