M48
; DRILL file {KiCad 9.0.4} date 2025-10-01T17:57:01-0300
; FORMAT={-:-/ absolute / metric / decimal}
; #@! TF.CreationDate,2025-10-01T17:57:01-03:00
; #@! TF.GenerationSoftware,Kicad,Pcbnew,9.0.4
; #@! TF.FileFunction,Plated,1,2,PTH
FMAT,2
METRIC
; #@! TA.AperFunction,Plated,PTH,ComponentDrill
T1C0.700
; #@! TA.AperFunction,Plated,PTH,ComponentDrill
T2C0.800
; #@! TA.AperFunction,Plated,PTH,ComponentDrill
T3C0.900
; #@! TA.AperFunction,Plated,PTH,ComponentDrill
T4C1.000
; #@! TA.AperFunction,Plated,PTH,ComponentDrill
T5C1.100
; #@! TA.AperFunction,Plated,PTH,ComponentDrill
T6C1.300
; #@! TA.AperFunction,Plated,PTH,ComponentDrill
T7C1.500
; #@! TA.AperFunction,Plated,PTH,ViaDrill
T8C2.800
%
G90
G05
T1
X113.0Y-96.98
X113.0Y-99.52
X125.73Y-134.0
X128.27Y-134.0
X139.23Y-133.5
X141.77Y-133.5
T2
X123.5Y-128.0
X123.5Y-130.0
X124.0Y-110.25
X124.0Y-112.25
X142.0Y-123.0
X144.0Y-123.0
X151.0Y-93.13
X151.0Y-100.75
X155.94Y-90.5
X161.19Y-97.38
X162.0Y-118.455
X162.0Y-120.455
X163.56Y-90.5
X167.19Y-91.5
X168.81Y-97.38
X174.81Y-91.5
T3
X144.5Y-128.0
X147.0Y-97.69
X147.0Y-105.31
X152.12Y-128.0
X154.5Y-93.19
X154.5Y-100.81
T4
X132.725Y-133.5
X135.265Y-133.5
X174.5Y-108.5
X174.5Y-111.04
X180.0Y-93.235
X180.0Y-95.775
T5
X126.21Y-91.95
X128.75Y-91.95
X131.29Y-91.95
X141.71Y-91.95
X144.25Y-91.95
X146.79Y-91.95
T6
X114.25Y-109.75
X114.25Y-114.83
X114.305Y-127.045
X114.305Y-132.125
X168.5Y-128.5
X173.58Y-128.5
T7
X130.5Y-114.5
X137.5Y-114.5
T8
X106.25Y-84.25
X106.25Y-138.25
X185.0Y-84.0
X185.0Y-138.0
M30
